<?xml version="1.0" encoding="utf-8"?>
<!-- Generator: Adobe Illustrator 25.2.3, SVG Export Plug-In . SVG Version: 6.00 Build 0)  -->
<svg version="1.1" id="Layer_1" xmlns="http://www.w3.org/2000/svg" xmlns:xlink="http://www.w3.org/1999/xlink" x="0px" y="0px"
	 viewBox="0 0 4680 3120" style="enable-background:new 0 0 4680 3120;" xml:space="preserve">
<style type="text/css">
	.st0{display:none;opacity:0.27;fill:#FFFFFF;enable-background:new    ;}
	.st1{opacity:0.2;}
	.st2{fill:#EEC8AD;}
	.st3{opacity:0.48;}
	.st4{opacity:0.49;}
	.st5{opacity:0.78;}
	.st6{opacity:0.71;}
	.st7{fill:#A5A140;}
	.st8{fill:#B3BD73;}
	.st9{fill:#ADC8CC;}
	.st10{fill:#C6D8DC;}
	.st11{opacity:0.65;}
	.st12{fill:#D28D5F;}
	.st13{opacity:0.21;}
	.st14{opacity:0.74;}
	.st15{fill:#FFFFFF;}
	.st16{fill:#B86836;}
	.st17{fill:#E4E2E2;}
	.st18{opacity:0.3;}
	.st19{fill:#928980;}
	.st20{fill:#4A3F3E;}
	.st21{fill:#D08963;}
	.st22{opacity:0.6;}
	.st23{fill:#F35C55;}
	.st24{fill:#CC3A3A;}
	.st25{opacity:0.88;}
	.st26{fill:#F9AD9B;}
	.st27{fill:#38324F;}
	.st28{fill:#201D2C;}
	.st29{fill:#CA1D3B;}
	.st30{fill:#22476B;}
	.st31{opacity:0.8;}
	.st32{fill:#F68E6E;}
	.st33{fill:#333333;}
	.st34{fill:#EE6749;}
	.st35{opacity:0.5;}
	.st36{fill:#41294B;}
	.st37{opacity:0.7;}
	.st38{fill:#F5FEF9;}
	.st39{opacity:0.58;}
	.st40{fill:#133044;}
	.st41{fill:#5F2324;}
	.st42{fill:#7B393B;}
	.st43{opacity:0.53;}
	.st44{fill:#44A7A7;}
	.st45{fill:#318E8B;}
	.st46{fill:#226C68;}
	.st47{fill:#571E1E;}
	.st48{fill:#4F1818;}
	.st49{fill:#8AB2B7;}
	.st50{fill:#F29F4C;}
	.st51{fill:#F8C066;}
	.st52{fill:#DD2C5D;}
	.st53{fill:#BC2050;}
	.st54{fill:#8E8A2F;}
</style>
<g>
	<g id="_09">
		<rect id="_09-2" class="st0" width="4680" height="3120"/>
		<g class="st1">
			<path class="st2" d="M3872.9,926.5c-2.7-6.6-5.4-13.2-8.2-19.8c12.9,28.9,23.8,58.6,32.6,89c-0.2-0.6-0.4-1.1-0.5-1.7
				s-0.4-1.1-0.6-1.7c-0.4-1.5-0.9-3-1.4-4.4s-0.9-3-1.4-4.4s-1-3-1.4-4.4c-0.8-2.4-1.6-4.8-2.4-7.2l-1.4-4
				c-0.6-1.5-1.1-3.1-1.6-4.6s-1-2.9-1.5-4.4c-0.6-1.6-1.1-3.2-1.7-4.9l-1.6-4.5c-0.6-1.6-1.2-3.2-1.8-4.7c-0.5-1.4-1.1-2.8-1.6-4.3
				l-1.1-2.9l-0.1-0.2c-0.6-1.4-1.1-2.9-1.7-4.3C3874.6,930.9,3873.8,928.7,3872.9,926.5z"/>
		</g>
		<g class="st1">
			<path class="st2" d="M3923.6,1181.7c0,14.6-0.5,29.2-1.4,43.9c-4.5,71.9-20.1,142.6-46.2,209.7
				c-41.3,106-129.7,153.5-197.9,240.8c-53.7,68.8-61.6,148.8-84.1,225.2v0.1c-5.6,19.4-12.5,38.4-20.8,56.9l0,0
				c-5.2,11.4-11,22.4-17.6,33c-33.1,53.1-86.6,92.2-144.6,114.2c-38.9,14.7-78.7,21.1-119,23.7c-4.3,0.3-8.7,0.5-13,0.7
				c-36.2,1.7-72.7,0.8-109.1,0.8c-59.6-0.1-119.1,0.9-178.7,2.8l-8.4,0.2c-97.1,3.1-194.1,8.3-291.1,14.2c-2.8,0.2-5.7,0.4-8.6,0.5
				c-97.8,6-195.4,12.6-293.2,18.4l-6,0.4l-24.8,1.4l0,0c-47,2.7-94.1,5.2-141.1,7.4c-42.7,2-85.4,3.6-128.1,4.8l-6.2,0.2l-13.4,0.4
				c-28.5,0.7-57,1.3-85.5,1.6c-64.7,0.8-129.3,0.5-193.9-0.9l-7.8-0.2c-61.3-1.5-122.6-4.4-183.8-8.5c-34.8-2.4-69.6-5.3-104.3-8.6
				c-4.2-0.4-8.5-0.8-12.7-1.3l-7.1-0.7c-39.6-4.1-80.2-8-121.2-12.8l0,0c-20.9-2.4-41.8-5.1-62.7-8.1c-0.3,0-0.6-0.1-0.9-0.1
				c-14.2-2.1-28.3-4.3-42.4-6.7c-15.4-2.7-30.7-5.6-45.9-8.7c-2.5-0.5-5-1.1-7.4-1.6l-5.8-1.3c-2.4-0.5-4.9-1.1-7.3-1.6
				c-15.7-3.6-31.2-7.6-46.6-11.9c-73.9-21-143.9-51.6-204.6-98.5c-9.3-7.2-18.2-14.5-26.7-21.9c-7.8-6.8-15.3-13.7-22.5-20.7
				c-13.4-13-26.1-26.8-38-41.1c-1.8-2.2-3.7-4.5-5.5-6.7l0,0c-0.3-0.3-0.5-0.6-0.8-0.9l0,0c-62.2-78.3-94.6-167.6-103.8-261.8
				c-4.9-49.9-3.2-101.2,3.9-152.9c3.9-28,9.2-55.8,16-83.3c0.2-0.8,0.4-1.6,0.6-2.3c5.6-22.7,12.2-45.5,19.7-68.2c0,0,0-0.1,0-0.1
				c1.2-3.6,2.4-7.1,3.6-10.7c1.6-4.6,3.2-9.2,4.8-13.8c0.2-0.6,0.5-1.3,0.7-2c1.9-5.2,3.8-10.4,5.7-15.6
				c9.9-26.3,20.9-52.3,32.9-78.2c5.8-12.6,11.9-25.1,18.2-37.5c14.2-28,29.3-55.5,45.5-82.5c7.4-12.3,14.9-24.5,22.7-36.5
				c80.5-125.2,179.6-235.2,278.3-312.9c6.9-5.4,13.7-10.6,20.6-15.7c2.2-1.6,4.4-3.2,6.5-4.8c0.4-0.3,0.8-0.6,1.2-0.9
				c85.4-61.8,177.3-99.3,273-125.4c5.7-1.6,11.3-3.1,17-4.5c93.4-24,190.2-38,288.2-53.6l9.4-1.5c8.9-1.4,17.9-2.9,26.8-4.3
				c89.1-14.7,177-30.5,264.6-51.9l6.1-1.5c3.9-1,7.7-1.9,11.6-2.9l2.8-0.7c22.1-5.6,44.3-11.2,66.6-16.8l-2.8,667.4l204.8,0.8
				l18.6,0.1l96,0.4l29.2,0.1l151.5,0.6l25.4,0.1l276.6,1.2l18.7,0.1l280.6,1.2l19.2,0.1l279.6,1.2l20.5,0.1l325.3,1.4
				c0,0.1,0,0.3,0,0.4C3923.4,1162.1,3923.6,1171.9,3923.6,1181.7z"/>
		</g>
		<path class="st2" d="M1132.6,1004c-10.6-7-26.8-2.1-32.5,9.3s-0.7,26.6,10.2,33.2s26,4.3,35.3-4.4c-12.2,7.7-11.9,27.5-1.6,37.6
			s26.8,11.5,40.5,7.2c11.8-3.7,23.6-13.8,21.8-26c-0.9-6.3-5.3-12.5-3-18.4c12.8,5.9,27.3,7.2,41,3.6c7.8-2.1,15.3-6,20.5-12.2
			c9.1-11,8.4-28.9-1.6-39.1s-27.9-11.3-39.1-2.5c11.1-6.6,19.4-18.4,20.2-31.3s-6.9-26.3-19-30.8c-13.7-5.1-29.8,2.1-38.7,13.7
			s-12.1,26.6-13.2,41.2c-3.6-14.5-10.8-27.9-21-38.9c-3.2-3.4-6.9-6.7-11.4-7.3c-5.6-0.8-11,2.7-15,6.8
			c-11.3,11.9-14.4,30.8-7.6,45.7c4.8,10.3,6.8,8.9,15.8,16C1130,1007.7,1136.1,1006.3,1132.6,1004z"/>
		<path class="st2" d="M2101.4,1567.1l-11.8,613.6l-6.2,0.2l-2.7-1063.7l5-262.6l0.6-30.8l6.3-324.9c2-0.5,4.1-1,6.1-1.5l0.8,326.4
			l0.1,30.8L2101.4,1567.1z"/>
		<path class="st2" d="M1801.3,1790.7l-10.8,391.3l-7.8-0.2l-0.2-1290.7l9.2-334.4l9.4-1.5L1801.3,1790.7z"/>
		<path class="st2" d="M2401.5,1343.5l-11.7,823.2l-6,0.4l-4.8-823.7l1.8-124.2l0.6-43.9l0.4-25.5l0.1-4.5l18.6,0.1v4.5l0.1,25.5
			l0.2,37.7v6.2l0.2,31.9l0,0L2401.5,1343.5z"/>
		<path class="st2" d="M2702.5,1146.7l-0.1,4.5l-0.3,25.5l-0.5,43.9l-10.1,927.3c-2.8,0.2-5.7,0.4-8.6,0.5l-8.4-772.4l1.7-155.5
			l0.5-43.9l0.3-25.5l0.1-4.4L2702.5,1146.7z"/>
		<path class="st2" d="M2997.7,1148v4.4l-0.2,25.5l-0.3,43.5v0.3l-1.9,278.9l-0.7,103.6l0,0l-1.2,172l0,0l-2.5,357.1l-8.4,0.2
			l-3.3-324.4l0,0l-0.2-21.7l0,0l0,0l-0.2-17.2l-1.6-159.6l0,0l-0.5-46.6l-0.3-32.3l2.1-299.4l0.1-10.7l0.3-43.9l0.2-25.5v-4.4
			L2997.7,1148z"/>
		<path class="st2" d="M3576.7,1224.2l20.5,0.1l-3.3,677v0.1c-5.6,19.4-12.5,38.4-20.8,56.9L3576.7,1224.2z"/>
		<polygon class="st2" points="3597.6,1150.5 3597.6,1150.9 3577.1,1150.8 3577.1,1150.4 		"/>
		<path class="st2" d="M3277.9,1222.9l19.2,0.1l-5.2,906.1c-4.3,0.3-8.7,0.5-13,0.7l-4.8-234.1L3277.9,1222.9z"/>
		<polygon class="st2" points="3297.5,1149.2 3297.5,1149.6 3278.3,1149.5 3278.3,1149.1 		"/>
		<path class="st2" d="M1501.3,2014.3l-2.6,57.9v0.8l-0.3,6.9l-3.8,84.7c-4.2-0.4-8.5-0.8-12.8-1.3l0.2-86.3v-5.6l2.3-1406.5
			l2.2-50.2c5.7-1.5,11.3-3,17-4.5L1501.3,2014.3z"/>
		<path class="st2" d="M906.9,1074.6l-3.8,914.7c-7.8-6.8-15.3-13.6-22.5-20.7l3.6-857.5C891.6,1098.8,899.2,1086.6,906.9,1074.6z"
			/>
		<g class="st3">
			<path class="st2" d="M1006.1,1439.6c-0.3-1.1-0.6-2.2-0.9-3.2c-2-6.6-5.4-12.8-10-18c-15.3-17.3-42.7-22.1-63.3-12.2
				c17.3-11.4,30.2-29.9,32.5-50.4c2.6-23.2-10-48.1-31.5-57.3l-0.6-0.2l0,0c-1.8-0.7-3.6-1.4-5.4-1.9c-1.6-0.5-3.3-0.8-5-1.1
				c-5.3-0.9-10.6-0.9-15.9-0.2c-4.8,0.6-9.5,1.8-14,3.4c-2.9,1.1-5.8,2.4-8.6,3.8c-1.8,0.9-3.5,1.9-5.2,3c-0.5,0.3-1,0.7-1.5,1
				c-5.6,3.7-10.6,8.1-14.9,13.2c-0.7,0.8-1.4,1.7-2.1,2.5c-0.1,0-0.1,0.1-0.1,0.2c-15.6,19.8-22.2,45.4-25.6,70.5
				c-3.7-19.4-11-38-21.5-54.7l0,0c-1.1-1.8-2.3-3.6-3.5-5.4c-2.3-3.3-4.7-6.6-7.3-9.8l-1.8-2.2c-1.4-1.7-3-3.4-4.5-5
				c-2.3-2.4-4.9-4.4-7.6-6.2c-2,5.2-3.9,10.4-5.7,15.6c-0.2,0.7-0.5,1.3-0.7,2c-1.6,4.6-3.2,9.2-4.8,13.8
				c-1.2,3.5-2.4,7.1-3.6,10.7c0,0,0,0.1,0,0.1c-7.4,22.7-14,45.4-19.7,68.2c-0.2,0.8-0.4,1.6-0.6,2.3c-6.8,27.5-12.1,55.3-16,83.3
				c12.5,1.4,25.1-1.5,35.8-8.1c-16.6,15.3-16.1,45.9-0.3,63.2c17.6,19.2,47.2,23.3,72.4,16.8c15.2-3.9,30.8-13.6,37.9-26.8
				c3.1-5.5,4.5-11.9,3.9-18.2c-0.5-5.4-2.4-10.9-3.8-16.3l0,0c-1.5-5.9-2.4-11.7,0-17.2l0,0c7.1,3.8,14.7,6.7,22.5,8.8
				c4,1.1,8,1.9,12.1,2.5c13,2,26.2,1.6,39-1.1c14.2-3,28.2-9.3,38.1-20c5.7-6.2,9.7-13.8,11.7-22
				C1008.3,1458.1,1008.3,1448.6,1006.1,1439.6z M759.6,1427.6c0.5,0.4,1.1,0.9,1.7,1.4C757.1,1429.1,758.4,1428.7,759.6,1427.6
				L759.6,1427.6z"/>
		</g>
		<g class="st4">
			<path class="st2" d="M2427.3,1212.2c-10.1-7.5-26.3-3.5-32.5,7.4s-2,26.2,8.4,33.2s25.4,5.6,35-2.6c-12.4,7-13.1,26.5-3.6,37
				s25.8,12.7,39.5,9.2c11.8-3,23.9-12.4,22.8-24.5c-0.6-6.2-4.6-12.6-2-18.3c12.3,6.5,26.6,8.5,40.2,5.6
				c7.8-1.7,15.4-5.1,20.8-10.9c9.6-10.4,9.7-28,0.4-38.6s-26.9-12.6-38.3-4.4c11.3-5.9,20.1-17.1,21.5-29.7s-5.4-26.2-17.2-31.3
				c-13.3-5.7-29.4,0.5-38.8,11.5s-13.2,25.6-15.2,39.9c-2.8-14.5-9.2-28-18.6-39.4c-2.9-3.5-6.4-6.9-10.9-7.8
				c-5.5-1.1-11,2.1-15.1,5.9c-11.8,11.1-15.9,29.5-9.9,44.5c4.1,10.4,6.3,9.1,14.7,16.5C2424.5,1215.7,2430.6,1214.7,2427.3,1212.2
				z"/>
		</g>
		<g class="st5">
			<path class="st2" d="M2877.1,1708.1c-15.1-11.1-39.2-5.2-48.5,11.1s-3,39.1,12.5,49.5s37.9,8.3,52.2-3.8
				c-18.5,10.4-19.6,39.5-5.3,55.2s38.5,19,59,13.7c17.6-4.5,35.7-18.5,34.1-36.6c-0.8-9.3-6.8-18.8-3.1-27.3
				c18.4,9.7,39.7,12.7,60.1,8.4c11.6-2.5,23-7.6,31-16.3c14.2-15.5,14.5-41.8,0.6-57.6s-40.1-18.8-57.2-6.6
				c16.9-8.8,30-25.5,32.1-44.4s-8.1-39.2-25.6-46.7c-19.8-8.5-43.9,0.8-57.9,17.1s-19.8,38.2-22.6,59.6
				c-4.2-21.6-13.7-41.9-27.8-58.8c-4.4-5.2-9.6-10.3-16.3-11.6c-8.2-1.6-16.4,3.1-22.5,8.8c-17.5,16.6-23.5,44.1-14.6,66.5
				c6.2,15.6,9.4,13.6,21.9,24.7C2873,1713.3,2882.1,1711.8,2877.1,1708.1z"/>
		</g>
		<path class="st2" d="M2369.8,2144.4c-1.1,9-4.9,17.4-10.9,24.1l0,0c-47,2.7-94.1,5.2-141.1,7.4c-0.4-0.9-0.8-1.8-1.2-2.9
			c-7.3-18.3-2.4-40.9,12-54.4c5-4.7,11.7-8.6,18.4-7.2c5.5,1.1,9.7,5.2,13.3,9.5c11.5,13.9,19.4,30.4,22.8,48.1
			c2.3-17.5,7-35.4,18.5-48.8s31.2-21,47.4-14C2363.2,2112.3,2371.5,2128.9,2369.8,2144.4z"/>
		<path class="st2" d="M2348.2,2178c-1.5,1-3,1.9-4.6,2.7C2345,2179.7,2346.6,2178.8,2348.2,2178z"/>
		<path class="st2" d="M1201.5,2126.2c-2.5-0.5-5-1.1-7.4-1.6c-1.9-0.4-3.9-0.8-5.8-1.3c-2.4-0.5-4.9-1.1-7.3-1.7v-9.6l0.1-36
			l0.8-259.5v-8l0.1-25.4v-2.3l0.1-38.9l0.1-33.7l0.1-33.1v-3.1l0.6-195.2l0.1-23.5l0.3-102.7l0,0v-9.9v-2.1v-14.6l0,0v-14.2l0,0v-2
			l0.2-50.1l0,0l0.5-170.7l0.4-140.3l0.6-185c6.9-5.4,13.7-10.6,20.6-15.7l-0.6,184.4l-0.3,112.7v12l0,0v15.8l-0.5,165.9l-0.1,36.4
			l0,0l0,45.7l-0.1,17.2v0.1v16.3v5.7v9.4l0,0l-0.9,294.9v3.2l-0.1,34.2l-0.1,40.2l-0.2,54.2v2.1v8.4l-0.1,21.9l-0.8,244.9
			L1201.5,2126.2z"/>
		<g class="st6">
			<path class="st7" d="M3131.2,983.2l-0.3,81.4c-50,6.9-132.1,14.8-215,21.8c0,0-0.1,0-0.1,0c-131.9,11.2-265.6,20.1-274.1,19.5
				c-11.2-0.9-200.2-13.5-327.1-22h-0.1c-65.1-4.4-113.8-7.6-113.8-7.6s-5-9.4-12.1-24.5c-3.4-7.2-7.2-15.7-11.3-25l0.8-181.3
				c71.9-6.4,213.2,117.9,213.2,117.9s-91.4-132.9-66.1-145.7c3.3-1.7,8.3-1.6,14.5-0.1c40.6,9.6,131.9,77.2,133.4,78.2
				c-0.4-1-20.7-44.7-21.3-85.9c-0.4-25.8,7-50.7,31.8-63.5c63-32.5,119.7,107.6,122.9,115.6c-2.1-6.6,3.6-22.8,4.6-29.1
				c4.2-24.7,9.2-49.2,15.1-73.5c14.3-59.5,32.6-122.2,67.8-173c29.5-42.5,101.8-87.4,131-20c16,36.9,21.4,79,34.2,117.3
				c19.1,57.3,22.3,109.3,22,169.2l0,0c0,1.9-0.1,2.9-0.1,2.9c0.1-0.4,0.3-0.8,0.4-1.2c17-50.8,33.8-78.4,49.6-91l4.1,3.3
				c22.3,18.1,44.9,35.9,66.6,54.5c1.8,1.5,3.5,3,5.2,4.5c31.8,27.5,61.5,56.8,85.6,91.3c3.8,5.4,7.4,10.9,10.9,16.4
				c3.5,5.6,6.9,11.2,10.3,17C3120.1,961.2,3125.9,972.1,3131.2,983.2z"/>
		</g>
		<path class="st8" d="M3131.2,983.2l-0.3,81.4l-0.1,22.7l-0.1,31.8l-951.2-2.7c-0.8-1.3-1.6-2.6-2.4-3.8l0.1-29.3l0.1-28.1
			c3.6-1.6,7.5-2.8,11.4-3.5c32-5.9,83.7,9.8,85.1,10.2c-1.5-1.5-74.9-73.8-19.1-107.2c56-33.5,232.4,102.3,234.9,104.2
			c-1.9-2.2-132.6-159.9-149.6-241.3c-4.7-22.7-0.7-39.5,17.5-45.4c24.1-7.8,58.2,9.3,94.5,37.6c89.1,69.5,191.7,206.5,193.3,208.6
			c-0.3-1.3-15.2-66.2,0.4-81.7s77.3,61.9,78.2,63c-0.4-1.3-24.4-89.1-11.3-109.3c13.2-20.4,65.1,57.3,65.1,57.3
			s-4.5-181.6,44-203.6c30.5-13.8,49.7,55.3,59.8,108.7l0,0c0.1,0.6,0.2,1.1,0.3,1.7c5.8,30.8,8.5,55.9,8.5,55.9s16.9-66,45.2-143.6
			c22.3,18.1,44.9,35.9,66.6,54.5c1.8,1.5,3.5,3,5.2,4.5c31.8,27.5,61.5,56.8,85.6,91.3c3.8,5.4,7.4,10.9,10.9,16.4
			s6.9,11.2,10.3,17C3120.2,961.2,3125.9,972.1,3131.2,983.2z"/>
		<polygon class="st9" points="3130.7,1087.3 3130.6,1119.2 3130.5,1148.5 3122.6,1148.5 2176.9,1144.5 2177.1,1112.7 
			2177.2,1083.3 2314.5,1083.9 2314.6,1083.9 2915.8,1086.4 		"/>
		<polygon class="st10" points="3130.7,1087.3 3130.6,1119.2 3130.5,1148.5 3130.5,1153 3130.5,1148.5 3122.6,1148.5 2176.9,1144.5 
			2177.1,1112.7 2177.2,1083.3 2314.5,1083.9 2314.6,1083.9 2915.8,1086.4 		"/>
		<g class="st11">
			<g class="st6">
				<path class="st7" d="M3917.9,1094.3c-53.3,3.7-89.8,5.8-94.4,5.4c-8.8-0.7-113.4-7.7-225.6-15.2l-20.5-1.4l-75.7-5l-57.1-3.8
					l-131.9-8.8c0,0-5.8-11-14-28.4c-0.2-0.4-0.4-0.9-0.6-1.3c-5.6-11.9-12.2-26.6-18.9-42.9c-26.2-63.7-53.5-151-22.2-181.9
					c5.4-5.3,12-9.1,19.3-11c1.3-0.4,2.7-0.7,4-1c6.3-1.2,12.8-1.4,19.2-0.9c86.2,6.5,234.1,136.6,234.1,136.6
					s-105.9-154-76.5-168.8c3.8-1.9,9.6-1.8,16.8-0.1c26.1,6.2,70.3,33,104.8,55.9c7.4,4.9,14.3,9.6,20.5,13.9
					c17.1,11.8,28.7,20.4,29.2,20.8c-0.5-1.1-24-51.8-24.7-99.5c-0.2-7.5,0.4-15.1,1.6-22.5c3.6-21.2,13.8-40,35.2-51.1
					c27.3-14.1,53.6-0.2,75.9,23.2c37.8,39.4,64.5,105.8,66.5,110.9c-2.6-7.6,4.1-26.5,5.3-33.8l1.3-7.6c9.3,13,18.2,26.3,26.7,39.9
					c18.3,29.1,34.5,59.5,48.5,90.9l0,0c2.8,6.6,5.5,13.2,8.2,19.8c0.9,2.2,1.7,4.4,2.6,6.6c0.6,1.4,1.1,2.9,1.7,4.3l0.1,0.2
					l1.1,2.9c0.5,1.4,1.1,2.8,1.6,4.3c0.6,1.6,1.2,3.1,1.8,4.7c0.6,1.5,1.1,3,1.6,4.5s1.2,3.2,1.7,4.8s1,2.9,1.5,4.4l1.6,4.6
					c0.5,1.3,0.9,2.7,1.4,4l2.5,7.2l1.4,4.4c0.5,1.5,0.9,3,1.4,4.4s0.9,3,1.4,4.4c0.2,0.6,0.4,1.1,0.5,1.7s0.3,1.1,0.5,1.7
					c0,0.1,0.1,0.2,0.1,0.3l0.1,0.4c0,0.1,0.1,0.2,0.1,0.3c7.5,26.1,13.4,52.6,17.7,79.5c0.8,4.9,1.5,9.8,2.2,14.7
					C3917.6,1092,3917.8,1093.2,3917.9,1094.3z"/>
			</g>
			<path class="st8" d="M3920.2,1113.8l-322.4-0.9l-20.5-0.1l-47.5-0.1l-232-0.7h-9.7c-3.4-5.4-6.5-10.9-9.4-16.6l0,0
				c-3.6-6.9-6.2-14.3-7.8-21.9c-2.6-13.4,0.9-22.5,8.1-28.3c4.9-4,11.6-6.6,19.2-8l0.6-0.1c37.1-6.8,97,11.3,98.5,11.8
				c-1.8-1.8-86.8-85.5-22.2-124.2c0.5-0.3,1-0.6,1.6-0.9c41.5-22.2,135.7,30,201.1,72.8c7.2,4.7,14.1,9.3,20.5,13.7l0,0
				c28.5,19.5,48,34.5,48.9,35.1c-0.8-1-21.7-26.1-48.7-62.2c-6.5-8.7-13.4-18-20.4-27.8c-43.5-60.4-93.4-138.1-104.2-189.5
				c-5.5-26.3-0.8-45.7,20.2-52.5c22.4-7.2,52.3,4.1,85,25.8c6.7,4.5,13.6,9.4,20.5,14.6c1.3,1,2.7,2.1,4.1,3.2
				c103.2,80.5,222.1,239.2,224,241.7c-0.1-0.4-1.3-5.5-2.7-13.3c-4.2-22.8-10.4-68,3.1-81.3c8-8,26.6,5.3,44.9,22.7
				c0.9,2.2,1.7,4.4,2.6,6.6c0.6,1.4,1.1,2.9,1.7,4.3l0.1,0.2l1.1,2.9c0.5,1.4,1.1,2.8,1.6,4.3c0.6,1.6,1.2,3.1,1.8,4.7
				c0.6,1.5,1.1,3,1.6,4.5s1.2,3.2,1.7,4.8s1,2.9,1.5,4.4l1.6,4.6c0.5,1.3,0.9,2.7,1.4,4l2.3,7.1l1.4,4.4c0.5,1.5,0.9,3,1.4,4.4
				s0.9,3,1.4,4.4c0.2,0.6,0.4,1.1,0.5,1.7s0.3,1.1,0.5,1.7c0,0.1,0.1,0.2,0.1,0.3l0.1,0.4c0,0.1,0.1,0.2,0.1,0.3
				c7.5,26.1,13.4,52.6,17.7,79.5c0.8,4.9,1.5,9.8,2.2,14.7c0.1,1.1,0.3,2.3,0.5,3.4c0.4,3.4,0.9,6.8,1.2,10.2
				C3919.5,1107.6,3919.9,1110.7,3920.2,1113.8z"/>
			<path class="st12" d="M3923.6,1181.7c0,14.6-0.5,29.2-1.4,43.9l-325-1.4l-20.5-0.1l-279.6-1.2l-19.2-0.1l-1167.8-4.9l3-724.1
				c22.1-5.6,44.3-11.2,66.6-16.8l-1.5,368.5l-0.8,181.3l-0.1,28.4l-0.1,28.1l-0.1,29.3l-0.1,31.8l945.6,4h7.9v4.5v-4.5l78.3,0.3
				l36.7,0.2v0.4l32.9,0.1l19.2,0.1l279.6,1.2l20.5,0.1l325.4,1.4C3923.4,1162.1,3923.6,1171.9,3923.6,1181.7z"/>
			<polygon class="st12" points="3130.5,1148.5 3130.5,1153 3130.5,1148.5 			"/>
			<path class="st9" d="M3923,1152.2l-677.5-2.8v-0.4l0.3-75.6l25,0.1l173.8,0.7l0,0l470.6,2c0.8,4.9,1.5,9.8,2.2,14.7
				c0.2,1.1,0.3,2.3,0.5,3.4c0.4,3.4,0.9,6.8,1.2,10.2c0.4,3.1,0.7,6.2,1,9.3c1.3,12.7,2.2,25.3,2.8,38
				C3923,1152,3923,1152.1,3923,1152.2z"/>
			<path class="st10" d="M3923,1152.2l-677.5-2.8v-0.4l0.3-75.6l25,0.1l173.8,0.7l0,0l470.6,2c0.8,4.9,1.5,9.8,2.2,14.7
				c0.2,1.1,0.3,2.3,0.5,3.4c0.4,3.4,0.9,6.8,1.2,10.2c0.4,3.1,0.7,6.2,1,9.3c1.3,12.7,2.2,25.3,2.8,38
				C3923,1152,3923,1152.1,3923,1152.2z"/>
		</g>
		<g class="st13">
			<path class="st10" d="M3923,1151.8l-677.5-2.8l-36.7-0.2l-86.2-0.4l-945.6-4l2.8-667.4c14.3-3.6,28.5-7.2,42.9-10.7
				c56.2-14,112.7-27.7,169.4-40.4l4.2-0.9c33-7.3,66-14.3,99.1-20.8c63.2-12.4,126.7-22.9,190.3-30.6c5.4-0.7,10.8-1.3,16.3-1.9
				c51-5.8,102.1-9.6,153.3-11.1c21.6-0.6,43.2-0.8,64.9-0.5c21.5,0.3,43,1.1,64.5,2.3c6.2,0.4,12.4,0.8,18.7,1.2
				c40.9,3,81.8,7.9,122.6,14.9c28.7,4.9,57.4,11,86.1,18.1c3.8,0.9,7.7,1.9,11.5,2.9l2.1,0.5c19.1,5,38.1,10.6,57.1,16.7
				c6.4,2.1,12.8,4.2,19.1,6.4c15.5,5.3,30.9,11.1,46.3,17.2c82.2,32.7,160.1,75.4,231.9,127.2c6.9,5,13.7,10,20.4,15.2
				c50.2,38.1,96.5,81.2,138.1,128.5c18.1,20.7,35.1,42.2,51.1,64.5c9.3,13,18.2,26.3,26.7,39.9c18.3,29.1,34.4,59.5,48.5,90.9l0,0
				c2.8,6.6,5.5,13.2,8.2,19.8c0.9,2.2,1.7,4.4,2.6,6.6c0.6,1.4,1.1,2.9,1.7,4.3l0.1,0.2l1.1,2.9c0.5,1.4,1.1,2.8,1.6,4.3
				c0.6,1.6,1.2,3.1,1.8,4.7l1.6,4.5c0.6,1.6,1.2,3.2,1.7,4.9c0.5,1.5,1,2.9,1.5,4.4s1.1,3.1,1.6,4.6l1.4,4c0.8,2.4,1.6,4.8,2.4,7.2
				c0.5,1.5,0.9,3,1.4,4.4s0.9,3,1.4,4.4s0.9,3,1.4,4.4c0.2,0.6,0.4,1.1,0.6,1.7s0.3,1.1,0.5,1.7c0,0.1,0.1,0.2,0.1,0.3
				s0.1,0.3,0.1,0.4s0.1,0.2,0.1,0.3c7.5,26.1,13.4,52.6,17.7,79.5c0.8,4.9,1.5,9.8,2.2,14.7c0.2,1.1,0.3,2.3,0.5,3.4
				c0.4,3.4,0.9,6.8,1.2,10.2c0.4,3.1,0.7,6.2,1,9.3C3921.5,1126.4,3922.4,1139.1,3923,1151.8z"/>
		</g>
		<g class="st14">
			<path class="st12" d="M3211.9,396.6l-3.1,752.2l-86.2-0.4l3.2-769.9C3154.5,383.5,3183.2,389.5,3211.9,396.6z"/>
		</g>
		<g class="st14">
			<path class="st12" d="M3245.4,1149.4v-0.4l-36.7-0.2l36.7,0.2l677.5,2.8c0,0.1,0,0.3,0,0.4L3245.4,1149.4z"/>
		</g>
		<g class="st1">
			<path class="st15" d="M3923.6,1181.7c0,14.6-0.5,29.2-1.4,43.9l-302-1.3l-22.9-28.2l-12.8-15.8l-7.6-9.3l-16.4-20.2l-0.4-0.4
				l-30.5-37.6l-28-34.6l-2.9-3.6l-122.1-150.7l-77.3-95.4l-19-23.5l-4-5l-65.8-81.1L3124.8,613l-72.7-89.7l-49.7-61.3l-18.5-22.8
				l-64-79c21.5,0.3,43,1.1,64.5,2.3c6.2,0.4,12.4,0.8,18.7,1.2c40.9,3,81.8,7.8,122.6,14.9c28.7,4.9,57.4,11,86.1,18.1
				c3.8,0.9,7.7,1.9,11.5,2.9l2.1,0.5c19.1,5,38.1,10.6,57,16.7c6.4,2.1,12.8,4.2,19.1,6.4c15.5,5.3,30.9,11.1,46.3,17.2
				l231.3,264.1l0,0l20.4,23.3l5.6,6.4l219.6,250.9l79.7,91l12.9,14.7c0.1,1.1,0.3,2.3,0.5,3.4c0.4,3.4,0.9,6.8,1.2,10.2
				c0.4,3.1,0.7,6.2,1,9.3c1.3,12.7,2.2,25.3,2.8,38c0,0.1,0,0.3,0,0.4C3923.4,1162.1,3923.6,1171.9,3923.6,1181.7z"/>
		</g>
		<g class="st1">
			<path class="st15" d="M3188.3,1222.5l-329.7-1.4l-37.1-44l-21.5-25.6l-3.8-4.5l-24.4-28.9l-16.2-19.2l-11.2-13.2l-40.8-48.5
				l-25-29.7l-40-47.5L2468.3,758l-70.7-83.9l-9-10.7l0,0l-166-197.1c56.2-14,112.7-27.7,169.4-40.4l4.2-0.9
				c33-7.3,66-14.3,99.1-20.8l180.3,212.9l7.2,8.5l22,26l97,114.6l81.3,96l15.4,18.2l0,0l81.8,96.6l18.5,21.9l62.7,74.1l12.1,14.2
				l27.1,32l21.9,25.8l3,3.5l3.8,4.5l1.1,1.3L3188.3,1222.5z"/>
		</g>
		<path class="st12" d="M1029,1700.1c45.7,23,85.8,38.6,138.1,47.1s134.5-7.9,179.8,21.5c31.6,20.5,24.3,77.8-15.8,90.8
			c-55,17.8-140.8-22.5-188.4-46c-52.2-25.7-106.8-49.6-118-109.7C1026.5,1703.1,1028,1701.8,1029,1700.1z"/>
		<path class="st12" d="M1599,2173.3c-34.8-2.4-69.6-5.3-104.3-8.6c-4.2-0.4-8.5-0.8-12.8-1.3l-7.1-0.7c-39.6-4.1-80.2-8-121.2-12.8
			l0,0c-13.4-5.9-27.4-12.4-40.5-19.8l-0.6-0.4c-7.5-4.2-14.7-8.8-21.7-13.7c-4.2-3.1-8.3-6.3-12-9.6l-0.3-0.2
			c-4-3.5-7.8-7.4-11.2-11.5c-0.7-0.9-1.4-1.8-2.1-2.8c-0.1-0.1-0.2-0.3-0.3-0.4c-7.4-11.5-7.5-27.3-3-41.4c0.5-1.6,1.1-3.2,1.7-4.7
			c0,0,0-0.1,0-0.1c6.6-16.3,19.4-29.4,33.8-29.5h1.5h0.1c0.5,0,0.9,0,1.4,0.1c0.3,0,0.5,0,0.8,0.1h0.1c0.3,0,0.7,0,1.1,0.1
			c0.8,0,1.6,0.1,2.3,0.2c5.9,0.8,11.7,2,17.4,3.6l0.2,0.1c19.2,5.4,39.7,15,50.7,21.2l1.2,0.7c3,1.6,6.3,3.3,9.8,4.9
			c0.7,0.3,1.4,0.7,2.2,1h0.1c7,3.1,14.9,6.1,23.3,8.9c12.9,4.2,26.1,7.7,39.5,10.4l1.4,0.3c10.5,2.1,21.1,3.6,31.8,4.5
			c5.7,0.4,11.3,0.7,16.7,0.7c7.9,0.1,15.8-0.5,23.6-1.9c9.6-1.7,17.9-4.7,24.2-9.2h0.1c0.9-0.6,1.7-1.3,2.5-2
			c33.3-29.2,83.9-27.2,105.3,1.7l0,0c3.9,5.3,6.7,11.3,8.3,17.7c1.3,4.9,2.1,9.9,2.6,15C1668.9,2136.4,1637.7,2160.9,1599,2173.3z"
			/>
		<path class="st16" d="M1297.9,2015.7c25.9,0.6,52,15.4,76.3,26c11.6,5.1,23.5,9.7,35.5,13.6c-11,40.2-46,65.6-82.5,81.9
			c-19.4-10.5-48-26.5-60.6-43C1248.7,2070.5,1265.3,2015,1297.9,2015.7z"/>
		<path class="st12" d="M1606,2055.6c-33.9,2.5-62.8,27.9-101.1,25c-20.5-1.5-42.5-7.9-60.8-15.8c29.2,12.3,84.8,11.9,106.1-6.4
			c38-32.5,97.3-24.1,114.1,19.3c2.8,7.3,0.2,12,2.2,18.6C1654.2,2070.4,1638.2,2053.3,1606,2055.6z"/>
		<path class="st12" d="M1386.4,2046c-0.1,0.3-0.1,0.6-0.2,0.8c-0.1,0.2-0.1,0.5-0.2,0.7c-5.5,20.1-16.5,38.1-34.3,54.7
			c-10.3,9.6-22.9,18.7-38,27.5c-0.2,0.1-0.4,0.2-0.7,0.4c-5.1,2.9-10.5,5.8-16.1,8.7c-2,1-4,2-6.1,3c-0.3,0-0.6-0.1-0.9-0.1
			c-14.2-2.1-28.3-4.3-42.4-6.7c-15.4-2.7-30.7-5.6-45.9-8.7c-2.5-0.5-5-1.1-7.4-1.6c-1.9-0.4-3.9-0.8-5.8-1.3
			c-2.4-0.5-4.9-1.1-7.3-1.7c-15.7-3.6-31.2-7.6-46.6-11.9c-73.9-21-143.9-51.6-204.6-98.5c-9.3-7.2-18.2-14.5-26.7-21.9
			c-7.8-6.8-15.3-13.6-22.5-20.7c-13.4-13-26.1-26.8-38-41.2c-1.8-2.2-3.7-4.5-5.5-6.7l0,0c-0.5-11-0.8-21.9-0.8-32.6
			c-0.1-48.9,5.1-95.1,17.8-147.8c1.5-6.1,3.1-12.4,4.7-18.7c1.5-5.5,3-11,4.6-16.7c2.4-8.5,0,0,0-0.1c1.8-6.5,3.8-13.1,5.9-19.8
			c4.1,0.3,8.3,0.3,12.4,0.1c4.8-0.2,10.3-0.5,16.3-1l0,0l6.2-0.5c19.9-1.6,44.9-4.2,70-5.9l0,0c5.2-0.3,10.5-0.7,15.7-0.9h0.5
			c23.3-1.1,45.9-1.2,63.7,1.3l0,0c10.9,1.5,20,4,26.3,7.8l0,0c4.6,2.7,7.8,6.2,9.2,10.4l0.1,0.4c0.6,1.6,1.2,3.1,2,4.7
			c2.6,4.9,5.7,9.4,9.2,13.6c6.1,7.2,12.8,14,20,20.2c3.4,3,7,6,10.6,9c0.3,0.3,0.7,0.6,1,0.8l0.2,0.2c16.5,13.4,34.7,26,48.9,35.8
			c5.6,3.8,10.7,7.2,14.7,10c2,1.3,3.9,2.7,5.8,3.9c4.1,2.7,8.1,5.2,12.2,7.6c24.5,14.4,47.7,23.5,68.8,33l0,0
			c34.9,15.8,64.2,32.8,84.4,77.3l0,0c6,13.3,11.3,29.1,15.6,48c2.9,12.5,5,25.1,6.1,37.9l0,0
			C1391.1,2015.8,1390.2,2031.5,1386.4,2046z"/>
		<path class="st16" d="M853.4,1740.3c0.3-5.6,2.6-12.3,4.2-17.3c4-12.3,7.7-23.4,12-35.4c36.1-4.1,206.5-26.5,220.3,7.6
			c2.1,5.1,7.5,15.2,12.2,19.6C1023.2,1748.3,937.4,1752.9,853.4,1740.3z"/>
		<g>
			<path class="st17" d="M836.3,1888.2c3.2,16,3.6,27.1,6.3,39.3c-1.8-2.2-3.7-4.5-5.5-6.7l0,0c-0.3-0.3-0.5-0.6-0.8-0.9l0,0
				c-0.5-11.2-0.9-23.3-1.2-36.9C835.6,1884.8,836,1886.5,836.3,1888.2z"/>
		</g>
		<path class="st16" d="M1387.1,2042.4c-0.2,1.2-0.4,2.4-0.7,3.6c0,0.3-0.1,0.6-0.2,0.8s-0.1,0.5-0.2,0.7
			c-4.9,22-17.8,39.9-34.4,54.7c-11.6,10.4-25,19.3-38.7,27.1c-0.2,0.1-0.4,0.2-0.7,0.4c-4.2,2.4-8.5,4.8-12.8,7
			c-3.2,1.7-6.5,3.3-9.8,5c-14.2-2.1-28.3-4.3-42.4-6.7c14.8-5.5,29.2-11.8,43.3-18.9l0.4-0.2c36.9-18.7,71.5-42.9,92.7-69.2
			c0.2-0.2,0.3-0.4,0.4-0.5C1385.2,2044.9,1386.2,2043.6,1387.1,2042.4z"/>
		<path class="st2" d="M1246.1,2057.6c51.7-20.1,98.5-84.3,68.5-138.8c-12.8-23.2-27.8-41.6-45.9-53.5
			c-55-36.2-99.6-53.3-161.1-86.4c-22.7-12.2-80.8-33.1-115.9-14.3c-24.8,13.3-34.3,53.5-31.6,82.3
			C965.6,2022.3,1064.8,2128.1,1246.1,2057.6z"/>
		<g class="st18">
			<path class="st19" d="M1297,1855.7c53.2,36.4,72.4,85.6,93.1,144.2c-2.4-16.4-1.2-25.1-5.7-41.9
				c-32.5-121.1-100.7-110.3-188.3-167.7c-18-11.8-57.4-39.4-76.4-57.3C1181.8,1791.5,1230.1,1809.8,1297,1855.7z"/>
		</g>
		<path class="st12" d="M1238.5,1395.5c56.8-10.3,99.8-40.1,75.2-102.9c-19.7-50.5-79.3-91.4-122.5-44.7
			c-20.2,21.9-24.6,55.6-30.5,83.3C1186.4,1353.5,1212.2,1374.8,1238.5,1395.5z"/>
		<path class="st2" d="M1232.8,1382c40.3-8.1,70.8-28.3,53.8-73c-13.6-35.9-56.1-65.2-86.9-31.5c-14.4,15.8-17.8,38.1-22,58.4
			C1195.9,1351.7,1214.1,1367.1,1232.8,1382z"/>
		<path class="st12" d="M911,1240.6c-0.2,7.5-1.9,14.9-4.9,21.8c-5.3,12.6-14.1,24.2-22.7,35.7c-0.4,0.5-0.7,1-1.1,1.5
			c-1.4,1.9-2.8,3.7-4.1,5.6c-2.8,3.9-5.5,7.7-7.9,11.7c-0.3,0.5-0.6,1-0.9,1.5c-3.2,1.2-6.5,2.4-9.7,3.5c-4.8,1.7-9.7,3.4-14.5,5.1
			l-0.8,0.3c-10.7,3.6-21.3,7.1-32,10.6l-9.7,3.2c-10,3.3-20,6.7-29.9,10.2c1.2-3.6,2.3-7.1,3.6-10.7c1.6-4.6,3.2-9.2,4.8-13.7
			c-0.2-0.4-0.3-0.7-0.5-1.1l1.2-0.9c1.9-5.2,3.8-10.4,5.7-15.6c9.9-26.3,20.9-52.3,32.9-78.2c5.8-12.6,11.9-25.1,18.2-37.5
			c16-1.8,32.2-0.7,45.2,4.7c9.8,4,17.7,10.4,22.5,19.6C909.5,1224.1,911.2,1231.6,911,1240.6z"/>
		<path class="st2" d="M886.2,1259c-0.2,4.4-1.1,8.8-2.6,13c-2.4,6.8-6.3,13.3-10.5,19.6c-2.3,3.5-4.8,7-7.1,10.4
			c-3.4,4.8-6.5,9.8-9.3,14.9c-15.9,5.6-31.8,10.6-47.8,15.5c-7.1,2.2-14.1,4.3-21.3,6.5c-1-1.6-2-3.2-2.9-4.9
			c-1.3-2.3-2.5-4.7-3.5-7.2c-0.2-0.4-0.3-0.7-0.5-1.1l1.2-0.9c1.9-5.2,3.8-10.4,5.7-15.6c9.9-26.3,20.9-52.3,32.9-78.2
			c23.7-8.1,54.3-8.2,63.2,12.8C885.6,1248.7,886.4,1253.9,886.2,1259z"/>
		<path class="st16" d="M887.8,1290.8c-1.5,1.8-3,3.6-4.4,5.4c-0.9,1.2-1.8,2.4-2.6,3.6c-1.5,2.1-2.8,4.2-4.2,6.4
			c-2.2,3.5-4.2,7-6.3,10.7l-1,1.8c-3.2,1.2-6.5,2.3-9.8,3.4c-4.8,1.7-9.6,3.3-14.4,4.9l-0.8,0.3c-10.7,3.6-21.3,7-32,10.6l-9.7,3.2
			c-10,3.3-20,6.8-30,10.3c0,0-0.1,0-0.1,0.1l-0.9-1.5c0.3,0.5,0.6,0.9,0.9,1.4l0.2-0.1c1.2-3.6,2.3-7.1,3.6-10.7
			c1.6-4.6,3.2-9.2,4.8-13.7c-0.2-0.4-0.3-0.7-0.5-1.1l1.2-0.9c4.5-3.3,9.1-6.6,13.4-9.4c3.4-2.3,6.6-4.4,9.4-6.1
			c21.1-13.1,44.8-16.2,68.4-17.7c3.5-0.2,7-0.4,10.4-0.6L887.8,1290.8z"/>
		<path class="st16" d="M1262.9,1389.9c-8.1,2.1-16.3,4.2-24.5,5.9c-26.1-21.2-52.3-42.3-77.6-64.4c1.6-9.7,3.3-19.4,5.7-29
			C1211.9,1312.3,1241.1,1351.5,1262.9,1389.9z"/>
		<path class="st12" d="M1259.7,1573.2c1-19.6,0.2-35.8-1.1-54.2c0-0.1,0-0.1,0-0.2c0-0.1,0-0.1,0-0.2c0,0,0-0.1,0-0.1
			c-0.4-8.3-1-17-1.7-26.3c-3.6-48.4,9.3-90.3-31.2-137c-14.4-16.5-37.1-30.3-63.6-41l-0.8-0.3l-0.3-0.1l-2.2-0.8l-1.5-0.6l-0.3-0.1
			c-2.6-1-5.2-2-7.9-2.9c-0.5-0.2-1-0.4-1.6-0.5c-0.7-0.3-1.4-0.5-2.2-0.8l-3.4-1.1l-0.7-0.2l-4.9-1.6l-1.2-0.4l-0.7-0.2
			c-1.9-0.6-3.8-1.1-5.7-1.7l-0.5-0.1l0,0l-2.4-0.7l-0.4-0.1l-1-0.3c-2.7-0.7-5.5-1.4-8.2-2.1l-0.4-0.1l-0.3-0.1l-1.3-0.3l-0.4-0.1
			h-0.2l-3.1-0.7l-0.5-0.1l-0.5-0.1c-2.1-0.5-4.2-0.9-6.2-1.4l-0.5-0.1l-2.7-0.6c-1.2-0.2-2.4-0.5-3.6-0.7l-0.5-0.1l-1.9-0.3
			l-1.2-0.2l-1.1-0.2h-0.2l-1.9-0.3l-1-0.2l-0.6-0.1c-1.6-0.3-3.1-0.5-4.6-0.8l-1.2-0.2l-3.6-0.5c-1.2-0.2-2.4-0.3-3.6-0.5
			c-3.5-0.5-7.1-1-10.6-1.3l-1.5-0.2l-4.2-0.4l-1.3-0.1h-0.1l-3.4-0.3l-1.1-0.1l-2.7-0.2c-1.7-0.1-3.5-0.2-5.2-0.3h-0.3
			c-13.2-0.8-26.4-0.8-39.6,0.1c-22.5,1.7-52.7,3.6-83.5,6.5c-5.3,0.5-10.6,1-15.9,1.6c-4.7,0.5-9.3,1-14,1.6
			c-2.9,0.3-5.7,0.7-8.6,1.1c-0.4,0-0.7,0.1-1.1,0.2s-1,0.1-1.5,0.2c-5,0.7-10,1.4-14.9,2.2c-10.5,1.6-20.4,3.5-29.5,5.6
			c-10.6,2.4-22.7,7.8-34.8,15.1c-5.8,3.4-11.5,7.2-16.9,11.2c-2.8,2.1-5.6,4.3-8.3,6.5c-1.2,3.6-2.4,7.1-3.6,10.7l-0.2,0.1
			c-0.3-0.5-0.6-0.9-0.9-1.4l0.9,1.5c0,0,0.1,0,0.1-0.1c-7.4,22.7-14,45.4-19.7,68.2c-0.2,0.8-0.4,1.6-0.6,2.3
			c-6.8,27.5-12.1,55.3-16,83.3c-7.1,51.7-8.8,103-3.9,152.9c30.2,40.3,73.6,57.7,125.4,63.5c0.3,0,0.6,0.1,0.9,0.1
			c4.7,0.5,9.5,1,14.4,1.3c2.8,0.2,5.6,0.4,8.3,0.5c7.6,0.4,15,0.7,22.5,0.8c11.5,0.2,23.1-0.1,35.1-0.8c29.5-1.8,58.6-5.2,87.7-9.8
			c5.5-0.9,10.9-1.8,16.4-2.7l5.8-1c12.6-2.2,25.2-4.7,37.9-7.4l4.9-1l0.9-0.2c28.6-6.2,61.8-15,89.5-26.2c7.3-3,14.2-6.1,20.6-9.4
			c1-0.5,2-1.1,3-1.6c12.4-6.8,21.9-13.3,29.3-20.2l0,0c2.4-2.3,4.7-4.7,6.8-7.3c-0.1,0.4-0.2,0.8-0.3,1.2c1.3-2,2.6-4,3.7-5.9l0,0
			c2-2.9,3.7-6,5.1-9.3l0,0c5.5-11.2,8.3-22.3,8.7-37.9C1259.6,1580.8,1259.7,1577,1259.7,1573.2z"/>
		<path class="st2" d="M1131.5,1530c2.3,48-5.6,123.8-55.7,141.8c-142.7,51-208.7-69.7-149.7-180.6c28.1-52.9,76.2-58.4,131.9-46.8
			C1096.7,1452.4,1129.2,1482,1131.5,1530z"/>
		<path class="st20" d="M1046.1,1437.3c-16.2-0.4-43.6-5.1-57.5,4.3c-11.9,8.1,11.1,23,20.8,26.9c15.2,6.1,25.6,1.4,43.6-10
			C1065.9,1450.3,1071.9,1438.1,1046.1,1437.3z"/>
		<path class="st20" d="M1036.6,1645.9c-0.2,0-0.3,0-0.5-0.1c-18.3-5.4-19.3-21-20.2-36c-0.1-1.7-0.2-3.3-0.3-5
			c-1.1-14.7-1.1-29.9-1.1-44.7c0-6.4,0-12.5-0.1-18.5c-0.3-21.5,2.1-40.4,4.6-60.5c0.4-3.2,0.8-6.4,1.2-9.7c0.1-1,1-1.7,2-1.6
			c1,0.1,1.7,1,1.6,2c-0.4,3.3-0.8,6.5-1.2,9.7c-2.5,19.9-4.9,38.7-4.6,60c0.1,6,0.1,12.1,0.1,18.6c0,14.7,0,29.8,1.1,44.4
			c0.1,1.7,0.2,3.4,0.3,5.1c0.9,15.1,1.7,28.1,17.6,32.8c1,0.3,1.5,1.3,1.2,2.2C1038.2,1645.5,1037.4,1646,1036.6,1645.9
			L1036.6,1645.9z"/>
		<path class="st20" d="M1007.7,1648.2c-1,0-1.8-0.8-1.8-1.8c0-0.8,0.5-1.4,1.2-1.7c7.6-2.7,11.2-13.5,10.2-21.8
			c-0.2-1,0.5-1.9,1.5-2.1c1-0.2,1.9,0.5,2.1,1.5c0,0.1,0,0.1,0,0.2c1,8.4-2.3,21.9-12.6,25.6
			C1008.2,1648.2,1007.9,1648.2,1007.7,1648.2z"/>
		<path class="st20" d="M886.4,1409.7c-1.7,6.4-0.5,15.4,7.2,15.7s12.9-8.5,14.5-15s0.4-15.1-7.3-15.5S888.1,1403.3,886.4,1409.7z"
			/>
		<path class="st20" d="M1147.9,1413.9c-0.8,7.2,3.1,14.2,10.8,14.8s12.8-5.5,13.6-12.6s-2.8-14.6-10.5-15.2
			S1148.7,1406.6,1147.9,1413.9z"/>
		<path class="st21" d="M1194.1,2124.6c-1.9-0.4-3.9-0.8-5.8-1.3c-2.4-0.5-4.9-1.1-7.3-1.7c-15.7-3.6-31.2-7.6-46.6-11.9
			c13.3-5.7,25.8-8.1,33.7-5.2c4.7,1.8,9,4.4,12.9,7.6C1185.7,2115.9,1190.1,2120.1,1194.1,2124.6z"/>
		<path class="st12" d="M888,1759.3c22.5,9.5,30.7,30.4,46,48.5c17.9,21.2,43.3,44,65.2,59.4c53.2,37.3,118,46.2,160.8,98.1
			c29.8,36.2-12,85.6-51.4,74c-54.1-15.8-129.3-88.2-167.2-128.5c-28.6-30.4-91.3-96.1-71.3-141.9
			C873.4,1761.4,882.1,1756.8,888,1759.3z"/>
		<path class="st2" d="M875,939.2c-5.8,7.4-11.8,14.6-17.8,21.8c-5.8,7.4-11.6,14.7-17.4,22c-5.6,7.5-11.2,14.9-16.9,22.2
			c-5.4,7.5-10.9,15.1-16.4,22.6c-5.2,7.7-10.5,15.3-15.8,22.9c-5.1,7.8-10.1,15.6-15.3,23.3c-4.8,7.9-9.7,15.8-14.7,23.6
			c-4.7,8-9.6,15.9-14.5,23.8c-4.7,8-9.4,16-14.2,24l-13.7,24.3c-4.3,8.2-8.6,16.6-12.8,24.9c-4,8.4-7.8,16.9-11.6,25.5
			c-3.5,8.7-6.9,17.4-10.2,26.1c-1.5,4.4-3,8.8-4.5,13.3c-1.5,4.4-2.9,8.9-4.4,13.3s-2.6,9-3.8,13.5l-3.7,13.5
			c-2.2,9.1-4.2,18.2-6.4,27.2l-5.4,27.4l-2.3,13.8l-2.4,13.7c-1.3,9.2-2.7,18.4-4.1,27.6l-3.5,27.6c-3.9,36.8-5.9,73.9-6,110.9
			c-0.3,37.1,1.3,74.1,4.9,111c1.1,9.2,2,18.5,3,27.7l2,13.8l1.8,13.9c1.6,9.2,3,18.4,4.5,27.6c1.8,9.2,3.5,18.4,5,27.6l-1.8,0.5
			c-3.2-8.8-6.2-17.8-9.2-26.7c-2.6-9-5.3-18.1-7.8-27.2l-3.4-13.7l-3.2-13.8c-1.8-9.2-3.7-18.5-5.5-27.8
			c-6.4-37.3-9.9-75.1-10.2-113c-0.3-37.9,2.9-75.8,8.4-113.2l4.6-28c1.8-9.3,3.7-18.5,5.7-27.8l3.4-13.8l3.5-13.7l7.9-27.2
			c2.9-9,5.9-17.9,8.7-26.9l4.7-13.3c1.5-4.4,3-8.9,4.5-13.3c3.3-8.8,6.4-17.7,9.5-26.5c3.4-8.8,6.7-17.6,9.9-26.4
			c3.5-8.7,6.9-17.5,10.2-26.3c3.5-8.7,7.1-17.4,10.6-26.2l11.3-25.9c4.1-8.5,8.2-17,12.4-25.5c2.2-4.2,4.5-8.3,6.8-12.4
			c2.3-4.1,4.6-8.2,7-12.3c5-8.1,10-16,15.1-24c5.3-7.8,10.8-15.6,16.2-23.3c5.7-7.5,11.4-15.1,17.2-22.5c6-7.3,12.1-14.6,18.2-21.8
			c6.4-7,12.7-14,19.1-20.9c6.7-6.7,13.4-13.3,20.1-19.9c7-6.3,14-12.6,21.2-18.7L875,939.2z"/>
		<path class="st2" d="M3686.8,566.7c7.3,4.2,14.5,8.5,21.7,12.9s14.1,9.1,21.1,13.8s13.8,9.6,20.6,14.5l5.1,3.7l5,3.8
			c3.4,2.5,6.7,5.1,10,7.7c6.7,5,13.1,10.5,19.7,15.9c3.2,2.7,6.5,5.4,9.7,8.2s6.3,5.6,9.4,8.4s6.3,5.6,9.4,8.4s6.1,5.8,9.1,8.8
			s6,5.9,9,8.9s5.8,6.2,8.6,9.2c22.9,24.9,43,52.1,63,79s39.4,54.5,57.1,83.2c8.8,14.4,17.2,29.1,24.6,44.4c2,3.8,3.7,7.6,5.4,11.5
			s3.5,7.7,5.2,11.6s3.2,7.8,4.8,11.8l4.7,11.8c12,31.7,21.6,64.2,28.9,97.2c7,33,12.3,66.2,16,99.7c1,8.3,1.7,16.7,2.6,25.1
			s1.5,16.7,2.1,25.1c1.3,16.7,2.3,33.5,2.8,50.3l-1.8,0.2c-3.8-16.4-7.1-32.8-10.4-49.2l-2.5-12.3l-2.4-12.3l-4.9-24.6
			c-6.5-32.8-13.2-65.3-20.9-97.6s-15.7-64.3-26.1-95.8c-2.7-7.8-5.4-15.6-8.2-23.4c-1.5-3.9-3-7.7-4.4-11.6
			c-1.5-3.8-2.8-7.8-4.5-11.6l-4.7-11.5l-2.3-5.8l-2.5-5.7l-5.1-11.3c-1.7-3.8-3.3-7.6-5.2-11.3l-5.5-11c-1.9-3.7-3.7-7.5-5.8-11.1
			l-6.2-10.8c-2.1-3.6-4.2-7.2-6.4-10.8c-4.6-7-9.2-13.9-13.9-20.8c-2.4-3.4-5-6.7-7.4-10s-5.1-6.6-7.6-9.9
			c-20.8-26.1-45.1-49.1-69.3-71.8l-4.5-4.3c-1.5-1.4-3-2.9-4.5-4.3c-3.1-2.8-6.1-5.6-9.1-8.5s-6-5.7-9-8.6l-9.1-8.5
			c-3-2.8-6.1-5.6-9.1-8.5s-6.2-5.6-9.2-8.3c-6.2-5.6-12.3-11.2-18.6-16.7c-3.1-2.8-6.3-5.5-9.4-8.3l-4.7-4.2l-4.7-4.1l-9.4-8.2
			c-3.1-2.8-6.2-5.5-9.4-8.2c-6.4-5.4-12.6-10.9-19-16.4s-12.7-10.9-18.9-16.6L3686.8,566.7z"/>
		<g class="st1">
			<path class="st2" d="M3784.4,1666.3c-16.6,4.6-33.6,9.5-47,20.3c-27.6,22.2-31,67.5-9.2,95.4s64,36.2,96.2,21.3
				s52.8-50,53.4-85.5c0.4-25.7-14.3-55.7-40-57.1"/>
		</g>
		<g class="st1">
			<path class="st2" d="M3656.6,1884.9c-10.1,15.1-19,34.1-11.6,50.6c10,22.2,46.8,21.2,59.3,0.3s1.2-50.3-19.9-62.3"/>
		</g>
		<g class="st22">
			<path class="st10" d="M965.7,2376.8c-50.9,5.7-103.3,13.9-146.8,41s-76.2,77.8-67.3,128.3c13.2,75.7,103,107.8,178.8,120.4
				c257.9,42.9,521.4,27.5,782.7,36.8c376.9,13.5,753.2,78.5,1129.2,49.2c138-10.8,275.4-34.2,413.8-33.1
				c175.8,1.4,356.7,41.7,524.3-11.2c43.7-13.8,87.1-35.1,114.8-71.6s35.3-91.1,7.9-127.9c-23.2-31.1-64-42.4-101.7-51.7
				c-187.1-46.1-375.5-92.4-567.9-102.6c-166.8-8.8-333.7,9.8-500.7,10.2c-208.5,0.6-416.7-27-625-18.2
				c-199.6,8.5-394.1,27.7-594,26.9C1330.9,2372.6,1148.7,2356.3,965.7,2376.8z"/>
		</g>
		<path class="st10" d="M1130.8,2553.4c17.5-10.5,35.9-19.2,55.1-26.2c4.8-1.7,9.7-3.3,14.5-5s9.8-2.9,14.7-4.3s9.9-2.5,14.9-3.8
			s10-2.1,15-3.1s10.1-1.7,15.1-2.6s10.1-1.4,15.2-2.1s10.2-1,15.2-1.6s10.2-0.7,15.3-1.1c20.4-1.2,40.8-1.2,61.2-0.1
			c40.7,2.3,80.8,8.7,120.9,14.7s80.1,12.2,120.2,17.4l15,1.9l15,1.8l15,1.8l15,1.7l15,1.8l15,1.7l15,1.7l15.1,1.6
			c5,0.5,10,1.1,15.1,1.5l15.1,1.4c10,1,20.1,1.8,30.2,2.6s20.1,1.6,30.2,2.4s20.1,1.5,30.2,2.2c20.1,1.4,40.3,2.7,60.4,3.9
			s40.3,2.1,60.5,3l30.3,1.2l30.3,1l60.7,1.6v1.2c-10.1,0.7-20.2,1.4-30.3,2c-10.1,0.5-20.2,1-30.4,1.4s-20.3,0.7-30.4,0.9
			s-20.3,0.4-30.4,0.4h-15.2c-5.1,0-10.1,0-15.2-0.1l-15.2-0.3c-5.1-0.1-10.1-0.2-15.2-0.4c-20.3-0.5-40.5-1.4-60.8-2.7l-15.2-1
			c-5.1-0.3-10.1-0.7-15.2-1.1c-10.1-0.9-20.2-1.6-30.3-2.7s-20.2-2-30.3-3.2s-20.2-2.3-30.2-3.6l-15.1-1.9c-5-0.6-10-1.4-15.1-2.1
			l-15-2.1c-5-0.7-10-1.5-15-2.3l-15-2.4l-15-2.6l-15-2.7l-14.9-2.8c-39.8-7.5-79.6-14.9-119.7-20.1c-40-5.1-80.3-7.8-120.7-8.4
			c-20.1-0.3-40.2-0.2-60.2,0.7c-5,0.3-10,0.5-15,0.9s-10,0.8-15,1.3s-10,1-14.9,1.6s-9.9,1.3-14.9,2.1l-14.8,2.5
			c-4.9,1-9.8,1.9-14.7,3s-9.8,2.3-14.6,3.5s-9.7,2.6-14.5,3.9c-19.3,5.7-38.2,12.7-56.6,21L1130.8,2553.4z"/>
		<path class="st23" d="M2081.4,2190.6c-56.3-4.5-112.5-10.5-168.8-16.2c-52.4-5.3-104.9-10.5-157.5-14.1c-15.4-1-30.9-1-46.3,0.1
			c-7.1,0.5-14.3,1.2-21.4,2.1c-82.3,10.2-166.8,46.7-230.8,95.8c-4.5,3.5-9,7-13.3,10.6c-1.6,1.4-3.2,2.7-4.9,4.1
			c-2.5-30.6-25.1-56.3-30.7-86.6c-5.1-27.7,4.6-54.8,5.8-82.3c1.1-24.5-3.9-47.1-5.6-71.4c-7.8-110.1,82.1-180.7,104.4-280.7
			c6.1-27.3,4.9-55.7,6.5-83.6c4.4-75.7,31.8-143.6,53.9-214.7s34.7-143.1,61.9-213.1c18.1-46.7,98.5-70.9,142.8-87.6
			c64.5-24.3,132.2-38.9,200.8-46c6.3-0.7,12.6-1.3,18.9-1.8c-16.9,24.9-9.7,73.8-8.8,97.3c3.9,103.9,8.5,204.5,22,308.2
			c4.8,36.7,11.5,79.6,4.1,116.3c-8.2,40.7-20.6,62.4-18.9,106.1c1.6,40.1,15.2,72.6,23.9,110c10.8,47,9.8,100.3,14.5,148.4
			C2040.4,2057.3,2064,2125.5,2081.4,2190.6z"/>
		<path class="st24" d="M1790.5,2054.7c3.8-0.4,7.5-0.8,11.3-1.1C1798.1,2053.9,1794.3,2054.3,1790.5,2054.7L1790.5,2054.7z"/>
		<path class="st24" d="M1806.3,2053.3c2.6-0.2,5.1-0.3,7.7-0.4C1811.5,2053,1808.9,2053.1,1806.3,2053.3z"/>
		<g class="st25">
			<path class="st24" d="M2078.2,2178.7c-23-5.6-44.5-11.3-61.8-15.6c-27.8-6.9-114.7-62.9-153.5-79.5c-18.7-8-14.6-23.8-14.6-23.8
				c-1.3-1.9-2.5-3.9-3.6-6c6,0.6,12.1,1.3,18.1,2.3c-30.6-39.8-22.1-88.4-23-134.6c-3.4,0-6.7,0.3-10,0.9c0.6-4.4,1.2-8.7,1.8-13.1
				c5.2-40.6,8.7-81.4,12.3-122.2c1.9-22.1,3.9-44.4,1.7-66.5c-3.2-32.2-10.8-63.8-18.5-95.3c30.4,42.3,31.7,99.5,36.6,150.5
				c6.5,67.8,6.1,125.8,44.8,185.3c12,18.5,33.5,37.6,53.6,28.3c17.1-7.9,19.9-30.7,20.2-49.6c1.1-74.4-9.9-150.5-4.7-224.3
				c4.9-69.5,24.8-141.7,6.2-209.6c-10.3-37.7-10.2-75.2-11.4-114.8c-2.8-92.9-3.5-186.1,5.3-278.7c0.2-1.8,0.4-3.5,0.6-5.3
				c6.3-0.7,12.6-1.3,18.9-1.8c-16.9,24.9-9.7,73.8-8.8,97.3c3.9,103.9,8.5,204.5,22,308.2c4.8,36.7,11.5,79.6,4.1,116.3
				c-8.2,40.7-20.6,62.4-18.9,106.1c1.6,40.1,15.2,72.6,23.9,110c10.8,47,9.8,100.3,14.5,148.4
				C2040.1,2053.3,2061.2,2117.2,2078.2,2178.7z"/>
		</g>
		<path class="st23" d="M2113.8,1492.9c-19.2-60.3-28.9-124.9-16.1-185.8C2085.1,1368.5,2098.7,1430.6,2113.8,1492.9z"/>
		<path class="st23" d="M2116.7,1247.9c0.1,0.4,0.2,0.8,0.2,1.2l-0.9,0.5C2116.3,1249,2116.5,1248.4,2116.7,1247.9z"/>
		<path class="st23" d="M2445.5,1616.4c-6.6,47.2-10,97-7.1,144.7c2.6,42-5,82.5-6.5,125c-1.2,35.7-1.9,71.6,4.4,106.7
			c6.1,34.3,18.7,66.9,36.2,97c-31.7,37.4-70.5,68-116,85.9c-49.6,19.5-103.6,22.8-157.2,21.6c-0.9-46.7-9.4-93.3-8.9-140.1
			c0.5-52.4,4.8-105.7,26.7-153.2c40.2-87.3,92.5-168.7,131.3-256.6c32.9-74.6,55.9-156.3,50.9-236.9c21.3-17.3,40.7-36.9,57.8-58.3
			c35.2-44.4,71.9-108.1,91.9-174.4c47.3,29.6,30.7,83.6,31.3,129.8c1,81.6-21.5,159.4-14.8,241.5c2.2,27.1,7.4,54.1,16.6,79.7
			c2.1,5.7,4.7,11.3,7.6,16.6c-16.8-5.8-34.2-9.7-51.9-11.6C2506.6,1630.3,2475.8,1624.5,2445.5,1616.4z"/>
		<path d="M2066.9,1073.8l-1.1-0.2c3.2-21.3,15.9-32.7,38.9-34.7c7.3-0.5,14.5,1.8,20.1,6.6c4,3.3,6.5,8.1,6.8,13.3l-1.1,0.1
			c-0.3-4.9-2.6-9.4-6.4-12.6c-5.4-4.6-12.3-6.8-19.3-6.3C2082.4,1042,2070,1053,2066.9,1073.8z"/>
		<path class="st26" d="M2296.8,1459.1c-5.7,10.4-11.6,20.9-16.9,31.6c-5,9.9-9.2,20.2-12.6,30.8c-1.3,4.2-2.3,8.3-3.2,12.5
			c-6.9,34.9-8.6,66.2-26.1,99.3c-9.7,18.3-31.7,53.6-54,58.6c-22.9,5.1-34.1-19.2-44.3-39.2c-0.1-21.8-1.8-43.5-5.1-65
			c-0.4-2.8-0.9-5.7-1.4-8.5c-16.5-93.6-55.9-187.4-33.7-279.6c4.1-17.1,10.3-33.7,16.7-50.2l0.9-0.5c4.8,25,10.8,49.5,20.7,70.8
			c20.2,43.2,49.7,81.4,84.6,113.8c4.6,4.3,9.5,8.1,14.8,11.5C2255.9,1457.2,2276.2,1461,2296.8,1459.1z"/>
		<path class="st26" d="M2553.5,1161.5c-1.4,5.4-2.9,10.8-4.5,16.1c-12.9,42.7-32.7,84.3-54.6,120.4l0,0
			c-11.3,18.7-23.8,36.7-37.3,53.9l-1.3,1.6c-36.2,45.1-99,99.8-159,105.4c-20.6,1.9-40.9-1.9-59.7-13.9
			c-5.3-3.4-10.2-7.2-14.8-11.5c-34.9-32.4-64.4-70.6-84.6-113.8c-9.9-21.3-16-45.8-20.7-70.8c-2.2-11.3-4.1-22.8-5.9-34
			c-1.6-9.7-3.2-19.3-4.9-28.6c-33.8-15.8-34.6-44.5-39-79c-0.2-1.9-0.4-3.7-0.7-5.6c-0.5-4.4-0.8-8.8-0.9-13
			c-0.2-5,0.1-10.1,0.8-15.1c8.4-5.5,16.1-9.5,25.8-7c0.2-10.2,1.3-20.3,4.2-30c13.6-44.7,61.3-68.4,104.8-85.5
			c59.9-23.7,122.5-45.2,186.8-42.6s131.1,34.2,158.8,92.3C2569.4,1048.4,2567.9,1105.3,2553.5,1161.5z"/>
		<path d="M2308.4,789.1c-0.5,0-0.9-0.3-1.1-0.8l-0.1-0.4l0.4-0.2l1.8-0.9l0.7-0.3l0.1,0.8c0,0.9-0.6,1.7-1.5,1.9L2308.4,789.1z"/>
		<path class="st27" d="M2599.9,972.9c-10.1-36.5-5.8-75.3-18.6-111.3c-13.3-37.6-36.6-44.9-71.7-47c-32.1-2-27.5-30.8-54.8-43
			c-6.6-3-14-2.9-21.2-2.7c-4,0.2-8,0.3-12,0.4c8.4-19.2,9.9-41.6,3.1-61.5c-2.3-6.8-5.7-13.5-11.6-17.8c-5.3-3.8-12-5.1-18.4-6.3
			c-45.4-8.3-93.3-16.5-137-1.5c-9.9,3.4-19.6,7.5-28.8,12.5c-26.7,14.5-47.1,36.5-45.5,71.4c0.8,18.1,14.6,32.1,31.4,42.5
			c1.7,1,3.4,2,5.2,3c-14.4,8.6-27.7,18.7-39.9,30.1c-5.3,5-10.9,11.1-13.2,17.8c-1.2,3.2-1.4,6.8-0.6,10.1
			c-6.1,1.6-11.9,3.9-17.4,7c-19.2,10.6-34.6,28.7-49.1,44.5c-34.1,37.2-34.1,84.3-34.9,131.2c-0.1,7.1-0.3,14.3-0.6,21.4
			c4-4.5,9.8-6.6,16-7c11.2-0.7,24.1,4.1,31.5,10.5c8.4,7.2,13.9,17.5,16.7,28.2c0.2,1.1,0.6,2.2,1.1,3.2
			c6.1,10.6,20.9-1.5,24.6-7.7c3.5-6,6.2-10.7,8.6-14.8l0,0c2.1-3.5,4.4-6.8,7-9.8c0.1-0.1,0.1-0.1,0.2-0.2
			c4.1-4.7,9.3-8.9,17.7-14.2l1-0.6c1.4-0.8,2.7-1.7,4.1-2.5c15.9-9.5,32.1-17.1,47.9-26.1c0.8-0.4,1.5-0.8,2.2-1.3
			c1.5-0.9,3-1.8,4.4-2.7l1.7-1.1c1.7-1,3.4-2.1,5.1-3.2c2.1-1.4,4.2-2.9,6.3-4.4c2.4,0.4,4.9,0.8,7.6,1.1h0.1c0,0,0.1,0,0.1,0
			c0.9,0.1,1.8,0.2,2.8,0.3c33.7,3.1,66.4-6,97.8-17.5c0.9-0.3,2-0.7,3.1-1c20.2-5.7,68.3-7.5,72.7-29.9
			c-4.9,25.6-27.8,56.9-56.2,79.1c-27.3,21.3-59.7,34.1-86.4,25.2c19.7,7.1,40.3,11.5,61.2,13.2c7.6,0.6,15.3,0.8,22.9,0.6
			c11.8-0.3,23.6-1.4,35.3-3.4c4.3-0.7,8.5-1.6,12.8-2.5c18.1-4,32.7-11.6,49.6-19.1c12.3-5.5,52.2-13.6,58.8-25.3
			c-9.7,17.2,1.1,31.9,3.9,49.1c2.7,16.5-1.5,33.2-1.9,49.3c-0.2,4.4,0.1,8.8,0.8,13.2c1.4,8.9,8.3,21.8,5.3,34
			c-0.9,3.5-2.5,6.7-4.8,9.4c2.5-2.8,4.8-5.8,6.9-8.9c2.9-4.1,5.5-8.4,7.9-12.8c4-7.5,7.4-15.4,10.2-23.5
			C2593.7,1085.9,2618.9,1041.6,2599.9,972.9z M2312.1,786.8c0.1,1-1.5,1.9-1.8,0.9C2310.9,787.3,2311.5,787,2312.1,786.8z"/>
		<path class="st28" d="M2456.5,952.8c0,8.1-1,16.1-2.8,24c-6.4,28-21.6,50.7-46.3,65.6c-5.4,3.3-11.1,6.2-16.9,8.8
			c28-22.6,50.4-54.3,54.9-80c-4,22.4-52.1,25.1-72.2,31.1c3.9-2,7.7-4.2,11.5-6.4c13.7-8.1,26.2-17.6,40.1-25
			c14.4-7.7,25.3-23.8,31-38.8C2453.9,937.3,2456.5,947.2,2456.5,952.8z"/>
		<path class="st28" d="M2378.3,967.4c-20.5,3.7-40.8,17.3-57.8,28.7c-7.7,5.1-15.8,13.2-24.6,16.1c-9.2,3.1-17.7,4.4-25.9,10.1
			h-0.1c-4.9-0.5-9.8,0.7-13.9,3.5c-1.7,1.1-3.3,2.2-5,3.3l-1.7,1.1c-1.5,0.9-2.9,1.8-4.4,2.7c-0.7,0.4-1.5,0.9-2.2,1.3
			c-15.6,9.3-31.7,17.1-47.5,26.9c-1.4,0.8-2.7,1.7-4,2.6c-0.3,0.2-0.6,0.4-0.9,0.6c-6.5,4-12.3,8.9-17.5,14.5l-0.2,0.2
			c-2.7,3-5,6.4-6.8,10l0,0c-2.4,4.1-5,8.9-8.4,14.9c-3.5,6.2-18.1,18.6-24.4,8.1c-0.5-1-0.9-2.1-1.2-3.2
			c-3-10.7-8.6-20.8-17.1-27.9c-11.6-9.7-36.4-15.5-47.6-2.7c0.2-7.1,0.2-14.2,0.2-21.4c4.6-11.2,10.1-21.3,19.3-29.7
			c17.5-16,48.8-13.7,68.6-3.8c42.8,21.3,68.4,8.7,108.4-14.1C2299.2,988.8,2338,974.7,2378.3,967.4z"/>
		<path class="st29" d="M2348.4,1647.3c-38.8,87.9-91.1,169.3-131.3,256.6c-21.9,47.6-26.2,100.8-26.7,153.2
			c-0.4,46.8,8,93.4,8.9,140.1c-9.9-0.2-19.8-0.6-29.7-1c-26.2-1.2-52.3-2.9-78.4-4.9l-9.8-0.8c-17.5-65.1-41-133.3-47.4-198.9
			c-4.7-48.1-3.6-101.4-14.5-148.4c-8.6-37.4-22.3-69.9-23.9-110c-1.7-43.7,10.7-65.4,18.9-106.1c7.4-36.7,0.7-79.7-4.1-116.3
			c-13.5-103.6-18.1-204.3-22-308.2c-0.9-23.5-8.1-72.4,8.8-97.3l3-0.2c22-1.8,44-2.9,66.1-3.2c0.2,1.9,0.4,3.7,0.7,5.6
			c0.4,3.4,0.8,6.8,1.2,10.1c0.2,1.6,0.4,3.2,0.6,4.7s0.4,3.3,0.7,5s0.4,3,0.7,4.5l0.3,1.7c0.1,0.9,0.3,1.8,0.5,2.7
			c0.3,1.6,0.6,3.2,0.9,4.8c0.2,0.8,0.4,1.7,0.6,2.5s0.4,1.7,0.6,2.5c0.1,0.3,0.1,0.5,0.2,0.8c0.2,0.6,0.3,1.2,0.5,1.8
			c0.1,0.3,0.2,0.6,0.3,1c0.2,0.6,0.4,1.2,0.6,1.9c0,0.1,0,0.1,0.1,0.2c0.2,0.7,0.5,1.4,0.7,2l0,0c0.1,0.4,0.3,0.8,0.5,1.3l0.5,1.3
			c0.2,0.4,0.4,0.9,0.6,1.3c1.5,3.5,3.3,6.8,5.5,9.9l0.8,1.1l0.7,1c0.5,0.6,1,1.2,1.5,1.8c0.2,0.3,0.5,0.6,0.7,0.8s0.8,0.8,1.1,1.2
			s0.6,0.7,1,1c0.6,0.7,1.3,1.3,2,1.9l1.2,1c0.7,0.6,1.4,1.2,2.2,1.8c0.4,0.3,0.8,0.6,1.2,0.9c0.8,0.6,1.7,1.2,2.5,1.7
			c0.4,0.3,0.9,0.6,1.3,0.8s0.9,0.6,1.4,0.8s0.9,0.6,1.4,0.8s1,0.5,1.5,0.8s0.9,0.5,1.3,0.7c0.1,0,0.2,0.1,0.2,0.1
			c0.5,0.2,1,0.5,1.5,0.7c1.7,9.3,3.3,18.9,4.9,28.6c1.8,10.9,3.6,21.9,5.7,32.8c-0.2,0.6-0.4,1.1-0.6,1.7
			c-6.4,16.5-12.6,33.1-16.7,50.2c-0.3,1.3-0.6,2.7-0.9,4c-0.2,1.1-0.5,2.3-0.7,3.4c-12.8,60.8-3.1,125.5,16.1,185.8
			c7,28.8,14.2,57.6,19.3,86.4c0.5,2.8,1,5.7,1.4,8.5c3.4,21.5,5.1,43.2,5.1,65c10.3,20,21.4,44.3,44.3,39.2
			c22.3-5,44.3-40.3,54-58.6c17.5-33.1,19.3-64.4,26.1-99.3c0.8-4.2,1.9-8.4,3.2-12.5c3.4-10.6,7.6-20.9,12.6-30.8
			c5.3-10.7,11.2-21.3,16.9-31.6c35.2-3.3,71.3-23.5,102.5-48.7C2404.3,1491,2381.2,1572.7,2348.4,1647.3z"/>
		<path class="st29" d="M2066.4,1101.8c-22.1,0.4-44.1,1.5-66.1,3.2l-3,0.2c3.7-5.6,9-10,15.3-12.5c5.9-2.4,12.5-1.5,18.7-2.6
			c15.3-2.5,25.7-10.4,35.1-16.5C2065.1,1082.4,2065.4,1092,2066.4,1101.8z"/>
		<path class="st29" d="M2111,1215.1c-1.6-9.7-3.2-19.3-4.9-28.6c1.9,0.9,3.9,1.8,6,2.6c-2.7-1,1.4,24,7.1,52.4l-2.5,6.4
			C2114.6,1236.9,2112.8,1225.9,2111,1215.1z"/>
		<path class="st29" d="M2198.8,2226.4c-0.2,3.9-0.8,8.3-3.8,10.8c-2.4,2-5.7,2.2-8.8,2.3c-29,1.1-57.9-2.4-85.8-10.4
			c-2.9-0.8-5.9-1.8-8.1-3.9c-2.6-2.5-3.5-6.2-4.4-9.7c-2-8.3-4.1-16.6-6.4-25.1l9.8,0.8c26.1,2,52.3,3.7,78.4,4.9
			c9.9,0.4,19.8,0.8,29.7,1C2199.6,2207,2199.4,2216.7,2198.8,2226.4z"/>
		<path class="st23" d="M1862.9,2056.1c-6-1-12-1.8-18.1-2.3c-18.1-1.6-36.3-1.3-54.3,0.9c-32.6,4-64.3,13.9-93.5,29.1
			c-28.1,14.5-53.3,34-74.4,57.5c-3.6,4.1-7.2,8.3-10.5,12.6c-20.7-16.8-20.4-47.5-24.1-73.9c-4-28.4-20.2-43.6-17.7-74.4
			c0.1-0.7,0.1-1.4,0.2-2.2c1.2-10.9,1.8-22.1,4.1-32.6c4,1.7,8.2,3,12.5,3.9c13.3,2.5,20.2-2.8,36-7.9c17.6-5.7,36.3-5,54.8-5
			c5.5,0,10.9-0.1,16.3-0.4c20.5-1.2,43.3-4.1,64.1-10c0.9-0.2,1.8-0.5,2.6-0.8c0.7-0.2,1.4-0.4,2.1-0.6c2.2-0.7,4.4-1.4,6.5-2.2
			l2.6-0.9l1.7-0.7c1.6-0.6,3.3-1.3,4.8-2c18.4-7.8,32-18.9,51.1-22c3.3-0.6,6.6-0.8,10-0.9
			C1840.8,1967.8,1832.3,2016.3,1862.9,2056.1z"/>
		<path class="st23" d="M1844,1787.1c-3.5,40.5-7.1,81-12.2,121.3c0,0.3-0.1,0.7-0.1,1c-0.6,4.3-1.1,8.7-1.8,13.1
			c-19.2,3.1-32.8,14.2-51.1,22c-1.6,0.7-3.2,1.3-4.8,2l-1.7,0.7l-2.6,0.9c-2.2,0.8-4.3,1.5-6.5,2.2c-0.7,0.2-1.4,0.4-2.1,0.6
			c-0.9,0.3-1.8,0.5-2.6,0.8c-20.8,5.9-43.6,8.7-64.1,10c-5.4,0.3-10.8,0.4-16.3,0.4c-18.5,0.1-37.2-0.6-54.8,5
			c-15.8,5.1-22.6,10.4-36,7.9c4.3-21.6,7.6-43.4,5.9-65.2c-0.8-9.8-2.4-19.6-4.9-29.1c-6.3-25.7-16.8-50.7-23.9-76.3
			c-10.1-36.7-13-75.1-13.3-113.2c-0.4-48,3.2-95.9,10.8-143.3c3.8-23.6,8.5-47.1,14.3-70.3c56.6-12.6,111.6-4.7,168.2,7.7
			c17.2,3.8,34.7,8.9,48.8,19.5s14.9,30.1,17.9,47.4c4.2,24.6,10.2,48.9,16.2,73.2c7.7,31.6,15.3,63.1,18.5,95.3
			C1847.8,1742.7,1845.9,1765,1844,1787.1z"/>
		<path class="st26" d="M2296.8,2326.1l139.7,106.5l-33.4,11.1c-88.7-22.2-188.8-108.7-188.8-108.7l22.8,108.7
			c-58.3-22.2-144.4-133.1-144.4-133.1c-100.7-4.4-266.4-71-266.4-71c-42-11.8-75.8-23.5-102.9-34.8c-31.5-13-54.2-25.4-70.5-36.7
			l0,0c-14.4-10-23.9-19-30.2-26.8c0.8-0.9,1.6-1.7,2.4-2.6s1.6-1.7,2.4-2.6s1.6-1.7,2.4-2.5s1.6-1.7,2.5-2.5l0.5-0.5
			c2.3-2.3,4.7-4.5,7.1-6.8c0.9-0.8,1.7-1.6,2.6-2.4c1.6-1.5,3.3-2.9,5-4.4c8.6-7.3,17.7-14.1,27.2-20.2l1.8-1.2
			c6.7-4.3,13.5-8.2,20.6-11.9c29.2-15.2,60.8-25.1,93.5-29.1c3.8-0.5,7.5-0.8,11.3-1.1c1-0.1,1.9-0.1,2.8-0.2l1.6-0.1
			c2.6-0.2,5.1-0.3,7.7-0.4c1.1,0,2.2-0.1,3.4-0.1c9.1-0.2,18.3,0.2,27.4,1c1.1,2.1,2.2,4.1,3.6,6c0,0-4.1,15.8,14.6,23.8
			c5.4,2.3,11.6,5.4,18.6,8.9c43.1,22.2,111,64.6,135,70.6c17.3,4.3,38.8,10,61.8,15.6c30.1,7.3,62.6,14.3,91.4,17.4
			c50.9,5.6,293.2,61.2,293.2,61.2l-108.2,44.8L2296.8,2326.1z"/>
		<path class="st30" d="M2494,2332.8l-1.9,101.4l-2.1,111.6c0,0-621.5-21.1-627-24.4s-362.6-55.4-404.8-150.8
			c-8.3-18.8-13.2-36.1-15.5-52c-2.5-16.5-2.3-33.3,0.8-49.7c56.8-47.4,132.7-84.6,209.5-100.7c30.4,20.9,82.7,45.9,173.4,71.4
			c0,0,165.7,66.6,266.4,71c0,0,7.6,9.8,19.8,24.1c5.4,6.4,11.8,13.6,18.7,21.4c20.6,22.7,46.8,49.3,72,67.9
			c11.8,8.7,23.3,15.7,33.9,19.7l-4.9-23.3l-18.1-85.4c0,0,50.2,43.4,111,76.6c25.1,13.7,51.9,25.6,77.8,32.1l33.4-11.1l-23.8-18.1
			l-115.9-88.4l57.9-23.9L2494,2332.8z"/>
		<g class="st31">
			<path class="st32" d="M2545,1139c-8.7-23-17.4-46-26.1-69c-76.1,27.3-158.4,32.2-237.2,14.3c32-13.9,65.3-31.7,93.9-53.1
				c-10.5,5.4-22.5,8.5-34.3,10.2c-20.6,2.8-41.6,2.2-61.8,6.9c-36.8,8.7-66.8,34.1-97.7,55.9c-17,12-39.7,31.5-61.6,22.5
				c-22.6-9.2-24.6-38.5-54.6-37.9c-0.2-5,0.1-10.1,0.8-15.1c4.8-3.1,9.4-5.8,14.2-7c11.2-0.7,24.1,4.1,31.5,10.5
				c8.4,7.2,13.9,17.5,16.7,28.2c0.2,1.1,0.6,2.2,1.1,3.2c6.1,10.6,20.9-1.5,24.6-7.7c3.5-6,6.2-10.7,8.6-14.8l0,0
				c2.1-3.5,4.4-6.8,7-9.8c0.1-0.1,0.1-0.1,0.2-0.2c4.1-4.7,9.3-8.9,17.7-14.2l1-0.6c1.4-0.8,2.7-1.7,4.1-2.5
				c15.9-9.5,32.1-17.1,47.9-26.1c0.8-0.4,1.5-0.8,2.2-1.3c1.5-0.9,3-1.8,4.4-2.7l1.7-1.1c1.7-1,3.4-2.1,5.1-3.2
				c2.1-1.4,4.2-2.9,6.3-4.4c2.4,0.4,4.9,0.8,7.6,1.1h0.1c0,0,0.1,0,0.1,0c0.9,0.1,1.8,0.2,2.8,0.3c33.7,3.1,66.4-6,97.8-17.5
				c0.9-0.3,2-0.7,3.1-1c20.2-5.7,68.3-7.5,72.7-29.9c-4.9,25.6-27.8,56.9-56.2,79.1c-27.3,21.3-59.7,34.1-86.4,25.2
				c19.7,7.1,40.3,11.5,61.2,13.2c7.6,0.6,15.3,0.8,22.9,0.6c11.8-0.3,23.6-1.4,35.3-3.4c4.3-0.7,8.5-1.6,12.8-2.5
				c18.1-4,32.7-11.6,49.6-19.1c12.3-5.5,52.2-13.6,58.8-25.3c-9.7,17.2,1.1,31.9,3.9,49.1C2549.6,1106.3,2545.4,1122.9,2545,1139z"
				/>
		</g>
		<path class="st33" d="M2331.1,1368.5L2331.1,1368.5c-6.4,11.9-17,18.2-28,18.2l0,0c-8.9,0-18.1-4.1-25.4-12.7c0,0-0.1-0.1-0.1-0.1
			c-0.5-0.6-0.9-1.2-1.4-1.8c-0.3-0.3-0.6-0.7-0.8-1.1c-0.7-0.9-1.3-1.8-1.9-2.7c-6-9.1-10.4-19.2-12.9-29.8
			c-3.3-13.7-3.4-28-0.1-41.8c-0.4,2.8,45.5,21.4,50,23.2c14.2,5.9,23.8,11.5,26.7,20.3C2339.5,1347.3,2337.8,1356.1,2331.1,1368.5z
			"/>
		<path class="st34" d="M2331.1,1368.5c-6.4,11.9-17,18.2-28,18.2l0,0c-9.9-0.5-19.1-5.1-25.4-12.7c0,0-0.1-0.1-0.1-0.1
			c-0.5-0.6-0.9-1.2-1.4-1.8c-0.3-0.3-0.6-0.7-0.8-1.1c-0.7-0.9-1.3-1.8-1.9-2.7c-6-9.1-10.4-19.2-12.9-29.8
			C2286.1,1343,2310.2,1353.3,2331.1,1368.5z"/>
		<path class="st34" d="M2334.3,1215.3c-3.5,4.3-7.2,8.5-9.8,13.3c-1.3,2.4-2.2,4.9-2.8,7.6c-0.3,1.3-0.5,2.6-0.6,3.9
			c-0.1,1.3,0,2.6,0.3,3.9c0.3,1.3,0.7,2.5,1.3,3.6c0.6,1.1,1.4,2.2,2.3,3.1c1.9,1.9,4,3.6,6.3,4.8c4.7,2.7,10,4.5,15.1,6.7
			c-5.4-1.3-10.8-2.7-15.9-5.2c-1.3-0.6-2.5-1.3-3.7-2.2c-1.2-0.8-2.3-1.7-3.3-2.8c-1-1.1-1.9-2.3-2.6-3.6c-0.7-1.3-1.2-2.7-1.5-4.2
			c-0.3-1.5-0.4-2.9-0.3-4.4c0.1-1.4,0.4-2.9,0.7-4.3c0.2-0.7,0.4-1.4,0.6-2.1c0.2-0.7,0.5-1.3,0.8-2c0.6-1.3,1.3-2.6,2-3.8
			C2326.1,1223,2330.2,1219.1,2334.3,1215.3z"/>
		<g class="st18">
			<path class="st15" d="M2365.2,1230c-2.5,4.8-4.9,10.6-0.9,14.2c6.6,6.1,15.4,0.8,11.3-8.4c-0.9-2.1-2.1-4.2-2.3-6.5
				c0-1.4-0.1-2.8-0.3-4.2c-0.4-1.4-1.5-2.7-2.8-2.4s-1.9,1.4-2.4,2.6C2367.1,1226.6,2366.2,1228.3,2365.2,1230z"/>
		</g>
		<g class="st35">
			<path class="st32" d="M2392.3,1150.1c-2.4,13.5-0.4,27.7-1.6,41.1c-1.4,14.4,1,27.6,3.9,41.4c3.9,17.9-3.3,27.1-17,35.2
				c-0.3-0.2-0.8-0.3-1.2-0.2c6.8-9.7,10.8-21.2,9-33.3c-0.5-3.4-1.5-6.8-2.2-10.2c-3.4-16.6-0.5-34.1,3.7-50.6L2392.3,1150.1z"/>
		</g>
		<path class="st34" d="M2392.2,1144.3c-2.4,13.8-4.7,27.5-6.2,41.2c-0.6,6.8-1.4,13.6-1.1,20.3c0.2,5.6,0.5,12,2.3,17.6
			c5,15.2,10.2,31.4-5.4,42.6c-7.6,5.4-16.3,5.9-23.6-0.1c8.4,3.3,22-0.7,26.6-9.7c4.4-8.7,3.6-19.7,0.6-28.6
			c-6.5-19-4.4-36.9-0.8-56.3C2386.2,1162.1,2390.6,1153.6,2392.2,1144.3z"/>
		<path class="st36" d="M2301.3,1139.7c-2.7-5.9-13.5-18.1-13.5-18.1l-0.3-10.9l-4.4,9.6c0,0-8.2,0.1-20.8-0.6s-35.2,1.8-35.2,1.8
			l48.8,5.3c3.5,0.4,6.9,1.5,9.9,3.4L2301.3,1139.7z"/>
		<path class="st36" d="M2444.6,1180.9c5.1-3,18.5-6.2,18.5-6.2l6.6-8.3l-3,10c0,0,4.8,4.8,12.6,11.6s19.6,21.8,19.6,21.8
			l-31.7-24.2c-2.3-1.7-5-2.8-7.8-3.1L2444.6,1180.9z"/>
		<path class="st36" d="M2286.1,1152.4c-3.4,10.9-12.4,17.5-20.1,14.8s-11.3-13.7-7.9-24.6s12.4-17.5,20.1-14.8
			S2289.5,1141.5,2286.1,1152.4z"/>
		<g class="st37">
			<path class="st38" d="M2292.4,1148.4c-0.6,2.1-4.3,2.6-8.3,1.3s-6.6-4.2-5.9-6.2s4.3-2.6,8.3-1.3S2293,1146.3,2292.4,1148.4z"/>
		</g>
		<path class="st36" d="M2441.4,1199.2c-4.4,11.4-2.4,23.1,4.6,26.1s16.1-3.7,20.5-15.1s2.4-23.1-4.6-26.1
			S2445.8,1187.8,2441.4,1199.2z"/>
		<g class="st37">
			<path class="st38" d="M2461.4,1200.5c-0.8,2.2,1.3,5.2,4.9,6.7s7,1,7.9-1.1s-1.3-5.2-4.8-6.7S2462.2,1198.4,2461.4,1200.5z"/>
		</g>
		<path class="st33" d="M2195.5,1090.7c17.7-11.9,44.8-25.9,65.4-22.6c23.5,3.7,47,5.2,70.3,10.4c6.1,1.4,6,11,1.6,14.5
			s-11.1,0.1-15.8-0.5c-16.1-2-32.2-4.1-48.4-6.1c-12.1-1.5-15.3-1.9-27.6-1.6c-9.5,0.2-40.2,2.6-48.4,7.9
			C2193.5,1092,2194.5,1091.3,2195.5,1090.7z"/>
		<path class="st33" d="M2526.3,1172.5c-7.7-18.6-21.3-43.2-37.4-49.5c-18.4-7.2-35.8-16.5-54.7-22.3c-5-1.5-8.9,7.1-7.1,12.2
			s8,5.1,11.6,6.6c12.4,5.4,24.8,10.9,37.2,16.3c9.3,4.1,11.8,5.2,20.4,11c6.7,4.4,27.7,20.4,31.4,28.8
			C2527.1,1174.6,2526.7,1173.6,2526.3,1172.5z"/>
		<g class="st35">
			
				<ellipse transform="matrix(0.2817 -0.9595 0.9595 0.2817 412.1717 3009.0388)" class="st32" cx="2215.8" cy="1229.2" rx="49.5" ry="70.5"/>
		</g>
		<g class="st35">
			<path class="st32" d="M2506.1,1271.6c-3.7,9-7.6,17.9-11.7,26.4l0,0c-11.3,18.7-23.8,36.7-37.3,53.9l-1.3,1.6
				c-18.3-13.8-28.3-33-24-50.8C2437.9,1277.5,2470.6,1264.2,2506.1,1271.6z"/>
		</g>
		<g class="st31">
			<path class="st32" d="M2124.1,1385.2c-11.2,27.8,1.7,48.8,7.5,75.2c7,32,14.9,64.6,16.6,97.1c1.6,31.8,2,64.5,24.3,89.9
				c6.5,7.4-2.2,12.8,12.9,16.3c30,7,44.3-36,50.8-57.2c8.6-27.9,10.8-62.9,31.1-85.1c-1.3,4.2-2.3,8.3-3.2,12.5
				c-6.9,34.9-8.6,66.2-26.1,99.3c-9.7,18.3-31.7,53.6-54,58.6c-22.9,5.1-34.1-19.2-44.3-39.2c-0.1-21.8-1.8-43.5-5.1-65
				c-0.4-2.8-0.9-5.7-1.4-8.5c-16.5-93.6-55.9-187.4-33.7-279.5c4.1-17.1,10.3-33.7,16.7-50.2l0.9-0.5c4.8,25,10.8,49.5,20.7,70.8
				c20.2,43.2,49.7,81.4,84.6,113.8c4.6,4.3,9.5,8.1,14.8,11.5c18.8,12,39.1,15.9,59.7,13.9c-5.7,10.4-11.6,20.9-16.9,31.6
				c-34.9-4.5-75.4-26.3-94.8-40.2C2160.2,1432.6,2144.4,1407,2124.1,1385.2z"/>
		</g>
		<g class="st39">
			<path class="st24" d="M1831.8,1908.3c0,0.3-0.1,0.7-0.1,1c-0.6,4.3-1.1,8.7-1.8,13.1c-19.2,3.1-32.8,14.2-51.1,22
				c-6.6,2.8-13.4,5.2-20.4,7.1c-20.8,5.9-43.6,8.7-64.1,10c-23.7,1.4-48.3-1.9-71.1,5.4c-15.8,5.1-22.6,10.4-36,7.9
				c4.3-21.6,7.6-43.4,5.9-65.2c-0.8-9.8-2.4-19.6-4.9-29.1c3.7,4.3,7.7,8.4,12.1,12c31,25.6,75.1,27.6,115,22.6
				c29.1-3.6,80.8-23.1,109-11.2C1827,1905,1829.5,1906.5,1831.8,1908.3z"/>
		</g>
		<path class="st24" d="M1639.9,2123.9c-2.4,2.2-4.8,4.5-7.1,6.8C1635.2,2128.4,1637.5,2126.1,1639.9,2123.9z"/>
		<g class="st25">
			<path class="st24" d="M1652.9,2168.2c-71,14.9-141.2,47.8-196.2,90c-6.7-23.5-11.9-57.9-3.5-78.1c12.2-29.5,54.4-34.6,74.6-57.2
				c28.2-31.6-9.5-78.8-1.6-115.9c5.6-26.5,12.4-52.6,22.2-77.9c15.4-40,14.4-68.2,8.6-110c-12.4-91-11.5-183.3,2.9-274
				c0.7,0.9,1.3,1.8,1.9,2.7c-7.6,47.4-11.2,95.3-10.8,143.3c0.3,38.1,3.2,76.4,13.3,113.2c7,25.7,17.6,50.6,23.9,76.3
				c2.4,9.6,4,19.3,4.9,29.1c1.7,21.8-1.6,43.7-5.9,65.2c-4.3-0.9-8.5-2.2-12.5-3.9c-2.3,10.6-2.9,21.7-4.1,32.6
				c-0.1,0.7-0.1,1.4-0.2,2.2c-2.5,30.8,13.7,46,17.7,74.4c3.7,26.4,3.5,57.1,24.1,73.9c3.4-4.3,6.9-8.5,10.5-12.6
				C1629,2149.2,1638.5,2158.2,1652.9,2168.2z"/>
		</g>
		<path class="st28" d="M2183.6,766.2c-1.6-34.9,18.8-56.9,45.5-71.4c0.4,0,0.7,0.1,1.1,0.2c-9.8,7.1-20,14.6-25.1,25.5
			c-29.9,64,116,58.4,144.9,53.3c-45.8,8.1-91,19.8-135,34.8C2198.2,798.3,2184.5,784.2,2183.6,766.2z"/>
		<path class="st28" d="M2239.1,861.9l67-21.1c-30.4,14.9-62.1,28.6-95.7,32.7c-20.1,2.5-40.9,1.5-61.1,3c5.5-3.1,11.3-5.4,17.4-7
			c-0.8-3.4-0.6-6.9,0.6-10.1c11.9,7.2,25.6,10.6,39.4,9.8C2217.7,868.6,2228.4,865.3,2239.1,861.9z"/>
		<path class="st28" d="M2468.1,1047.7c-18.1,14.3-39.3,24-60.3,33.6l-21.4,9.8c-7.7,0.2-15.3,0-22.9-0.6
			c27-8.1,52.3-23.1,74.7-40.5c32.2-24.9,60.1-54.8,91.5-80.7C2512.3,997.8,2494.3,1027,2468.1,1047.7z"/>
		<path class="st28" d="M2561.1,1173.8c-0.1,4.9-0.2,9.7-0.4,14.5l-7.5-1.7l-2.2-0.5c3.1-12.2-3.9-25.1-5.3-34
			c-3.2-20.2,4.6-41.3,1.1-62.4c-2.9-17.2-13.7-31.9-3.9-49.1c-6.6,11.7-46.5,19.9-58.8,25.3c-16.9,7.6-31.5,15.1-49.6,19.1
			c-4.3,1-8.5,1.8-12.8,2.5c16.4-6.6,32.6-15,50.6-22.1c44.3-17.4,80.4-49.8,104.8-90.5C2556.2,1037.4,2562.4,1108.2,2561.1,1173.8z
			"/>
		<path class="st28" d="M2292.1,869c-36,19.2-76.3,28.7-117,27.7c34.2,0.7,68.1-9,99-23.8s47-32.5,74-53.5c11.7,9,27.9,9.2,42.4,6.3
			s28.4-8.4,43.1-9.5c-28.5,16.7-61.1,25.4-94.1,25.2c39.6,25.2,92.4,28,134.5,7.2c-7.4,17.9-29,24.5-48.2,27.2
			c-32.7,4.8-68.2,4.3-96.2-13.3C2319.3,863.4,2301.3,864.1,2292.1,869z"/>
		<path class="st28" d="M2334.2,913.1c-4.1,2.5-8.1,5-12.1,7.6l-11.8,7.8c-4,2.6-7.9,5.2-12,7.7c-4.1,2.6-8.4,4.8-12.9,6.8
			c-4.5,1.9-9.2,3.5-14,4.7c-4.8,1.2-9.6,2.1-14.4,2.8c-9.6,1.4-19.2,2.3-28.8,2.8c-4.8,0.2-9.7,0.4-14.5,0.3s-9.6-0.4-14.3-0.6
			s-9.5-0.5-14.1-0.7s-9.3-0.3-13.9-0.3s-9.2,0.1-13.8,0.4c-4.6,0.3-9.1,0.9-13.6,1.7c-4.5,0.8-9,2-13.3,3.5
			c-4.4,1.6-8.7,3.6-12.8,5.8l-0.6-0.7c3.3-3.6,7.1-6.8,11.3-9.4l3.2-1.9c1.1-0.6,2.2-1.1,3.4-1.6l1.7-0.8l1.7-0.7
			c1.1-0.5,2.3-0.9,3.5-1.3c4.7-1.6,9.6-2.7,14.5-3.5c4.9-0.8,9.8-1.2,14.7-1.3c4.9-0.1,9.8,0.1,14.6,0.5c4.9,0.4,9.6,1,14.4,1.7
			s9.4,1.2,14.1,2s9.4,1.5,14,2.1c4.7,0.6,9.4,0.9,14.1,0.9c4.7-0.1,9.4-0.6,14-1.6c4.6-1.1,9-2.6,13.2-4.7c4.2-2,8.2-4.5,12.2-6.8
			s8.1-4.7,12.2-7s8.3-4.6,12.6-6.8s8.7-4.2,13.2-6c4.5-1.8,9.2-3.1,14-4L2334.2,913.1z"/>
		<g class="st31">
			<path class="st32" d="M1881.5,2092.5c-25.8-4.6-53.5-8.3-73.4-2.9c-31.6,8.4-61,50.9-73.5,78.7c-7.3,16.1-10.9,26.2-11.1,36.6
				c-31.5-13-54.2-25.4-70.5-36.7l0,0c-14.4-10-23.9-19-30.2-26.8c0.8-0.9,1.6-1.7,2.4-2.6s1.6-1.7,2.4-2.6s1.6-1.7,2.4-2.5
				s1.6-1.7,2.5-2.5l0.5-0.5c2.3-2.3,4.7-4.5,7.1-6.8c0.9-0.8,1.7-1.6,2.6-2.4c1.6-1.5,3.3-2.9,5-4.4c8.6-7.3,17.7-14.1,27.2-20.2
				l1.8-1.2c6.7-4.3,13.5-8.2,20.6-11.9c29.2-15.2,60.8-25.1,93.5-29.1c3.8-0.5,7.5-0.8,11.3-1.1c1-0.1,1.9-0.1,2.8-0.2l1.6-0.1
				c2.6-0.2,5.1-0.3,7.7-0.4c1.1,0,2.2-0.1,3.4-0.1c9.1-0.2,18.3,0.2,27.4,1c1.1,2.1,2.2,4.1,3.6,6c0,0-4.1,15.8,14.6,23.8
				C1868.3,2085.9,1874.6,2088.9,1881.5,2092.5z"/>
		</g>
		<g class="st35">
			<path class="st40" d="M2131.2,2356.1c-42.3,13.2-110.6-7.5-151.6-16.8c-60.6-13.6-119.9-31.8-179.9-47.9
				c-38.8-10.4-79.4-16.8-116.5-31.7c-34.2-13.7-58.1-20.9-96.4-8.5c-41.1,13.3-69.2,46.6-64.6,91.7c2.8,27.6,21.6,50.8,41.8,69.7
				s43,35.8,58.3,58.9c-5.7-8.6-58.1-19.6-70.5-27c-22.8-13.7-43.5-32.3-64.1-49.1c-39-31.6-54.3-74.7-44.4-126.5
				c56.8-47.4,132.7-84.6,209.5-100.7c30.4,20.9,82.7,45.9,173.4,71.4c0,0,165.7,66.6,266.4,71c0,0,7.6,9.8,19.8,24.1
				C2117.9,2341.1,2124.2,2348.4,2131.2,2356.1z"/>
		</g>
		<path class="st40" d="M2088.3,2338.7c-3.5,3.7-9.2,4.2-14.3,4.3c-48.7,0.6-83.4-22.9-127.5-39l-142.4-52.1
			c-48.4-17.7-94.4-47.4-147-50.7c-52.4-3.3-99.7,23.5-144.7,47.3c-19.1,10.1-38.1,21.3-52.3,37.6c-8.3,9.4-14.3,20.5-17.6,32.5
			c-2.5-16.5-2.3-33.3,0.8-49.7c56.8-47.4,132.7-84.6,209.5-100.7c30.4,20.9,82.7,45.9,173.4,71.4c0,0,165.7,66.6,266.4,71
			c0,0,7.6,9.8,19.8,24.1l-25.2-7.3C2090.8,2329.3,2091.3,2335.5,2088.3,2338.7z"/>
		<path class="st41" d="M3102.4,2342.4c-5.1,19.4-17.6,36-31.5,50.4c-10.2,10.6-8,20-18.4,30.3c1.9,1.8-0.4,4.7-2.6,6.1
			c-84.9,53.8-208.2,36.6-301.1,11.8c-13.4-3.6-27-8-37.9-16.7c-17.2-13.8-25.1-36.7-25.7-58.7s5.4-43.7,11.5-64.9
			c5.1-17.9,10.7-36.4,22.8-50.6c26.1-30.6,72.4-31.2,112.6-29.4l131.6,6.1c26.9,1.2,52.8,3.2,76.6,17
			C3073.8,2263.3,3113.5,2300.4,3102.4,2342.4z"/>
		<path class="st42" d="M3281.4,2343.7c-5.7,35.3-33.4,71.4-46.4,105.1c-2.5,6.6-88.1,8.8-98.8,10c-22.5,2.4-79.4,22.4-99.5,6.6
			c-14.1-11.1-1.6-48.3,8.5-72.5c2.9-7,5.6-12.9,7.4-16.7c12.6-27,20.6-42.1,16.2-71.6c-8.8-6.7-20,3-30.9,1.2
			c-2.8-0.5-5.7-0.8-8.1-2.4c-3.2-2.2-4.5-6.2-5.2-10c-4-20.9,6.1-39.4,24.7-49.8c14.1-7.9,28.3-15.8,42.9-22.7
			c9.5-4.6,19.2-8.6,29.2-12.1c25.3-8.7,52.7-12.9,78.9-7.5c30.6-15.4,62.5,35.4,69.5,59.1
			C3276.8,2284.2,3285.4,2318.9,3281.4,2343.7z"/>
		<g class="st43">
			<path class="st41" d="M3130.1,2284.8c-1.6,7.3-5.8,13.8-10.1,19.9c-21,30.3-44.7,58.7-70.8,84.8c-1.2,1.3-2.5,2.4-3.9,3.5
				c2.9-7,5.6-12.9,7.4-16.7c12.6-27,20.6-42.1,16.2-71.6c-8.8-6.7-20,3-30.9,1.2c-2.8-0.5-5.7-0.8-8.1-2.4c-3.2-2.2-4.5-6.2-5.2-10
				c-4-20.9,6.1-39.4,24.7-49.8c14.1-7.9,28.3-15.8,42.9-22.7c16.2,8.7,28.7,23,35.1,40.2
				C3130.2,2268.6,3131.7,2276.9,3130.1,2284.8z"/>
		</g>
		<path class="st26" d="M3357.1,2465.2c-0.6,6.9-6.8,12.4-13.6,13.3c3,0.2,5.7,1.7,7.4,4.2l0,0c-7,1.1-14.1,1.7-21.4,2.1
			c-35.7,1.9-73.6-3.1-109.5-1c-46.8,2.8-91.9,18.3-130.6,44.8c-6.8,4.7-13.3,9.7-20.3,14.1c-10.9-0.2-22.2-2.4-29.6-10.1
			c-3.9-4.1-6.5-10.3-8-17.5c-3.6-17.6-0.6-41,5.9-52.4c12.8-22.2,38.2-35.8,62.6-40.9c16.9-3.5,33.8,1.3,50.4-1.1
			c22.1-3.1,43.3-12,65.4-15.9c16.4-2.9,47.9-14.1,66.6-9.8c19.9-5.6,38.4-21.7,60.4-9.8c12.8,6.9,9.6,30.2-2.6,37.4
			c7.6-2.6,16.5,3.7,17.4,11.7s-5.3,15.8-13.1,17.6C3351.6,2451.4,3357.7,2458.4,3357.1,2465.2z"/>
		<g class="st31">
			<path class="st32" d="M3329.5,2484.9c-35.7,1.9-73.6-3.1-109.5-1c-46.8,2.8-91.9,18.3-130.6,44.8c-6.8,4.7-13.3,9.7-20.3,14.1
				c-10.9-0.2-22.2-2.4-29.6-10.1c-3.9-4.1-6.5-10.3-8-17.5c15,2.2,30.9-0.5,45.4-5.5c20-6.8,38.4-17.6,58.1-25.4
				c32.8-13.1,68.2-17.7,103.3-17.8c29.2-0.1,73.1,17.3,73.6-26.6C3317.8,2454.9,3323.7,2469.9,3329.5,2484.9z"/>
		</g>
		<path class="st41" d="M3068.4,2277c34.7,0,68.6,10.3,97.5,29.4"/>
		<g class="st31">
			<path class="st32" d="M2295,1581c-1.1,38.9-1.9,79.3,13.6,115c8.8,20.1,22.4,37.9,38.6,52.8c6.9,6.4,6.5-7.1,13.2-13.7
				c17.7-17.6,27.2-42.8,26.9-67.8s-10.1-49.5-26-68.7c-7.4-9-16.4-17.1-27.2-21.6S2305.2,1575.4,2295,1581z"/>
		</g>
		<path d="M2650,1366.7l-1.1-0.2c6.3-28,21.2-81,50.6-121.5c6.4-8.8,13.6-17.8,23.1-24.2c10.4-7,22.1-9.5,32.2-6.9
			c6.3,1.6,11.4,8.5,14.2,18.9c0.7,2.5,1.1,5.1,1.4,7.6v0.3l-0.2,0.2c-3.1,2.8-6.6,5.3-10.2,7.4h-0.1c-5.4,1.4-10.6,3.5-15.4,6.4
			l-0.1,0.1c-6.9,1.9-14.2,2.5-21.3,1.8c2.9,2.7,6.3,4.7,10,6l0.8,0.3l-0.6,0.6c-2.1,2.1-4,4.4-5.8,6.9c-0.6,0.9-1.2,1.7-1.7,2.5
			l-0.2,0.3l-0.4-0.1l-0.6-0.2c0.1,0.2,0.2,0.5,0.3,0.9l0.1,0.2l-0.1,0.2c-2.3,3.8-4.3,8-6.2,12c-2.5,5.5-5.4,10.7-8.7,15.8
			c-6.4,9.3-13.9,12.5-21.8,16c-3,1.3-6,2.6-9.1,4.3c-1.5,0.8-3,1.8-4.4,2.8C2661.9,1334.2,2653.5,1352.5,2650,1366.7z
			 M2746.7,1213.9c-7.7,0-16,2.6-23.5,7.7c-9.4,6.3-16.6,15.2-22.9,23.9c-25.1,34.7-39.7,78.6-47.2,107.9
			c4.6-11.2,11.6-22.6,21-29.1c1.5-1,3-2,4.6-2.8c3.1-1.7,6.2-3.1,9.2-4.4c7.7-3.4,15-6.6,21.3-15.6c3.3-5,6.1-10.2,8.6-15.6
			c1.9-3.9,3.9-8,6.2-11.8c-0.6-1.6-0.5-1.9-0.3-2.1l0.2-0.2l0.4,0.1c0.3,0.1,0.6,0.2,0.9,0.3c0.4-0.7,0.9-1.4,1.5-2.2
			c1.6-2.3,3.4-4.4,5.3-6.4c-4.1-1.5-7.7-3.9-10.8-7.1l-1-1.1l1.5,0.2c7.5,0.9,15.1,0.3,22.4-1.6c4.8-2.9,10-5.1,15.5-6.4
			c3.5-2,6.7-4.4,9.8-7.1c-0.3-2.4-0.8-4.8-1.4-7.2c-2.6-10-7.5-16.6-13.4-18.2C2752.1,1214.2,2749.4,1213.9,2746.7,1213.9z"/>
		<path d="M2740.7,1255.8l3.3-2c4.9-2.9,10.1-5.1,15.6-6.5l3.7-0.9l-3.3,1.9c-4.9,2.9-10.2,5-15.6,6.5L2740.7,1255.8z
			 M2754.2,1250.1c-1.4,0.5-2.8,1.1-4.2,1.8C2751.4,1251.4,2752.8,1250.8,2754.2,1250.1z"/>
		<path d="M2769.5,1241.6l-0.1-1c-0.3-2.6-0.8-5.1-1.4-7.6l-0.2-0.7h0.8c2.7,0.2,5.4,0.4,8,0.7l1,0.1l-0.7,0.8
			c-0.8,0.9-1.5,1.7-2.3,2.6c-1.4,1.5-2.8,3-4.3,4.3L2769.5,1241.6z M2769.2,1233.5c0.5,1.9,0.8,3.9,1.1,5.8
			c1.2-1.1,2.4-2.3,3.5-3.5c0.5-0.6,1-1.2,1.6-1.8C2773.4,1233.8,2771.3,1233.6,2769.2,1233.5z"/>
		<path d="M2742.8,1275.4c-5.9,0-11.8-0.8-17.5-2.3l-0.7-0.2l0.4-0.6c0.5-0.8,1.1-1.7,1.7-2.6c1.8-2.5,3.7-4.8,5.9-7l0.2-0.2
			l0.3,0.1c5.2,1.8,10.8,2.6,16.3,2.2c10.1-0.6,19.8-4.1,29.2-7.5l0.7-0.2v0.8c0.3,7.6-14.9,14.4-20.9,15.8
			C2753.3,1274.8,2748.1,1275.5,2742.8,1275.4z M2726.4,1272.3c10.4,2.6,21.3,2.7,31.8,0.3c6.7-1.6,19.3-7.8,20.1-13.9
			c-9.2,3.3-18.7,6.7-28.7,7.3c-5.6,0.4-11.1-0.4-16.4-2.1c-2,2.1-3.9,4.3-5.5,6.6C2727.1,1271.1,2726.7,1271.7,2726.4,1272.3
			L2726.4,1272.3z"/>
		<path class="st26" d="M2902.6,1696.2c0.4,41.8,0.8,87.2-4.8,128.6c-5.7,41.9-64.2,74.5-101.2,54.7
			c-39.5-21.2-63.1-66.7-83.9-104.4c-7.1-13-15.8-25-22.5-37.6c-6.9-12.8-11.9-26-11.5-41c2.1,2.2,4.4,3.7,7.2,3.8
			c1.3-1.2,2.5-2.6,3.6-4c4.5-6.2,7.5-13.5,8.7-21.1c53.9,49,128.9,38.6,186,1.8c5.5-3.6,10.9-7.4,16.1-11.4
			c-0.2,3.8-0.1,7.7,0.4,11.5c0.3,3.3,0.9,6.5,1.6,9.7c0.2,0.8,0.4,1.6,0.6,2.4c0.1,0.3,0.2,0.7,0.3,1c0.2,0.8,0.4,1.5,0.6,2.3
			s0.5,1.6,0.7,2.3c0.1,0.4,0.3,0.8,0.4,1.2c0,0.1,0,0.1,0.1,0.2L2902.6,1696.2z"/>
		<path class="st44" d="M3132.1,2149.6c-3,6.9-9.1,11.9-15.3,16.1c-3.9,2.6-7.9,5.1-11.9,7.3c-24.9,14-52.8,22.6-76.9,38.1
			c-9.4,6.1-18.2,13.2-26.3,21c-12.1,11.8-23.1,24.7-32.9,38.6c-0.9,1.2-1.8,2.4-2.6,3.7c-5.9,8.4-12.3,17.6-22.2,20.3
			c-4.9,1.3-10,0.9-15,0.4l-87.8-7.9c-17.6-1.6-35.3-3.2-52.3-8.1c-17.2-4.9-33.2-13.1-50.1-18.9c-37.5-12.7-74.4-17.1-110.9-34.2
			c-12.1-5.6-24.5-9.5-36.4-14.8c-1.9-0.9-3.9-1.7-5.7-2.6c-6.3-3-12.3-6.7-17.8-11c-37.9-29.7-71.2-66.4-95.4-108
			c-13.2-22.6-23.5-46.8-30.5-72c-2.3-8.2-4.1-16.6-5.7-25c-2.7-16-4.4-32.1-4.8-48.3c-0.7-19.4-0.2-39,0.5-58.4
			c1.1-31.2,5.5-61.3,6.7-91.8c0.5-11.1,0.4-22.1-0.2-33.2c-3-47.7,0.4-97.5,7.1-144.7c30.3,8.1,61.1,13.9,92.3,17.2
			c17.7,2,35.1,5.9,51.9,11.6c11.8,4,23.3,8.9,34.4,14.7c7.8,4,57.9,17.4,57.5,18.8c-1.8,5.8-2.8,11.7-3,17.8
			c-0.9,29.7,19.6,52.4,34,78.5c20.8,37.7,44.4,83.2,83.9,104.4c21.2,11.4,49.4,5.5,70.8-9.4c15.9-11.2,28-27.4,30.5-45.3
			c5.6-41.3,5.2-86.7,4.8-128.6h2.3c20.4,0.4,44.1-0.9,67.2,0.8c34.5,2.6,67.3,11.9,84.9,43.6c6.3,11.4,8.8,24.4,11.1,37.2
			c21.4,115.1,42.8,230.3,64.2,345.4C3134,2132,3135.5,2141.4,3132.1,2149.6z"/>
		<g class="st37">
			<path class="st45" d="M3001.6,2232.1c-12.1,11.8-23.1,24.7-32.9,38.6c-0.9,1.2-1.8,2.5-2.6,3.7c-5.9,8.4-12.3,17.6-22.2,20.3
				c-4.9,1.3-10,0.9-15,0.4l-87.8-7.9c-17.6-1.6-35.3-3.2-52.3-8.1c-17.2-4.9-33.2-13.1-50.1-18.9c-37.5-12.7-74.4-17.1-110.9-34.2
				c-12.1-5.6-24.5-9.5-36.4-14.8c-1.9-0.9-3.9-1.7-5.7-2.6c-6.3-3-12.3-6.7-17.8-11c-37.9-29.7-71.2-66.4-95.4-108
				c-13.2-22.6-23.5-46.8-30.5-72c27.6-26.4,66.7-42.3,97.2-18.6c25.3,19.7,18.6,51.6,28.7,78.3c13,34.6,41.4,52,72.8,68l124.6,63.5
				c-2.3-5.9-4.5-11.8-6.8-17.8c35.4,25.2,72.4,51.1,115.3,58.2s93.2-10.4,109.4-50.7C2985.5,2211.5,2993.1,2222,3001.6,2232.1z"/>
		</g>
		<path class="st45" d="M2585.2,2075.1c1.5,43,8.9,90.9,6.2,136.2c-1.9-0.9-3.9-1.7-5.7-2.6c-6.3-3-12.3-6.7-17.8-11
			c-37.9-29.7-71.2-66.4-95.4-108c-17.5-30.1-30.1-62.7-36.2-97c-2.7-16-4.4-32.1-4.8-48.3c0.1-5,0.3-10.1,0.5-15.1
			c1.1-31.2,5.5-61.3,6.7-91.8c43.1,2.4,93,16,121.7,16.2c63.1,0.4,33,18.2,23.2,63.7C2572.5,1968.4,2583.4,2023.2,2585.2,2075.1z"
			/>
		<path class="st26" d="M2500.6,1638.6c-0.9,1-2,1.8-3.3,2.2c-4.5,1.9-11.8,1.9-19.3,0.9c-12-1.6-24.8-5.9-28.4-9.8
			c-2.4-2.6-6.6-9-11.1-16.2c-8-12.9-16.7-28.2-16.7-28.2s-2.6,13.1-6.1,28.2c-3.7,16-8.3,34.2-11.7,41.7c-0.9,2-2.1,3.9-3.6,5.5
			c-7.7,8.9-19.7,8.9-19.7,8.9l-10-17.8c0,0-13.9,9.4-21.1,11.5s-19.9-14.8-19.9-14.8c-0.5,2.3-2.6,4-5,3.9c-4.5,0.1-10-3.9-10-3.9
			l-18-26.6c-18.1-7.2-41.8-39.3-40.7-44.9s23.3-53.8,40.7-59.4s117.3,0,117.3,0c20.4,9.3,23.9,33.2,36.5,49.5
			c7.3,9.5,16.4,14.4,22.9,24.8c4.4,7.1,8.7,14.3,13,21.5C2491.1,1623.4,2495.7,1631.1,2500.6,1638.6z"/>
		<path class="st34" d="M2388.8,1552.2c0.6-1.4,0.8-2.9,0.7-4.3l1.1,0.1c-0.8,9.1-1.9,18.2-3.3,27.2s-3,18-4.8,26.9
			s-3.8,17.8-5.9,26.7s-4.6,17.7-7.6,26.3c0.5-9.2,1.7-18.2,2.9-27.3s2.8-18,4.6-26.9s3.6-17.8,5.7-26.7s4.5-17.7,7.2-26.4l1.1,0.1
			C2390.4,1549.4,2389.8,1550.9,2388.8,1552.2z"/>
		<path class="st34" d="M2342.3,1550c-2,8.7-3.9,17.2-5.3,25.8s-2.5,17.2-3.3,25.8s-1.2,17.3-1.4,26.1s-0.2,17.5-0.3,26.4
			c-2.4-8.6-3.9-17.4-4.6-26.3c-0.7-8.9-0.7-17.9,0.1-26.8c0.8-8.9,2.3-17.7,4.7-26.4C2334.6,1566.1,2338,1557.8,2342.3,1550z"/>
		<path class="st34" d="M2301,1552.1c-1,6.9-3.7,13.5-5.7,19.8c-1,3.1-1.8,6.2-2.3,9.4c-0.1,0.8-0.2,1.5-0.2,2.3
			c-0.1,0.8-0.1,1.5-0.1,2.3c0,0.8,0,1.5,0.1,2.3c0,0.8,0.1,1.6,0.2,2.4c0.8,6.5,2.3,13,3.8,19.7s2.9,13.5,3.1,20.5
			c-2.7-6.4-5.4-12.6-7.8-19.1c-2.5-6.5-4.3-13.4-5.3-20.3c-0.1-0.9-0.2-1.8-0.2-2.7c-0.1-0.9-0.1-1.9,0-2.8c0-0.9,0.1-1.9,0.2-2.8
			l0.2-1.4c0.1-0.5,0.2-0.9,0.3-1.4c0.8-3.5,2-7,3.5-10.2C2293.9,1563.7,2297.6,1558.1,2301,1552.1z"/>
		<path class="st26" d="M3047.3,1549.4c-9.9,24.5-61.7,82.3-92.5,62.5c-12.7,16.5-27.2,29.7-42.7,43.7c-3.8,3.5-7.8,6.8-11.9,10
			c-5.2,4-10.5,7.8-16.1,11.4c-57.1,36.8-132.1,47.2-186-1.8c-1.8-1.6-3.6-3.3-5.3-5.1c-24-24.2-39-56.2-47.1-89
			c-1.3-5.3-2-10.8-2.3-16.2c-1.1-17.5,0.9-36.2-2.2-53c-0.1-0.8-0.3-1.6-0.5-2.3c0.3,1,0.1,2.1-0.5,3c-0.4,0.5-0.9,0.8-1.5,1
			c-1.4,0.4-2.9,0.5-4.4,0.2c-2.5-0.3-5-1.1-7.3-2.3c-5.2-3.7-4.4-18-5.2-23.4c-3.5-21.8-1.7-40.8,1.7-62.8c0.8-5.3,2-11.1,5.4-15.1
			c0.7-0.8,1.5-1.6,2.4-2.2c6.1-4.5,12.3-0.4,14.3,5.5c0.3-0.6,0.7-1.1,1-1.7c2-3.4,3.8-6.9,5.4-10.4c4.7-10.5,8.9-21.3,12.4-32.3
			c30.8-14.7,61.8-19.5,89.6-42.7c-4.7,16.8-18.4,29.5-35.6,32.7c11.8-2,29.3,6.6,42.8,5.2c13.1-1.3,27.1-5.3,39.7-8.8
			c24.7-6.8,54.5-18.4,72.8-37.1c0,0,0.1,0,0.1-0.1c1.9,23.5,10.8,45.9,25.5,64.3c-1.7-16.2,2.2-32.5,11.1-46.1
			c0.2,12.8,0.5,25.9,4.1,38.2s11.1,24,22.5,30c7.6,4,16.8,5.3,23.2,11.1c7.9,7,9.4,18.5,10.4,29c1.6,16.7,7.4,39.7,7.2,60.8
			c-0.4,4.3-1,8.6-1.9,12.8c-1.9,9.6-5.9,18.6-11.6,26.5c5.3-4.6,12.6-7.2,17.7-11.6c4.6-3.9,9.1-8.7,13.6-13.3c0,0.1,0,0.2,0,0.3
			c2.3,1.9,5.5,1.9,7.8,0.2c5.5-4.3,11.2-8.5,17.8-10.8s14.3-2.5,20.2,1.2s9.4,10.9,9.9,18S3050,1542.8,3047.3,1549.4z"/>
		<path class="st42" d="M3071.4,1620.7c-0.1,0-0.2,0.1-0.3,0.1c5.4,0.5,10.9-0.1,16.1-1.6c7.3,0.1,14.6-0.6,21.8-2.1
			c-0.5,1.5-1,3.1-1.6,4.6c-8.4,24.2-50.4,48.1-75.4,41.2c-7.5-2.1-6.5-9-10-11.4c-0.2-0.2-0.5-0.3-0.8-0.4c-2-0.8-5.3,0.6-8.8,2.5
			c-4.3,2.4-8.8,5.5-11.6,6.7c-4.6,1.9-9.3,3.4-14.1,4.7c-14.2,3.8-29.1,5.4-43.5,7.9c-8,1.4-16,2.5-24.1,3.2
			c-6.2,0.5-12.4,0.9-18.7,1.1c-5.5,0.1-11,0.1-16.5-0.1c5.5-3.6,10.9-7.4,16.1-11.4c1.3-1,2.6-2.1,3.9-3.1c2.7-2.2,5.4-4.5,8-6.9
			c15.5-14,30-27.1,42.7-43.7c30.8,19.8,82.6-38,92.5-62.5c2.7-6.6,4.7-13.6,4.2-20.7s-3.8-14.2-9.9-18s-13.6-3.5-20.2-1.2
			s-12.3,6.6-17.8,10.8c-2.3,1.8-5.6,1.7-7.8-0.2c0-0.1,0-0.2,0-0.3c-4.5,4.7-9,9.4-13.6,13.3c-5.2,4.4-12.5,7-17.7,11.6
			c10-10,13.3-24.1,13.4-39.3l0,0c0.2-21.1-5.6-44.1-7.2-60.8c-1-10.5-2.6-22-10.4-29c-6.4-5.8-15.6-7.1-23.2-11.1
			c-11.4-5.9-18.9-17.7-22.5-30s-3.9-25.4-4.1-38.2c-2.3,3.6-4.4,7.3-6,11.3c-4.6,11-6.4,23-5.1,34.8c-3.1-3.9-6-8-8.6-12.3
			c-9.6-15.8-15.4-33.6-16.9-52l0,0l-0.1,0.1c-18.3,18.8-48.1,30.3-72.8,37.1c-2.7,0.8-5.4,1.5-8.2,2.3c-10.3,2.8-21.1,5.5-31.5,6.5
			c-13.5,1.3-31.1-7.3-42.8-5.2c7.6-1.4,14.7-4.7,20.6-9.7c7.3-5.9,12.5-14,15-23c-18.6,15.5-38.5,22.8-58.9,30.3
			c-10.2,3.7-20.5,7.5-30.7,12.4c-0.3,0.8-0.5,1.5-0.8,2.3c-4.9,14.7-10.3,29.4-18,42.2c-2-5.8-8.1-9.9-14.3-5.5
			c-0.9,0.6-1.7,1.4-2.4,2.2c-4.5-2.7-9.4-5.2-14.1-8.3c16-13.1,23.5-32.8,29.1-52.5c1.8-6.2,3.4-12.5,5-18.5c3.8-14,5-29.7,10-43.1
			c3.7-10.1,9.7-20.1,16-29.7c4.1-6.2,8.4-12.2,12.2-18c6.2-9.2,12.7-18.3,20.8-26c0.8-0.8,1.7-1.6,2.6-2.3c1.2-1,2.4-2,3.6-3
			c4.1-3.1,8.5-6.1,12.9-8.7c1.4,2.8,2.8,5.5,4.5,8.1c-0.7-3.3-1.3-6.5-1.7-9.7c9.5-5.6,19.2-10.8,27.6-17.7
			c7.1-5.6,15-10.2,23.4-13.5c6.9-2.9,15.8-4.2,22.2-8.1c8.3-5,14.1-13.7,21-17.2c5.3,1.4,10.8,2.4,16.3,3.1l-0.1-0.8
			c0.5,0.4,1,0.8,1.6,1.2c5.6,4.5,9,10.7,15.6,14c11.3,5.7,20.5-1.1,32.3-0.6c17.8,0.8,31,11.6,44.4,22c5.8,4.5,9.9,6.6,16.5,9.5
			c2.6,1.2,20.4,5.8,21.1,7.1c-1.4-2.7-2-5.7-1.7-8.7c0-0.2,0-0.5,0.1-0.7c17.2,6.4,36.1,10.3,48.8,24.2c6.6,7.2,11.2,16,17.2,23.7
			c15.1,19.4,41.6,20.6,52.4,45.2c5.2,11.8,6,25.1,8.8,37.8s8.4,25.8,19.7,32.2c-7.1-4-16.5-0.9-21.6-9.2c0.4,2.5,0.7,4.9,0.9,7.4
			c3.4,33.9-4.1,66.7-11.2,99.6l-0.8,3.6c-4.3,19.9-8.4,39.8-9.8,59.9c-0.7,10-0.7,20.1,0.2,30.2c1.2,13.8,7.1,19.4,19,25.5
			c5.7,2.9,21.9,10.9,25.9,0.4c-0.4,1.1-0.8,2.2-1.1,3.3c-2.9,9.5-3.4,20.1-9.6,27.8c-3.5,4.3-8.4,7.2-13.4,9.9
			c-5.8,3.1-11.8,5.9-17.9,8.5C3075.5,1619,3073.4,1619.9,3071.4,1620.7z"/>
		<path class="st42" d="M2729.8,1198.5c0.4,3.2,1,6.4,1.7,9.7c-1.6-2.6-3.1-5.3-4.5-8.1L2729.8,1198.5z"/>
		<path class="st42" d="M2840.1,1145c-5.5-0.6-10.9-1.7-16.3-3.1c4.5-2.3,9.6-2.4,16.1,2.3L2840.1,1145z"/>
		<path class="st42" d="M2873.8,1318.2L2873.8,1318.2c0,0-0.1,0.1-0.1,0.1L2873.8,1318.2z"/>
		<path class="st42" d="M2977.9,1505.6c-0.2,15.1-3.4,29.2-13.4,39.3C2973.2,1532.7,2976.6,1520,2977.9,1505.6z"/>
		<path class="st42" d="M2677.5,1281.4c0.5-3.3,1.3-6.6,2.4-9.7c0.5,2.9,0.7,5.9,0.7,8.8c0,5.9-0.9,11.3-3.2,14.5
			C2676.8,1290.5,2676.8,1285.9,2677.5,1281.4z"/>
		<path class="st42" d="M2876.4,971.8c-3.2,1.1-6.3,2.3-9.2,3.7C2870.1,973.9,2873.2,972.7,2876.4,971.8z"/>
		<path class="st42" d="M2999.8,1181.1c-6,4.2-14.1,0.8-19.9-4.1c-0.5-0.4-1-0.9-1.5-1.3c-10.6-10.5-17-24.5-18-39.5
			c-0.4-5.9-3.9-3.1-9.2-5.8c-1.4-0.7-2.8-1.3-4.3-1.8c-4.1-1.5-8.4-2.4-12.6-3.7c-3.5-1.1-6.9-2.5-10.2-4.1
			c-8.1-3.9-16-9.6-19.9-16.6c-6.2-11.1-7.4-22.9-21.8-26.3c-37.6-8.8-45.4,25.6-43.8,54c0.3,4.3,0.7,8.5,1.4,12.4l0.1,0.8
			c-5.5-0.6-10.9-1.7-16.3-3.1c-1-0.2-1.9-0.5-2.9-0.8c1.2,0.3,0.9-2.2,0.2-5c-0.6-2.6-1.4-5.2-2.5-7.7c-2.4-3.8-8.5-8.1-12.4-10.3
			c-10.7-6.1-23.9-6.6-35.6-2.2c-15.7,6-27.4,19.9-34.2,34.9c-0.9,2.1-1.8,4.1-2.5,6.1c-4.9,13.3-6.4,27.5-4.3,41.5
			c0.4,3.2,1,6.4,1.7,9.7c-1.6-2.6-3.1-5.3-4.5-8.1c-7.5-15.4-10.6-32.5-8.9-49.5c-4.3,8.3-7.2,17.3-8.5,26.5
			c-0.8,5.3-1.3,10.7-1.5,16.1c-0.2,5.6,1.3,12.1,2.2,18.6c-0.9,0.7-1.7,1.5-2.6,2.3c-8,7.7-14.6,16.8-20.8,26
			c-3.9,5.8-8.1,11.8-12.2,18l-1-1.2l-1-1.2c-3.3-4-6.9-7.9-10.1-12.1c-0.3-0.4-0.7-0.8-1-1.3c-1-1.3-1.9-2.6-2.7-4
			c-0.3-0.4-0.5-0.9-0.8-1.3c-5.2-9.2-5-18.2-7.7-28.1c-4.2-16-8.8-28.6-7.8-45.9c0.7-12.4,4-28.2,12.1-38.1
			c3.6-4.5,8.4-7.7,13.1-10.9c5.3-3.6,10.6-7.2,14.3-12.7l0.3-0.4c14.9-21.8,25.8-35.6,53.3-35c26.9,0.5,51.1-3.1,71.7,19.2
			c-13.2-14.3,5.2-44.6,11.3-58.3c10.7-24.1,25.6-40.8,48.3-51.1c-31.2,16.2-51.9,65-49.4,96.4c-0.8-9.5,2.2-19,7.3-27.5
			c6.8-11.2,17.3-20.5,28.1-25.2c8.5-3.6,17.8-4.7,26.9-3.3c14.8,2,29.4,9.4,40,19c-8.1-1-16.5-1.9-24.4-0.1s-15.7,7.1-18.1,14.9
			c3-9.5,38.3-9.5,45.7-8.2c26,4.7,62.5,26.1,71.6,52.6c8.8,25.9-18,55.3-5.4,79.2C2991.7,1177.3,2995.4,1180.7,2999.8,1181.1z"/>
		<path class="st42" d="M2660.2,1371.2c-1.8,3.9-4.1,7.5-6.9,10.7C2652,1377.5,2656,1373.7,2660.2,1371.2z"/>
		<path d="M2957.4,1554.2l1.9-3.8c1.2-2.3,2.8-4.3,4.8-6l3.5-3.1l-2.7,3.8c-1.4,2-3.1,4-4.7,5.9L2957.4,1554.2z"/>
		<path d="M2649,1371.3l-1.1-0.2c0.2-1.3,0.5-2.6,0.9-4l1.1,0.2C2649.6,1368.6,2649.3,1369.9,2649,1371.3z"/>
		<path class="st46" d="M2700.7,1862.2c-0.1,9.5-0.4,18.9-0.6,28.4s-0.5,18.9-0.7,28.3l-0.1,7.1v7.1l0.1,7.1
			c0.1,2.4,0.2,4.7,0.4,7.1c0.7,9.4,2,18.8,4.1,28c2.1,9.2,4.7,18.3,7.5,27.3s5.9,18,8.7,27c5.7,18,11.1,36.4,13.2,55.3h-0.3
			c-4-18.5-10.1-36.4-16-54.4c-3-9-5.8-18-8.4-27.2c-2.6-9.1-4.8-18.4-6.4-27.8c-1.6-9.4-2.6-18.8-3.5-28.3l-0.6-7.1l-0.6-7.1
			l-0.4-7.1l-0.3-7.1c-0.2-9.5,0.2-19,0.9-28.5s1.6-18.9,2.7-28.3L2700.7,1862.2z"/>
		<path class="st45" d="M3104.8,2173.1c-24.9,14-52.8,22.6-76.9,38.1c-23.7,15.2-42.7,36.6-59.2,59.5c-3-11.2,7.1-28.9,8.5-40.4
			c3.8-31.3-4.1-62.7-3.4-94.1c0.4-16.8,4.2-34.6,8.4-50.9c5.7-21.9,22.9-37.9,29.5-60.4c4.4-14.8,5.7-30.4,6.6-45.9
			c2.1-34.2,0.2-69.7-0.5-104.2c3.8,12.6,5.7,25.7,7.6,38.8c5.3,36.4,11.1,71,9.5,107.6c-0.8,19.1-0.2,39.5-4.8,58.1
			c-2.5,10.1-9.2,20-10.4,30.1c-1.4,12,2.6,27,3.8,39c1-2.8,4.6-3.3,7.6-3.3C3056.6,2145.3,3084.2,2156,3104.8,2173.1z"/>
		<path class="st26" d="M3126.7,2181.7c0.3,13.5-11.5,26.1-25,26.7c-12.7,0.6-16.6-0.7-28.8-4.2c1,0.3,2.3,2.4,3.7,5.6
			c2.9,6.6,6.1,17.9,8.7,27.1c1.9,6.8,3.4,12.5,4.1,14.4c4.4,12.3,5.6,27.6-3.4,37c-6.8,7-10,0.7-19.7,1.1c2.8,10.9,4.9,27.8,5.6,39
			c0.4,6-15.9,3-19.8,3.1c-14.9,0.6-19.7-3.6-32.1-13.4c-0.6-0.5-29.3,17.6-33.5,18.4c-13,2.4-22.4-9-33.1-16.8
			c-3.6-2.6-7.9-4.9-11.1-8c-2.9-2.8-4.3-7.9-8.2-9.6c-1.1-0.4-2.2-0.6-3.3-0.7c-1.7-0.2-31-3.4-29.5-8.1
			c5.9-17.9,41.5-19.7,64-18.5c5.4,0.3,10,0.8,13.2,1.2c6.7-21.3,3-48.9,9.9-70.2c0.1-0.3,0.2-0.7,0.3-1c6.8-19.8,22.8-33.8,42-41.1
			C3064.7,2150.8,3095.2,2169,3126.7,2181.7z"/>
		<path class="st34" d="M3063.2,2242.2c0.4-0.9,1.2-1.5,2.2-1.6h0.2l0.1,0.3c0.9,3.8,1.3,7.8,1.3,11.7c0,2-0.1,4-0.3,5.9
			c-0.1,1-0.2,2-0.4,3l-0.1,0.7c0,0.1,0,0.2-0.1,0.4c-0.1,0.4-0.3,0.7-0.5,1c-0.2,0.2-0.4,0.3-0.6,0.4c-0.1,0.1-0.2,0.1-0.2,0.1
			l-0.2,0.1l-0.4,0.1c-0.2,0.1-0.4,0.1-0.6,0.1s-0.6,0.1-0.9,0.1c-1,0-2.1,0-3.1-0.1c-1-0.1-2-0.2-3-0.3c-1.9-0.2-3.9-0.5-5.8-0.8
			s-3.8-0.6-5.6-0.7h-0.6c-0.2,0-0.3,0-0.2,0l-1.1,0.3c-0.3,0.2-0.7,0.3-1,0.5s-0.6,0.4-0.9,0.6c-2.4,1.9-3.5,5-2.8,8
			c0.4,1.5,1.2,2.8,2.3,3.8c1.4,1.1,2.9,2.1,4.5,2.8c3.3,1.6,7,3,10.5,4.7c1.8,0.8,3.5,1.9,5.1,3.1c0.8,0.6,1.5,1.3,2.2,1.9l0.1,0.1
			h-0.1c0-0.1-0.6,0.4-0.3,0.4c0,0.1,0,0,0,0.1c0-0.1,0-0.2,0-0.3c0-0.1,0.1-0.1,0.1-0.2c0,0,0.1,0,0.1,0c0,0,0.1,0,0.1,0h0.1
			l0.2,0.1c0.2,0.1,0.4,0.2,0.6,0.4c0.4,0.3,0.8,0.5,1.2,0.8l-1.4-0.5c-0.2-0.1-0.4-0.2-0.7-0.2c0,0-0.1,0-0.1,0l0,0
			c0,0,0.1,0.1,0.2-0.2s0-0.1,0-0.1s0,0,0,0.1c0.2,0-0.3,0.5-0.4,0.4c-0.1,0-0.1,0-0.2-0.1l-0.2-0.1c-0.9-0.4-1.7-1-2.6-1.4
			c-1.7-0.8-3.5-1.5-5.3-2c-3.6-1.2-7.4-2.1-11.2-3.5c-2-0.7-3.9-1.7-5.6-3c-1.9-1.4-3.3-3.4-4-5.7c-1.3-4.7,0.3-9.7,4.2-12.8
			c0.5-0.4,1-0.7,1.5-1c0.5-0.3,1.1-0.5,1.6-0.8s1.1-0.4,1.7-0.5c0.4-0.1,0.9-0.1,1.3-0.1l0.9,0.1c2.1,0.2,4,0.6,5.9,0.9l5.7,1.1
			c1.8,0.3,3.6,0.6,5.4,0.7c0.2,0,0.4,0,0.5,0h0.1l0,0l0,0h-0.1c-0.1,0.1-0.2,0.1-0.3,0.2c-0.2,0.2-0.3,0.4-0.4,0.6
			c0,0,0-0.2,0.1-0.3l0.2-0.7c0.2-0.9,0.5-1.8,0.7-2.8c0.4-1.8,0.7-3.7,1-5.6c0.5-3.8,0.7-7.6,0.7-11.5l0.3,0.3
			C3064.6,2241.3,3063.8,2241.6,3063.2,2242.2z"/>
		<path class="st34" d="M3018.7,2320.9c-1.6-2-3.1-4.1-4.3-6.3c-1.3-2.3-2.3-4.6-3.1-7.1c-0.5-1.5-0.6-3-0.3-4.5
			c0.5-1.5,1.4-2.9,2.6-3.9c2-1.8,4.1-3.3,6.4-4.7c0.6-0.3,1.1-0.6,1.8-1c0.7-0.4,1.4-0.7,2.1-0.9c1.5-0.4,3.1-0.5,4.7-0.2
			c1.5,0.3,2.9,0.8,4.2,1.5c1.2,0.7,2.3,1.4,3.4,2.3c2.1,1.6,4,3.3,5.9,4.8c1.7,1.5,3.7,2.6,5.8,3.5l-2.5,1.1
			c0.4-0.9,0.7-1.8,0.8-2.8c0.1-1.1,0.1-2.2,0-3.2c-0.3-2.3-0.7-4.6-1.4-6.9c-0.6-2.3-1.3-4.7-1.9-7.1c-0.2-0.6-0.3-1.2-0.4-1.9
			c0-0.3,0-0.7,0-1.1c0-0.3,0.1-0.7,0.3-1c0.5-1.1,0.9-2.2,1.2-3.4c0.1,1.3,0,2.5-0.4,3.7c-0.1,0.5-0.1,1,0.1,1.5
			c0.2,0.5,0.4,1.1,0.6,1.6c0.9,2.2,2,4.4,3,6.7c1,2.3,1.8,4.8,2.3,7.3c0.3,1.3,0.4,2.7,0.4,4.1c-0.1,1.5-0.4,2.9-0.9,4.3l-0.7,1.6
			l-1.8-0.5c-2.7-0.8-5.1-2.1-7.3-3.9c-2.1-1.6-4-3.2-5.9-4.7c-1.7-1.4-3.6-2.4-5.7-3c-0.9-0.2-1.8-0.2-2.8,0.1
			c-0.5,0.1-0.9,0.3-1.4,0.5c-0.5,0.2-1.1,0.5-1.6,0.8c-2.1,1.1-4.2,2.4-6.1,3.8c-0.8,0.5-1.4,1.2-1.8,2.1c-0.3,0.9-0.3,1.9-0.1,2.9
			C3015.1,2311.7,3016.6,2316.4,3018.7,2320.9z"/>
		<path class="st34" d="M2941.3,2307.8c-0.8-1.6-1.1-3.4-0.9-5.2c0.4-1.9,1.6-3.6,3.3-4.6c1.6-0.9,3.4-1.5,5.3-1.8
			c1.8-0.3,3.6-0.4,5.4-0.4c3.5,0,7,0.4,10.4,1.1c0.9,0.2,1.7,0.3,2.6,0.5s1.7,0.4,2.6,0.6c1.7,0.5,3.3,1,4.9,1.5
			c3.1,1,6.1,1.6,9,1.2c1.5-0.3,3-0.7,4.4-1.3c1.5-0.6,3-1.2,4.5-2c6-2.8,12.1-6.4,18.7-8.2c-5.8,3.6-11.1,7.9-17,11.4
			c-1.5,0.9-3,1.8-4.6,2.5c-0.8,0.4-1.6,0.8-2.5,1.1c-0.4,0.2-0.9,0.3-1.3,0.5c-0.5,0.2-0.9,0.3-1.4,0.4c-1.9,0.4-3.9,0.4-5.8,0.2
			c-1.8-0.3-3.6-0.7-5.3-1.2l-4.8-1.6c-0.8-0.2-1.6-0.5-2.3-0.7l-2.4-0.6c-3.2-0.8-6.5-1.4-9.7-1.8c-1.6-0.2-3.2-0.3-4.8-0.2
			c-1.5,0-3.1,0.3-4.6,0.8c-1.4,0.5-2.6,1.5-3.1,2.9C2941.2,2304.5,2941,2306.2,2941.3,2307.8z"/>
		<path class="st34" d="M2930.9,2302.1c4.4-1,8.7-1.6,13.1-2.1s8.7-1,13-1.3s8.7-0.7,13-0.9s8.8-0.4,13.2-0.2
			c-4.1,1.6-8.4,2.9-12.8,3.8c-4.3,0.9-8.7,1.5-13.1,1.9c-4.4,0.4-8.8,0.5-13.2,0.4C2939.7,2303.5,2935.3,2303,2930.9,2302.1z"/>
		<path class="st34" d="M3012.3,2195.9c0.5,4.4,0.4,8.9,0.6,13.1c0,4.1,0.6,8.3,1.6,12.3c1,3.8,3,7.4,5.7,10.3
			c2.7,3.2,6.5,5.2,10.7,5.8c-2.2,0.7-4.6,0.7-6.8,0.1c-2.3-0.6-4.4-1.7-6.3-3.2c-3.7-3-6.4-7.2-7.7-11.8c-1.1-4.5-1.4-9.1-0.7-13.7
			C3009.9,2204.4,3010.9,2200.1,3012.3,2195.9z"/>
		<path class="st28" d="M2730.5,1437.7c0,0,6.9,9.6,8.5,14.2c0,0-7.2-7-16-10.2c-12.6-4.7-30-3.5-36.3-2.6c0,0,17.2-4.1,26-3.3
			s14.6,0.9,14.6,0.9"/>
		<path class="st28" d="M2881.5,1462.2c0,0-13.2,2.4-17.9,4.7c7.7,0,15.4,1.3,22.8,3.6c15.6,5.4,32.2,18.8,38,24
			c0,0-14.4-15.4-23.7-21.2s-15.2-9.8-15.2-9.8"/>
		<path class="st28" d="M2860.3,1484.6c-3.4,10,0,20.2,7.7,22.9s16.8-3.3,20.2-13.2s0-20.2-7.7-22.9S2863.8,1474.6,2860.3,1484.6z"
			/>
		<g class="st37">
			<path class="st38" d="M2862.2,1473.9c-0.7,1.9,2,4.5,5.9,5.9s7.6,0.9,8.3-1s-2-4.5-5.9-5.9S2862.9,1472,2862.2,1473.9z"/>
		</g>
		<path class="st28" d="M2726.2,1464.1c-3.5,9.3-12,14.8-18.9,12.1s-9.6-12.3-6.1-21.6s12-14.8,18.9-12.1
			S2729.7,1454.7,2726.2,1464.1z"/>
		<g class="st37">
			<path class="st38" d="M2715.6,1449.2c-0.8,2-4.2,2.5-7.7,1.2s-5.7-4-5-6s4.2-2.5,7.7-1.2S2716.3,1447.3,2715.6,1449.2z"/>
		</g>
		<path class="st47" d="M2750,1416.2c-26.3-4.4-51.2-10-77.6-11.8c12.8-3,27.7-6.7,41-6.9c15.8-0.3,33,4.3,48.2,8.5
			c4.5,1.3,3.9,8.7,0.3,11.1S2753.5,1416.8,2750,1416.2z"/>
		<path class="st47" d="M2956.4,1468.7c-3.2-1.5-6.3-3-9.5-4.5c-27.1-12.4-54.7-22-82.9-33.1c-4.2-1.6-11.3-2.3-13.7-6.5
			s1.4-10.7,7.1-9c8.5,2.5,17.6,5.3,26.5,8.4c0.2,0.3,0.4,0.6,0.7,0.9c0.3,0.3,0.5,0.7,0.8,1c0.9,1.1,1.8,2.2,2.8,3.3
			c10.2,10.8,23.7,18,38.4,20.3c2.4,0.4,4.8,0.6,7.3,0.7c4.4,3.4,8.8,6.9,13,10.4C2950.1,1463.4,2953.3,1466.1,2956.4,1468.7z"/>
		<g class="st35">
			
				<ellipse transform="matrix(0.1867 -0.9824 0.9824 0.1867 811.3891 4115.6206)" class="st32" cx="2891.4" cy="1567.8" rx="38.3" ry="58.8"/>
		</g>
		<g class="st35">
			<path class="st32" d="M2638.7,1513.5c0.5-0.4,1-0.7,1.5-1C2639.8,1513,2639.3,1513.4,2638.7,1513.5z"/>
		</g>
		<g class="st35">
			<path class="st32" d="M2702.9,1543.7c-4.6,23.9-31.6,30.8-52.7,23.9c-2.3-0.8-4.5-1.7-6.7-2.8c-1.1-17.5,0.9-36.2-2.2-53
				c0.7-0.4,1.4-0.8,2-1.2C2668.4,1497.2,2709.6,1508.3,2702.9,1543.7z"/>
		</g>
		<path class="st28" d="M2819.9,1603.3c0,0,0,0.1-0.1,0.1c0,0.1-0.1,0.3-0.1,0.4c-0.3,0.7-0.6,1.4-1,2c-8.2,14.7-33.7,14.3-45.6,5.4
			c-1.8-1.4-3.3-3.1-4.5-5.1c-2-3.5-2.9-7.6-2.6-11.7c0-0.2,0-0.5,0.1-0.7c0.4-3.8,1.9-7.4,4.3-10.3c0.5-0.6,1-1.1,1.6-1.7
			C2786.6,1568.6,2829.8,1577.5,2819.9,1603.3z"/>
		<path class="st34" d="M2818.7,1605.8c-8.2,14.7-33.7,14.3-45.6,5.4c-1.8-1.4-3.3-3.1-4.5-5.1c-0.1-0.7-0.2-1.4-0.2-2.2
			C2785.2,1602.6,2802,1603.3,2818.7,1605.8z"/>
		<path class="st34" d="M2808.3,1507.4c2.1,3.3,3.5,7,4.4,10.8c0.4,2,0.4,4,0.1,6c-0.2,2.1-1.1,4.1-2.4,5.8
			c-1.4,1.7-3.2,2.9-5.2,3.5c-1.9,0.6-4,0.9-6,0.9c-3.9-0.1-7.8-0.6-11.6-1.5c3.9-0.1,7.8,0.1,11.5-0.2s7.4-1.3,9.6-4
			s2.6-6.6,2.3-10.2S2809.4,1511.1,2808.3,1507.4z"/>
		<g class="st18">
			<path class="st15" d="M2783.7,1508c0.4,3.6,0.5,7.8-3.1,9c-6,1.9-10.5-3.7-5.4-8.2c1.3-0.9,2.4-2.1,3.3-3.4
				c0.4-0.9,0.8-1.7,1.3-2.5c0.5-0.8,1.6-1.1,2.5-0.7c0.6,0.6,1,1.4,0.9,2.2C2783.3,1505.4,2783.5,1506.6,2783.7,1508z"/>
		</g>
		<g class="st35">
			<path class="st32" d="M2786.6,1451.3c-2,9-7,17.1-9.7,25.7c-2.9,9.3-7.9,16.7-13.5,24.4c-7.3,10-4.9,17.6,2.1,26.3
				c0.3,0,0.6,0,0.8,0.2c-2-7.8-1.6-16,2.8-23c1.3-2,2.8-3.8,4.1-5.7c6.7-9.3,9.3-20.8,10.8-32.2"/>
		</g>
		<path class="st34" d="M2788.2,1447.8c-2,9.2-4.1,18.2-6.6,27c-1.3,4.4-2.8,8.6-4.6,12.8c-1.6,3.4-3.5,7.2-6.2,10.2
			c-7.3,8-15.1,16.6-7.6,27.7c3.7,5.4,9.4,8.1,15.8,6.4c-6.5-0.3-14.6-6.4-15.3-13.3c-0.7-6.6,2.8-13.1,7.1-17.7
			c9.4-9.9,12.7-21.5,15.4-34.4C2787.5,1460.4,2786.8,1454,2788.2,1447.8z"/>
		<path class="st48" d="M2992.6,1204.2l-136.9-32.6c-12.4-3-12.3-6.9-24.2-2.4c-33,12.5-69.8,25.3-102,42.1
			c-6.9,3.6-13.5,7.3-19.9,11.2c1.3-4.4,2.9-9.1,4.6-13.7c13.6-10.6,30-17.2,43.3-28c7.1-5.6,15-10.2,23.4-13.5
			c6.9-2.9,15.8-4.2,22.2-8.1c14.2-8.6,21-27.9,38.7-13.7c5.6,4.5,9,10.7,15.6,14c11.3,5.7,20.5-1.1,32.3-0.6
			c17.8,0.8,31,11.6,44.4,22c5.8,4.5,9.9,6.6,16.5,9.5c2.6,1.2,20.4,5.8,21.1,7.1c-1.4-2.7-2-5.7-1.7-8.7
			C2977.6,1193.8,2985.1,1198.8,2992.6,1204.2z"/>
		<path class="st48" d="M2924.2,1120.8c-8.1-3.9-16-9.6-19.9-16.6c-6.2-11.1-7.4-22.9-21.8-26.3c-37.6-8.8-45.4,25.6-43.8,54
			c-6,0.7-11.9,2.1-17.5,4.3c-0.6-2.6-1.4-5.2-2.5-7.7c-2.4-3.8-8.5-8.1-12.4-10.3c-10.7-6.1-23.9-6.6-35.6-2.2
			c-15.7,6-27.4,19.9-34.2,34.9c-0.9,2.1-1.8,4.1-2.5,6.1l-3.9-2.1c2.8-18,16.2-33.3,32.6-41.3s35.4-9.4,53.5-7.4
			c1.8-13.7,12.5-25,25-30.9s26.6-7.2,40.5-7.4c5.7-0.1,11.6,0,16.8,2.4c8.8,4.2,13.4,14,16,23.4S2918.7,1112.8,2924.2,1120.8z"/>
		<path class="st48" d="M2980,1177c-0.5-0.4-1-0.9-1.5-1.3c-10.6-10.5-17-24.5-18-39.5c-0.4-5.9-3.9-3.1-9.2-5.8
			c-1.4-0.7-2.8-1.3-4.3-1.8c3.3-3.3,0.8-7.8,0-14.5c-2-17.3-12.7-33.6-30.3-38.1c21.8,4.7,42,23.5,51.1,43.6
			C2971.1,1127.1,2978.4,1156.4,2980,1177z"/>
		<path class="st44" d="M2825.7,1131.8c-7.2-4.9-18.8,2.6-17.2,11.1c1.2,6.6,8.3,10.8,15,10.9s13-2.9,18.9-6c3.4-1.8,7-3.9,8.2-7.5
			c2-5.8-3.9-12-10-12.7s-12,2.3-17.5,5.2"/>
		<path class="st48" d="M2716.1,1287.5c-12.3,31.3-32.9,58.6-59.6,78.9c-3.3,2.5-0.4-1.1-3.4,1.6c3.6,1,7.1,2.1,10.6,3.3
			c-4.9,14.7-10.3,29.4-18,42.2c-2-5.8-8.1-9.9-14.3-5.5c-0.9,0.6-1.7,1.4-2.4,2.2c-4.5-2.7-9.4-5.2-14.1-8.3
			c16-13.1,23.5-32.8,29.1-52.5c13.4-10.2,27.3-19.3,40.1-30.8c12-10.8,21.3-24.2,30.4-37.5C2717,1281.2,2717,1285.1,2716.1,1287.5z
			"/>
		<path class="st48" d="M2809.1,1274.6c-17.8,15.8-12.9,45.8-31.4,59.9c-9,6.9-20.4,9.9-31.4,12.9c-2.4,0.6-4.9,1.3-7.3,2
			c7.3-5.9,12.5-14,15-23c-18.6,15.5-38.5,22.8-58.9,30.3c-1-0.3-2-0.6-3-0.7C2734.2,1333.5,2773.5,1306.2,2809.1,1274.6z"/>
		<path class="st48" d="M2890.7,1370.3c-9.6-15.8-15.4-33.6-16.9-52l0,0l-0.1,0.1c-18.3,18.8-48.1,30.3-72.8,37.1
			c-2.7,0.8-5.4,1.5-8.2,2.3l0.3-1c47.4-16.1,88.1-47.4,115.8-89.1c-5.5,21.8-19.8,43-24.1,64.5
			C2882.3,1344.3,2885.2,1357.8,2890.7,1370.3z"/>
		<path class="st48" d="M3016.3,1603.1c-3.3,15.6-0.7,33,5.8,48.4c3.4,8.1,7.9,15.7,13.5,22.6c-4.2,1.4-8.3-2.2-11.2-5.6
			c-4.2-4.8-8.2-9.8-11.9-14.9c-4.7-6.5-9.1-13.3-13-20.3c-0.3-0.5-0.6-1.1-0.8-1.6c-1.3,11.4-5.4,23.7-11.8,33.2
			c-14.2,3.8-29.1,5.4-43.5,7.9c-8,1.4-16,2.5-24.1,3.2c-4.9-4.4-10-8.9-15.1-13.6c2.7-2.2,5.4-4.5,8-6.9c15.5-14,30-27.1,42.7-43.7
			c30.8,19.8,82.6-38,92.5-62.5c2.7-6.6,4.7-13.6,4.2-20.7s-3.8-14.2-9.9-18s-13.6-3.5-20.2-1.2s-12.3,6.6-17.8,10.8
			c-2.3,1.8-5.6,1.7-7.8-0.2c0-0.1,0-0.2,0-0.3c-4.5,4.7-9,9.4-13.6,13.3c-5.2,4.4-12.5,7-17.7,11.6c10-10,13.3-24.1,13.4-39.3l0,0
			c0.2-21.1-5.6-44.1-7.2-60.8c-1-10.5-2.6-22-10.4-29c-6.4-5.8-15.6-7.1-23.2-11.1c-11.4-5.9-18.9-17.7-22.5-30s-3.9-25.4-4.1-38.2
			c-2.3,3.6-4.4,7.3-6,11.3c-0.2-1.8-0.4-3.7-0.6-5.5c-0.6-6.2-1.2-12.6,0.9-18.5c3.8-10.5,15.3-16.6,19.3-27
			c-7.8,20.2-8.7,43,2,62.4c18.8,34,58.5,50.6,74.4,2.5c-6.6,24-8,49.8-9.3,74.6c-0.9,17.6-1.2,40.6,19.9,46.8
			c6.2,1.8,12.9,1.2,19.3,1.7s13.4,2.6,16.9,8c7.6,11.8,5.8,46.2,1.4,58.6C3041.3,1572.2,3020.9,1581.8,3016.3,1603.1z"/>
		<path class="st48" d="M3059.8,1436.9c2.7,19.9,6.6,39.8,10.1,58.9c-3.6-19.7-12.2-39.3-18.3-58.1c-6.9-21.3-4.4-42.4-3.1-64.6
			c0.9-16.6-1.2-33.2-3.3-49.7c10.4,23.8,11,49.3,11.4,74.4C3056.9,1411,3058,1424,3059.8,1436.9z"/>
		<path class="st48" d="M3084.9,1449.1c-5.3-25.2-4.3-53.3-5.7-77.2c-1.8-30.8-23-51.7-26.6-81.7c4.4,24.4,31.4,38.1,43.5,59.4
			C3099.5,1383.4,3092,1416.2,3084.9,1449.1z"/>
		<path class="st48" d="M3118.4,1572c-2.9,9.5-3.4,20.1-9.6,27.8c-3.5,4.3-8.4,7.2-13.4,9.9c-5.8,3.1-11.8,5.9-17.9,8.5
			c-1.8-0.3-3.6-0.7-5.4-1.1c-15.4-3.9-29.6-14.7-34.4-29.8c11.6,7.4,24.9,12.8,38.7,12.6s27.9-6.7,34.9-18.6
			C3111.6,1580.5,3114.9,1576.2,3118.4,1572z"/>
		<path class="st48" d="M2710.4,1211.8c-0.9,0.7-1.7,1.5-2.6,2.3c-8,7.7-14.6,16.8-20.8,26c-3.9,5.8-8.1,11.8-12.2,18
			c-0.3-0.4-0.6-0.8-1-1.2s-0.6-0.8-1-1.2c-3.3-4-6.9-7.9-10.1-12.1c-0.3-0.4-0.7-0.8-1-1.3c-1-1.3-1.9-2.6-2.7-4
			c6.6-25.6,18.1-49.9,36.4-68.8c3.6-3.7,7.4-7.2,11.5-10.4c0.9,5.9,1.9,11.9,2.7,18.1c-0.8,5.3-1.3,10.7-1.5,16.1
			C2708,1198.8,2709.5,1205.4,2710.4,1211.8z"/>
		<path class="st48" d="M2682.6,1100.8c20.6-3.7,41.2-7.4,61.8-11.2c-14.2,2.6-48,19.8-76.4,24.3c5.3-3.6,10.6-7.2,14.3-12.7
			L2682.6,1100.8z"/>
		<path class="st48" d="M2880.2,1015.8c-25.8,10.7-47.3,31.7-57.9,57.5c-0.3-9.8,0.6-19.5,2.9-29c6.8-11.2,17.3-20.5,28.1-25.2
			C2861.8,1015.5,2871.1,1014.3,2880.2,1015.8z"/>
		<g class="st31">
			<path class="st32" d="M2902.6,1696.2c0.4,41.8,0.8,87.2-4.8,128.6c-5.7,41.9-64.2,74.5-101.2,54.7
				c-39.5-21.2-63.1-66.7-83.9-104.4c-7.1-13-15.8-25-22.5-37.6c18,28.5,43.4,49.2,59.4,78.8c12.3,22.8,32.5,60.7,64.1,55.1
				c45.9-8.1,111.6-101.5,60.1-138.3c-21.4-15.3-58.3,1.8-82.2,0.5c-36.3-2-71.2-15-101.5-34.9c-0.2-0.8-0.4-1.6-0.6-2.4
				c4.5-6.2,7.5-13.5,8.7-21.1c53.9,49,128.9,38.6,186,1.8c5.5-3.6,10.9-7.4,16.1-11.4c-0.2,3.8-0.1,7.7,0.4,11.5
				c0.3,3.3,0.9,6.5,1.6,9.7c0.2,0.8,0.4,1.6,0.6,2.4c0.1,0.3,0.2,0.7,0.3,1c0.2,0.8,0.4,1.5,0.6,2.3s0.4,1.6,0.7,2.3
				c0.1,0.4,0.2,0.8,0.4,1.2c0,0.1,0,0.1,0.1,0.2L2902.6,1696.2z"/>
		</g>
		<g class="st35">
			<path class="st34" d="M2982.6,1549.5c7.4-4.1,12.9-10.9,20.3-15s18.5-3.9,22.4,3.5c3.5,6.7-0.9,15.1-7,19.5s-13.6,6.4-20,10.4
				c-9,5.6-15.9,15.1-26.2,17.5c-2.6-5.7-1.1-12.5,2.2-17.8s8.3-9.2,13.2-13.1"/>
		</g>
		<g class="st31">
			<path class="st32" d="M2645.6,1413.6c0.3-0.6,0.7-1.1,1-1.7c-2.5,7.1-3.3,14.7-4.1,22.2c-2.7,26.6-5.4,53.1-8.2,79.7
				c-2.5-0.3-5-1.1-7.3-2.3c-5.2-3.7-4.4-18-5.2-23.4c-3.5-21.8-1.7-40.8,1.7-62.8c0.8-5.3,2-11.1,5.4-15.1c0.7-0.8,1.5-1.6,2.4-2.2
				C2637.4,1403.6,2643.6,1407.7,2645.6,1413.6z"/>
		</g>
		<g class="st31">
			<path class="st32" d="M2977.9,1505.6c-0.4,4.3-1,8.6-1.9,12.8c-3.6-29.8-4.5-72.5-29.5-92.2c-6.6-5.2-14.8-8-21.3-13.2
				c-9.4-7.5-14.5-19-19.2-30.1c-0.4,3.6-0.9,7.1-1.3,10.7c-19.4-12.5-33.9-31.4-41-53.5c-37.9,35-110.1,36.4-158.8,32.7
				c0.9-3.8,1.8-7.5,2.7-11.3c-15.8,16.6-42.4,22-55.6,40.1c4.7-10.5,8.9-21.3,12.4-32.3c30.8-14.7,61.8-19.5,89.6-42.7
				c-4.7,16.8-18.4,29.5-35.6,32.7c11.8-2,29.3,6.6,42.8,5.2c13.1-1.3,27.1-5.3,39.7-8.8c24.7-6.8,54.5-18.4,72.8-37.1
				c0,0,0.1,0,0.1-0.1c1.9,23.5,10.8,45.9,25.5,64.3c-1.7-16.2,2.2-32.5,11.1-46.1c0.2,12.8,0.5,25.9,4.1,38.2s11.1,24,22.5,30
				c7.6,4,16.8,5.3,23.2,11.1c7.9,7,9.4,18.5,10.4,29C2972.3,1461.4,2978.1,1484.5,2977.9,1505.6z"/>
		</g>
		<g class="st31">
			<path class="st32" d="M2497.3,1640.8c-4.5,1.9-11.8,1.9-19.3,0.9c-12-1.6-24.8-5.9-28.4-9.8c-2.4-2.6-6.6-9-11.1-16.2
				c-8-12.9-16.7-28.2-16.7-28.2s-2.6,13.1-6.1,28.2c-3.7,16-8.3,34.2-11.7,41.7c-0.9,2-2.1,3.9-3.6,5.5c5.6-14.6,3.6-31,6.1-46.4
				c2.9-18,7.8-35.6,10.8-53.6c-1.5,8,15.8,27.5,20.4,34.5c12.4,18.9,27.5,34.2,50.5,39c7.6,1.6-1.9,0,5.4,2.7
				C2495,1639.5,2496.2,1640.1,2497.3,1640.8z"/>
		</g>
		<g class="st31">
			<path class="st32" d="M3085.3,2236.9c-10.9-8.7-24.6-18.3-29.5-30.1l-15.4-37.3c11.2,14.2,23.2,27.6,36.1,40.2
				C3079.4,2216.4,3082.7,2227.7,3085.3,2236.9z"/>
		</g>
		<g class="st31">
			<path class="st32" d="M2992.3,2278.8l-27.1-4c5.4,0.3,10,0.8,13.2,1.2c6.7-21.3,3-48.9,9.9-70.2c0.6,0.1,1,0.3,1,0.5
				C2986.4,2230.7,2991.8,2254.6,2992.3,2278.8z"/>
		</g>
		<path class="st45" d="M2972.1,1697.1c-1.4,6.2-2.6,12.6-3.9,18.8c-7.1,34.3-16.3,68.8-34.5,98.9c-11.6,19.1-37.9,55.1-62.9,55.4
			c-1.2,0-2.4,0-3.6-0.1c15.9-11.2,28-27.4,30.5-45.3c5.6-41.3,5.2-86.7,4.8-128.6h2.3C2925.3,1696.6,2949.1,1695.3,2972.1,1697.1z"
			/>
		<path class="st49" d="M2507.8,1615.8V1769H2478v-127.2c9.9,1.3,19.2,0.8,22.6-3.2c-4.9-7.5-9.6-15.1-14.2-22.8H2507.8z"/>
		<rect x="2478" y="1768.9" class="st50" width="37.7" height="153.2"/>
		<path class="st10" d="M2478,1641.8V1769h-153.2v-114.3c2.4,0.1,4.5-1.6,5-3.9c0,0,12.7,16.8,19.9,14.8s21.1-11.5,21.1-11.5
			l10,17.8c0,0,16.6,0,23.3-14.4c3.4-7.4,8-25.7,11.7-41.7h22.8c4.4,7.2,8.7,13.6,11.1,16.2C2453.2,1635.9,2466,1640.2,2478,1641.8z
			"/>
		<rect x="2324.8" y="1768.9" class="st51" width="153.2" height="153.2"/>
		<rect x="2248.2" y="1921.4" class="st10" width="153.2" height="153.2"/>
		<rect x="2436.9" y="1921.4" class="st10" width="153.2" height="153.2"/>
		<rect x="2144.6" y="2074.6" class="st51" width="148" height="147.9"/>
		<rect x="2292.5" y="2074.6" class="st50" width="34.9" height="147.9"/>
		<rect x="2053.1" y="2222.5" class="st49" width="148" height="147.9"/>
		<rect x="2201.1" y="2222.5" class="st49" width="34.9" height="147.9"/>
		<rect x="2315.1" y="2222.5" class="st52" width="148" height="147.9"/>
		<rect x="2463" y="2222.5" class="st53" width="34.9" height="147.9"/>
		<rect x="2535" y="2222.5" class="st9" width="148" height="147.9"/>
		<rect x="2683" y="2222.5" class="st49" width="34.9" height="147.9"/>
		<rect x="1934.1" y="2369.7" class="st7" width="148" height="147.9"/>
		<rect x="2082.1" y="2369.7" class="st54" width="34.9" height="147.9"/>
		<rect x="2196" y="2369.7" class="st51" width="148" height="147.9"/>
		<rect x="2344" y="2369.7" class="st50" width="34.9" height="147.9"/>
		<rect x="2416" y="2369.7" class="st7" width="148" height="147.9"/>
		<rect x="2563.9" y="2369.7" class="st54" width="34.9" height="147.9"/>
		<path class="st52" d="M1973.8,2517.7v121.7c-36.4,11.4-67.4,28-107.3,6.6c-18.2-9.7-28-21.4-40.7-31.3v-97L1973.8,2517.7z"/>
		<path class="st52" d="M2235.8,2517.7v144.6c-9.4,1.2-18.8,1.7-28.3,1.5c-41.9-1.1-80.2-15.6-119.7-25.1v-120.9H2235.8z"/>
		<path class="st7" d="M2683,2517.7v142.9c-42.4-2-84.5-7.5-126-16.5c-7.3-1.6-14.6-3.3-21.9-5v-121.4H2683z"/>
		<path class="st51" d="M2455.7,2517.7v105c-11.2-1.5-22.5-2.2-33.8-2.3h-2.1c-23.6,0.2-45.7,4.4-67.1,10.1
			c-15.3,4.1-30.1,9-44.9,13.8v-126.6H2455.7z"/>
		<path class="st50" d="M2490.6,2517.7v111.1c-11.6-2.4-23.2-4.6-34.9-6.1v-105L2490.6,2517.7z"/>
		<path class="st52" d="M2892.3,2517.7v132c-37.4,1.3-75.9,6.6-112.9,9.5c-11.7,0.9-23.4,1.6-35.1,1.9v-143.4H2892.3z"/>
		<path class="st53" d="M2927.2,2517.7v132.1c-11.5-0.6-23.1-0.6-34.9-0.2v-132L2927.2,2517.7z"/>
		<rect x="2641.6" y="2369.7" class="st7" width="148" height="147.9"/>
		<rect x="2789.5" y="2369.7" class="st54" width="34.9" height="147.9"/>
		<path class="st15" d="M2300.4,2427.4H2274v-11.1h32.7l4.8-12.5v-12.2h-55.9c-7.2,0-12.2,5.1-12.2,12.2v73.8
			c0,7.2,5,12.2,12.2,12.2h44.8c7.3,0,12.4-5,12.4-12.2v-38C2312.8,2432.5,2307.7,2427.4,2300.4,2427.4z M2282,2465.4h-8v-13.6h8
			V2465.4z"/>
		<path class="st15" d="M2347,1992.8l12-15.9v-23.4h-68.8v12.2l4.9,12.5h28v5.2l-16.3,15v15.3h22.2v13.6h-38.8v24.4h57.1
			c7.2,0,12.2-5.1,12.2-12.2v-34C2359.5,1997.6,2354.7,1993.4,2347,1992.8z"/>
		<path class="st15" d="M2384.7,1659.2v24.7h28.9v3.4l-20.7,62.3v7.9h28.5l23.7-73v-25.3L2384.7,1659.2z"/>
		<path class="st15" d="M2421.9,2577.4v-22.6c0-7.2-5-12.2-12.2-12.2h-44.8c-7.2,0-12.4,5-12.4,12.2v22.6c0,7.1,5.9,11.8,12.6,11.8
			v2.8c-6.7,0-12.6,4.6-12.6,11.8v24.9c0,0.7,0,1.3,0.1,2c21.3-5.7,43.4-10,67.1-10.1h2.1v-16.6c0-7.2-5.8-11.8-12.5-11.8v-2.8
			C2416.2,2589.1,2421.9,2584.5,2421.9,2577.4z M2391.3,2616.4h-8v-13.6h8V2616.4z M2391.3,2578.4h-8v-11.1h8V2578.4z"/>
		<path class="st15" d="M2860.4,2593.8c6.7-3.8,7.7-8.3,7.7-15.6v-21c0-6.7-4.7-11.4-11.4-11.4h-53.4v11.4l4.6,11.7h31.6v4.8
			l-28.5,17.8c-6.4,3.9-7.7,8.1-7.7,15.6v30.4h64.8v-22.8h-36v-5L2860.4,2593.8z"/>
		<rect x="2327.4" y="2074.6" class="st51" width="148" height="147.9"/>
		<path class="st15" d="M2426.4,2151.2c6.7-3.8,7.7-8.3,7.7-15.6v-21c0-6.7-4.7-11.4-11.4-11.4h-53.4v11.4l4.6,11.7h31.6v4.8
			l-28.5,17.8c-6.4,4-7.7,8.1-7.7,15.6v30.4h64.8v-22.8h-36v-5L2426.4,2151.2z"/>
		<rect x="2495.1" y="2074.6" class="st49" width="148" height="147.9"/>
		<path class="st15" d="M2384.7,2249.5v24.7h28.9v3.4l-20.8,62.3v7.9h28.5l23.7-73v-25.3L2384.7,2249.5z"/>
		<path class="st15" d="M2167,2278.4h-26.4v-11.1h33.2l4.8-12.5v-12.2h-68.8v60.2h38.7v13.6h-38.7v24.4h57.1
			c7.2,0,12.2-5.1,12.2-12.2v-38.1C2179.2,2283.4,2174.2,2278.4,2167,2278.4z"/>
		<path class="st53" d="M1931.1,2626.3c14.5-1.8,28.7-5.9,42.8-9.9v23c-36.4,11.4-67.4,28-107.3,6.6c-18.2-9.7-28-21.4-40.7-31.3
			v-9.9C1859.5,2620.4,1894.8,2630.7,1931.1,2626.3z"/>
		<path class="st53" d="M2235.8,2628.1v34.2c-9.4,1.2-18.8,1.7-28.3,1.5c-41.9-1.1-80.2-15.6-119.7-25.1v-19.2
			c11.2,3.9,22.4,7.8,33.9,10.6C2159.4,2639,2197.5,2635.3,2235.8,2628.1z"/>
		<path class="st50" d="M2455.7,2610.5c11.7,2.1,23.3,4.5,34.9,7v11.2c-11.6-2.4-23.2-4.6-34.9-6.1c-11.2-1.5-22.5-2.2-33.8-2.3
			h-2.1c-23.6,0.2-45.7,4.4-67.1,10.1c-15.3,4.1-30.1,9-44.9,13.8v-31.3c24.5-4.9,49.1-8.9,73.8-9.4
			C2406.4,2603,2431.1,2606,2455.7,2610.5z"/>
		<path class="st54" d="M2655.9,2636.4c9.1-1.2,18.1-2.9,27.1-4.6v28.8c-42.4-2-84.5-7.5-126-16.5c-7.3-1.6-14.6-3.3-21.9-5v-11.9
			C2575.2,2635.5,2615.4,2641.7,2655.9,2636.4z"/>
		<path class="st53" d="M2927.2,2638.8v11c-11.5-0.6-23.1-0.6-34.9-0.2c-37.4,1.3-75.9,6.6-112.9,9.5c-11.7,0.9-23.4,1.6-35.1,1.9
			v-34.4c21.2,2.1,42,8.1,63.3,9.9c27.9,2.4,55.9-2.1,83.9-1.9h0.8C2904,2634.7,2915.7,2636.1,2927.2,2638.8z"/>
		<path class="st10" d="M2966.6,2558.3c19.1-0.7,38.1-0.8,56.3-4.1c9-1.5,17.8-4,26.3-7.4l3.1-1.4l1.6-0.7l1.5-0.8l3-1.5
			c0.5-0.2,1-0.5,1.5-0.8l1.5-0.8l2.9-1.7c1-0.6,2-1.1,3-1.7c2-1.2,3.9-2.4,5.9-3.7c3.9-2.5,8-5.1,12.1-7.6c2.1-1.3,4.2-2.4,6.3-3.6
			l3.1-1.8l3.2-1.7c8.5-4.6,17.2-8.7,26-12.6c17.5-7.9,35.6-14.7,54-20.1l7-1.9l7.1-1.7c4.7-1,9.5-2,14.3-2.7
			c9.6-1.5,19.3-2.3,29-2.5c9.7-0.3,19.3-0.3,28.9-0.1s19.1,0.6,28.5,1c18.9,0.8,37.6,1.5,56.1-0.2c4.6-0.4,9.2-1,13.8-1.8
			s9.1-1.8,13.6-2.9c9.1-2.4,17.9-5.8,26.3-10l0.7,1c-7.5,6.2-15.9,11.2-24.9,14.9c-4.5,1.9-9.1,3.6-13.8,4.9
			c-4.7,1.4-9.5,2.6-14.3,3.4c-2.4,0.4-4.8,0.9-7.2,1.3l-7.2,1l-7.3,0.7c-2.4,0.2-4.8,0.3-7.3,0.5c-9.7,0.5-19.3,0.6-28.9,0.4
			s-19.1-0.7-28.6-1.2s-18.9-0.9-28.3-1.1s-18.7,0.1-28,0.7c-9.4,0.6-18.7,1.6-28,3.1c-9.3,1.5-18.5,3.7-27.5,6.5
			c-9,2.9-17.8,6.4-26.2,10.6c-2.1,1.1-4.2,2.1-6.3,3.3s-4.1,2.4-6.1,3.6c-4,2.6-8,5.1-11.7,7.9l-2.9,2l-2.8,2.1
			c-1.9,1.4-3.7,2.8-5.6,4.3c-3.7,2.9-7.4,6-11.2,8.9c-1.9,1.5-3.9,2.9-5.9,4.3s-4.2,2.6-6.3,4c-1.1,0.6-2.1,1.3-3.2,1.9l-3.4,1.7
			l-1.7,0.8l-1.7,0.7l-3.5,1.4c-9.3,3.5-19.1,5.7-29,6.7c-9.7,0.9-19.5,1-29.2,0.1c-9.6-0.8-19.1-2.3-28.5-4.3L2966.6,2558.3z"/>
		<g class="st22">
			<path class="st10" d="M2966.5,2558.9c-4.9-0.4-9.7-0.9-14.4-1.4C2956.9,2557.9,2961.7,2558.4,2966.5,2558.9z"/>
		</g>
		<path class="st10" d="M3009.8,2669.7c-13.3-5.8-27.2-10-41.4-12.5c-14.2-2.5-28.6-3.9-43-4.2c-7.2-0.2-14.4-0.1-21.6,0.1
			c-7.2,0.2-14.4,0.6-21.6,1.1c-14.4,1-28.8,2.5-43.3,4s-28.9,3.2-43.4,4.7s-29.2,2.6-43.8,3.3c-29.3,1.4-58.6,0.8-87.8-1.7
			c-14.6-1.2-29.1-3-43.6-5.1s-28.9-4.8-43.2-7.8c-7.1-1.5-14.3-3.2-21.4-4.8l-21.2-5.3l-42.4-10.4c-7.1-1.6-14.2-3-21.3-4.3
			s-14.3-2.3-21.5-3c-14.4-1.6-28.8-1.9-43.2-0.8c-7.2,0.6-14.3,1.5-21.4,2.8c-7.1,1.3-14.1,2.9-21.1,4.7
			c-14,3.6-27.8,8.1-41.5,12.8s-27.5,9.6-41.6,13.8c-7,2.1-14.1,4.1-21.3,5.8s-14.5,3.1-21.9,4.2c-7.4,1.1-14.8,1.7-22.2,1.9
			c-3.7,0.1-7.5,0.1-11.2-0.1c-1.9-0.1-3.7-0.1-5.6-0.2l-5.6-0.4c-14.8-1.4-29.4-3.9-43.8-7.4c-14.3-3.4-28.4-7.3-42.4-11
			s-28-7.2-42-9.5c-13.9-2.4-28-3.4-42.1-3c-7,0.2-13.9,0.9-20.8,2c-6.9,1.2-13.7,2.8-20.5,4.8c-6.8,2-13.6,4.3-20.5,6.6
			s-13.9,4.7-21.1,6.6c-7.3,2.1-14.8,3.6-22.4,4.5c-7.8,0.8-15.6,0.7-23.3-0.5c-7.7-1.3-15.2-3.6-22.3-6.7l-5.2-2.6
			c-0.9-0.4-1.7-0.8-2.6-1.3l-2.5-1.4c-3.3-1.9-6.5-4-9.6-6.2c-6-4.5-11.7-9.3-17.2-14.4c-5.1-4.9-10.5-9.4-16.2-13.7
			c-5.6-4.1-11.6-7.4-18-10c-3.2-1.3-6.5-2.4-9.9-3.4l-2.5-0.7l-2.6-0.6l-5.2-1.2c-7-1.4-14-2.5-21.1-3.1c-1.8-0.1-3.6-0.4-5.3-0.5
			l-5.4-0.3l-2.7-0.1h-2.7l-5.4-0.1c-14.4,0.1-28.7,1.7-42.7,4.8c-1.8,0.3-3.5,0.8-5.2,1.3l-5.2,1.4l-5.1,1.7l-2.6,0.9l-2.5,1l-5,2
			c-1.6,0.8-3.2,1.6-4.9,2.3l-2.4,1.2c-0.8,0.4-1.6,0.9-2.3,1.3l-4.7,2.7l-0.7-1l4.6-3.1c0.8-0.5,1.5-1,2.3-1.5l2.4-1.4
			c1.6-0.9,3.2-1.8,4.8-2.7l5-2.4l2.5-1.2l2.6-1l5.1-2.1l5.2-1.8c1.7-0.6,3.5-1.2,5.3-1.6c14.2-4,28.8-6.4,43.6-7.2
			c14.8-0.8,29.7,0,44.3,2.4l5.5,1.1l2.8,0.5l2.8,0.6c3.7,0.9,7.3,2,10.9,3.3c7.2,2.6,14.1,6.1,20.4,10.4c6.1,4.3,11.9,9,17.5,14
			c5.3,4.7,10.8,9.1,16.6,13.2c2.8,2,5.8,3.8,8.8,5.5l2.3,1.2c0.8,0.4,1.6,0.7,2.3,1.1l4.7,2.2c12.5,5.4,26.2,7.3,39.7,5.4
			c6.9-0.9,13.7-2.4,20.3-4.4c6.8-2,13.5-4.4,20.4-6.7s13.8-4.8,21-6.9c7.2-2.2,14.6-3.9,22-5.2c7.5-1.2,15-2,22.6-2.2
			c15-0.4,30,0.8,44.8,3.5c29.4,5.2,57.1,14.8,85,21.9c13.8,3.6,27.9,6.3,42.1,7.9l5.3,0.5c1.8,0.2,3.5,0.2,5.3,0.3
			c3.5,0.2,7.1,0.3,10.6,0.3c7.1-0.1,14.2-0.5,21.2-1.3c14.2-1.7,28.3-4.5,42.1-8.2c14-3.6,27.8-8,41.8-12.1s28.1-8.2,42.3-11.4
			c7.1-1.6,14.4-3,21.6-4.1c7.2-1.1,14.6-1.9,21.9-2.4c14.7-0.9,29.4-0.5,43.9,1.2c14.6,1.6,29,4.1,43.2,7.2l42.7,9.3l21.3,4.5
			c7.1,1.4,14.2,2.7,21.4,3.9c14.3,2.4,28.6,4.3,43,5.9c7.2,0.8,14.4,1.5,21.6,2.1s14.4,1.1,21.6,1.5c14.4,0.9,28.9,1.3,43.3,1.5
			s28.9,0,43.3-0.5s28.8-1.5,43.3-2.8l43.5-3.8c14.5-1.3,29.1-2.3,43.8-2.8c7.3-0.3,14.6-0.4,22-0.4s14.7,0.3,22,0.8
			c14.7,0.9,29.3,3.1,43.6,6.5c14.3,3.4,28.1,8.7,41,15.7L3009.8,2669.7z"/>
		<path class="st27" d="M2309.7,787.2c0.1,0.9-1.5,1.9-1.8,0.9L2309.7,787.2z"/>
		<path class="st15" d="M2981.1,1977.1c-0.4,3.6-1.8,7.1-4,10c-4.7,6.4-12.6,10.9-20.3,13.7c-3.2,1.2-6.7,2.2-10,1.2
			c-1.1-0.4-2.1-1-2.9-1.9c1.6,10.5,0.9,21.5-3.6,31.1c-5.3,11.5-16.5,20.6-29.2,21.4s-25.8-8.2-27.8-20.7
			c-9.2-1.6-18.7-1.5-27.9-2.9c-3.6-0.5-7.2-1.4-10.7-2.6c-12.3-4.3-23.3-17.1-19.3-29.5c1.4-4.3,4.4-7.9,7.6-11.1
			c14.2-14.1,33.4-22,53.4-22c-9.4-4.8-18.2-12.1-21.3-22.1c-12.1-38.3,32-17.5,46.3-19.2c24-2.8,40.6-22.4,59.4,10
			c1.4,2.5,2.7,5.3,2.6,8.2c-0.5,8.1-10.4,10.6-19,10.6C2968.3,1952.5,2982.6,1963.3,2981.1,1977.1z"/>
		<path class="st15" d="M2958.2,2006.5c1,0,1.9,0,2.9,0.1C2960.1,2006.6,2959.1,2006.6,2958.2,2006.5z"/>
		<path class="st51" d="M2977.1,1987.2c-4.7,6.4-12.6,10.9-20.3,13.7c-3.2,1.2-6.7,2.2-10,1.2c-1.1-0.4-2.1-1-2.9-1.9
			c1.6,10.5,0.9,21.5-3.6,31.1c-5.3,11.5-16.5,20.6-29.2,21.4s-25.8-8.2-27.8-20.7c-9.2-1.6-18.7-1.5-27.9-2.9
			c11.5-6.6,24.5-10.1,37.7-10.1c-9.3-4.8-18.2-12.1-21.3-22.1c-12.1-38.3,32-17.5,46.3-19.2
			C2942.1,1975,2958.6,1955.6,2977.1,1987.2z"/>
	</g>
</g>
</svg>
