<?xml version="1.0" encoding="UTF-8"?>
<!DOCTYPE svg PUBLIC "-//W3C//DTD SVG 1.1//EN" "http://www.w3.org/Graphics/SVG/1.1/DTD/svg11.dtd">
<!-- Creator: CorelDRAW X8 -->
<svg xmlns="http://www.w3.org/2000/svg" xml:space="preserve" width="4.15096in" height="1.41183in" version="1.1" style="shape-rendering:geometricPrecision; text-rendering:geometricPrecision; image-rendering:optimizeQuality; fill-rule:evenodd; clip-rule:evenodd"
viewBox="0 0 4151 1412"
 xmlns:xlink="http://www.w3.org/1999/xlink">
 <defs>
  <style type="text/css">
   <![CDATA[
    .str0 {stroke:#66B94D;stroke-width:98.4253;stroke-linecap:round;stroke-linejoin:round}
    .fil0 {fill:none}
    .fil1 {fill:#21C1E0}
    .fil3 {fill:#6BB534}
    .fil4 {fill:#74AC4B}
    .fil2 {fill:#66B94D;fill-rule:nonzero}
   ]]>
  </style>
 </defs>
 <g id="Layer_x0020_1">
  <metadata id="CorelCorpID_0Corel-Layer"/>
  <g>
   <path class="fil0 str0" d="M2423 347c176,151 50,528 -221,528 -165,0 -300,-167 -300,-300 0,-134 37,-177 114,-231"/>
  </g>
  <path class="fil1" d="M1227 1158c2,3 3,7 5,12 1,5 2,10 2,15 0,11 -2,19 -7,23 -4,4 -10,7 -18,7l-85 0 0 46 89 0c2,3 4,7 5,12 2,4 3,10 3,15 0,10 -3,18 -7,22 -5,5 -11,7 -18,7l-71 0 0 86c-3,1 -8,2 -15,2 -6,1 -12,2 -18,2 -7,0 -12,-1 -17,-2 -5,-1 -9,-3 -12,-5 -3,-2 -6,-6 -7,-10 -2,-4 -3,-10 -3,-17l0 -177c0,-12 4,-21 10,-28 7,-7 16,-10 28,-10l136 0z"/>
  <g>
   <path class="fil1" d="M1329 1281c0,24 5,43 15,55 10,12 23,18 40,18 17,0 31,-6 41,-18 10,-12 15,-31 15,-55 0,-25 -5,-43 -15,-55 -10,-13 -24,-19 -41,-19 -16,0 -30,6 -40,19 -10,12 -15,30 -15,55l0 0zm-74 0c0,-21 4,-40 10,-57 7,-16 16,-29 28,-40 11,-11 25,-20 40,-25 16,-6 33,-9 51,-9 18,0 35,3 51,9 15,5 29,14 41,25 11,11 20,24 27,40 7,17 10,36 10,57 0,21 -3,40 -10,56 -6,17 -15,30 -27,41 -11,11 -25,20 -41,25 -15,6 -33,9 -51,9 -19,0 -36,-3 -51,-9 -16,-6 -30,-14 -41,-25 -12,-12 -20,-25 -27,-42 -6,-16 -10,-34 -10,-55l0 0zm0 0l0 0 0 0z"/>
  </g>
  <g>
   <path class="fil1" d="M1615 1281c0,24 5,43 15,55 10,12 23,18 40,18 17,0 31,-6 41,-18 10,-12 15,-31 15,-55 0,-25 -5,-43 -15,-55 -10,-13 -23,-19 -40,-19 -17,0 -31,6 -41,19 -10,12 -15,30 -15,55l0 0zm-73 0c0,-21 3,-40 10,-57 6,-16 15,-29 27,-40 11,-11 25,-20 41,-25 15,-6 32,-9 50,-9 18,0 35,3 51,9 16,5 29,14 41,25 12,11 21,24 27,40 7,17 10,36 10,57 0,21 -3,40 -9,56 -7,17 -16,30 -27,41 -12,11 -26,20 -41,25 -16,6 -33,9 -52,9 -18,0 -35,-3 -51,-9 -16,-6 -29,-14 -41,-25 -11,-12 -20,-25 -27,-42 -6,-16 -9,-34 -9,-55l0 0zm0 0l0 0 0 0z"/>
  </g>
  <path class="fil1" d="M1821 1215c-2,-3 -3,-7 -5,-13 -2,-5 -2,-10 -2,-16 0,-10 2,-18 7,-23 5,-4 11,-7 18,-7l178 0c2,3 4,8 5,13 2,5 3,10 3,16 0,11 -3,18 -8,23 -4,4 -10,7 -18,7l-45 0 0 188c-3,1 -8,2 -14,2 -7,1 -13,2 -19,2 -7,0 -12,-1 -17,-2 -5,-1 -9,-3 -12,-5 -3,-2 -5,-6 -7,-10 -2,-4 -3,-10 -3,-17l0 -158 -61 0z"/>
  <path class="fil1" d="M2152 1272c11,0 20,-3 26,-8 6,-5 9,-13 9,-24 0,-10 -3,-18 -9,-24 -7,-5 -16,-8 -28,-8 -5,0 -8,0 -11,0 -3,0 -6,0 -9,1l0 63 22 0zm-22 131c-2,1 -7,2 -14,2 -6,1 -12,2 -18,2 -7,0 -12,-1 -17,-2 -5,-1 -9,-3 -12,-5 -3,-2 -6,-6 -7,-10 -2,-4 -3,-10 -3,-17l0 -192c0,-6 2,-10 5,-13 3,-3 7,-6 13,-8 9,-3 19,-5 31,-7 12,-1 24,-2 36,-2 37,0 66,8 86,24 20,16 30,38 30,65 0,13 -2,25 -7,36 -4,11 -10,20 -18,28 -9,7 -19,13 -32,18 -12,4 -27,6 -44,6l-29 0 0 75z"/>
  <path class="fil1" d="M2392 1271c11,0 19,-3 25,-8 6,-6 9,-14 9,-24 0,-10 -4,-18 -10,-23 -7,-6 -17,-8 -32,-8 -4,0 -7,0 -10,0 -2,0 -5,1 -8,1l0 62 26 0zm-25 54l0 78c-3,1 -8,2 -14,2 -7,1 -13,2 -19,2 -7,0 -12,-1 -17,-2 -5,-1 -8,-3 -12,-5 -3,-2 -5,-6 -7,-10 -1,-4 -2,-10 -2,-17l0 -192c0,-6 1,-10 5,-13 3,-3 7,-6 12,-8 10,-3 20,-5 33,-7 12,-1 25,-2 39,-2 37,0 65,8 84,23 19,16 29,37 29,64 0,17 -4,32 -13,44 -9,11 -19,21 -31,27 10,14 19,26 29,38 9,11 17,22 22,31 -3,10 -7,17 -15,22 -7,5 -15,8 -24,8 -6,0 -11,-1 -15,-2 -5,-2 -9,-4 -12,-6 -3,-2 -6,-5 -9,-9 -2,-3 -5,-7 -7,-11l-35 -55 -21 0z"/>
  <path class="fil1" d="M2615 1403c-3,1 -8,2 -14,2 -6,1 -13,2 -19,2 -6,0 -12,-1 -16,-2 -5,-1 -9,-3 -12,-5 -4,-2 -6,-6 -8,-10 -1,-4 -2,-10 -2,-17l0 -215c3,-1 8,-2 14,-3 7,0 13,-1 19,-1 6,0 12,1 16,1 5,1 9,3 12,6 4,2 6,5 8,10 1,4 2,10 2,17l0 215z"/>
  <path class="fil1" d="M2892 1396c-4,4 -10,7 -17,9 -7,2 -16,3 -26,3 -10,0 -19,-2 -28,-5 -9,-3 -16,-10 -22,-21l-40 -83c-5,-8 -8,-16 -11,-23 -4,-8 -7,-16 -11,-26l-3 0c2,15 2,30 2,45 0,15 1,30 1,45l0 63c-3,1 -8,2 -14,2 -6,1 -12,2 -18,2 -6,0 -12,-1 -16,-2 -5,0 -9,-2 -12,-5 -3,-2 -5,-5 -6,-10 -2,-4 -3,-9 -3,-16l0 -204c4,-5 10,-9 18,-12 7,-3 16,-4 25,-4 10,0 19,2 29,5 9,3 16,10 21,21l41 82c4,9 8,17 11,24 3,8 7,16 11,26l2 0c-1,-15 -2,-30 -2,-44 -1,-15 -1,-30 -1,-44l0 -66c3,-1 8,-2 14,-3 6,-1 12,-1 18,-1 12,0 21,2 27,6 7,5 10,13 10,27l0 209z"/>
  <path class="fil1" d="M2933 1215c-2,-3 -3,-7 -5,-13 -2,-5 -2,-10 -2,-16 0,-10 2,-18 7,-23 4,-4 11,-7 18,-7l178 0c2,3 3,8 5,13 2,5 2,10 2,16 0,11 -2,18 -7,23 -4,4 -11,7 -18,7l-45 0 0 188c-3,1 -8,2 -14,2 -7,1 -13,2 -19,2 -7,0 -12,-1 -17,-2 -5,-1 -9,-3 -12,-5 -3,-2 -6,-6 -7,-10 -2,-4 -3,-10 -3,-17l0 -158 -61 0z"/>
  <path class="fil1" d="M3238 1306c-12,-4 -23,-8 -33,-12 -9,-4 -18,-9 -25,-15 -7,-6 -13,-13 -16,-22 -4,-8 -6,-18 -6,-30 0,-23 9,-42 26,-55 18,-14 43,-21 75,-21 12,0 23,1 33,2 10,2 18,4 26,8 7,3 12,7 16,13 4,5 7,11 7,18 0,7 -2,13 -5,18 -4,5 -8,10 -12,13 -6,-4 -14,-7 -24,-10 -10,-3 -21,-4 -33,-4 -12,0 -21,2 -27,5 -6,4 -9,8 -9,13 0,4 2,7 6,10 3,2 8,5 16,7l21 7c26,8 45,19 59,31 14,13 21,30 21,52 0,23 -10,41 -28,56 -18,14 -45,21 -80,21 -12,0 -24,-1 -35,-3 -11,-2 -20,-5 -28,-9 -8,-4 -14,-9 -19,-15 -4,-5 -6,-12 -6,-20 0,-8 2,-14 7,-20 4,-6 9,-10 15,-13 7,6 17,11 28,16 11,4 23,6 36,6 13,0 22,-2 28,-6 5,-4 8,-9 8,-14 0,-6 -2,-10 -7,-13 -4,-2 -10,-5 -18,-8l-17 -6z"/>
  <path class="fil2" d="M1715 899l0 45c6,-6 11,-10 17,-13 6,-3 13,-5 21,-5 10,0 19,2 26,7 7,5 13,11 17,20 4,9 6,19 6,31 0,9 -1,17 -3,25 -2,7 -6,14 -10,19 -4,6 -9,10 -16,13 -6,3 -13,4 -20,4 -4,0 -9,0 -13,-1 -4,-1 -7,-3 -10,-4 -3,-2 -5,-4 -7,-6 -2,-2 -5,-5 -8,-8l0 3c0,5 -1,9 -4,12 -2,3 -6,4 -10,4 -4,0 -7,-1 -10,-4 -2,-3 -4,-7 -4,-12l0 -129c0,-6 2,-10 4,-13 3,-3 6,-5 10,-5 5,0 8,2 11,5 2,3 3,7 3,12zm2 87c0,12 2,21 8,27 5,6 12,10 21,10 7,0 13,-4 19,-10 5,-6 8,-16 8,-28 0,-7 -1,-14 -4,-20 -2,-5 -5,-10 -9,-13 -4,-3 -9,-4 -14,-4 -6,0 -11,1 -15,4 -5,3 -8,8 -11,14 -2,5 -3,12 -3,20zm136 63l3 -7 -37 -91c-2,-5 -3,-9 -3,-11 0,-3 1,-5 2,-7 1,-2 3,-4 5,-5 3,-2 5,-2 7,-2 5,0 8,1 10,4 2,3 4,6 6,11l25 73 23 -67c2,-6 4,-10 5,-13 2,-3 3,-5 5,-7 2,-1 4,-1 7,-1 2,0 4,0 7,2 2,1 3,2 4,4 1,2 2,5 2,7 0,1 -1,3 -2,6 0,2 -1,5 -2,7l-38 101c-3,8 -7,15 -10,20 -3,5 -7,9 -12,12 -6,3 -13,4 -21,4 -9,0 -15,-1 -20,-3 -4,-2 -6,-5 -6,-10 0,-4 1,-6 3,-8 2,-2 5,-3 9,-3 2,0 3,1 5,1 2,0 3,1 4,1 4,0 6,-1 8,-2 2,-1 4,-3 6,-5 1,-3 3,-6 5,-11z"/>
  <path class="fil3" d="M2183 63c0,5 1,-2 1,6 1,4 2,4 2,8 1,10 0,7 -1,11 0,2 0,3 0,4 -1,3 0,0 -2,3 0,1 0,1 -1,3 0,2 -4,10 -5,11 -1,1 -1,1 -2,2 -2,2 -14,11 -18,16 -5,5 -2,1 -5,4 -1,1 -1,1 -2,2l-2 2c0,1 -1,1 -2,2 -1,2 -2,2 -4,4 -1,2 -3,3 -4,5l-11 14c-3,3 -1,2 -3,5 -1,0 -1,0 -1,0l-6 10c0,1 0,0 0,1 0,0 -1,1 -1,1 0,0 0,0 0,0 0,0 0,0 0,0l-2 4c-1,4 0,1 -2,5 -2,4 -3,8 -4,13l-4 13c-2,7 -4,21 -4,29 -1,5 -2,5 -2,13 0,5 -1,9 -1,13 -1,10 0,22 0,31 0,3 2,4 2,13l17 67c3,6 6,20 10,29 1,4 3,8 4,11l9 22c1,2 1,3 3,6 1,2 0,1 1,4 2,4 4,7 5,11 1,1 1,3 2,5l7 24c0,2 1,4 1,7 1,11 5,31 4,42 -1,8 -2,21 -4,29 -3,8 -4,12 -8,20 0,0 0,0 0,0 0,0 0,0 0,0l-5 12c-1,2 -1,2 -2,5 -2,5 -2,3 -4,7l-1 3c-1,1 -1,1 -1,3 -2,6 -4,0 -3,11 4,0 3,0 4,2l14 0c2,-4 5,-3 7,-9 1,-4 2,-5 3,-8 1,-3 2,-4 3,-7l5 -12c1,-5 2,-6 4,-12 0,-2 0,-2 1,-4 0,-2 0,-3 1,-5 0,-1 1,0 1,-3l2 -9c0,-4 1,-5 1,-9 1,-12 1,-31 -1,-43 0,-2 0,-7 -1,-10 0,-2 0,-3 -1,-4 0,-2 0,-4 0,-5 0,-4 -1,-6 -2,-9 -1,-11 0,-4 -2,-9 -1,-3 -1,-6 -2,-9 -1,-3 -3,-4 -3,-8 -1,-3 -2,-4 -3,-7l-1 -1c0,-1 0,-1 0,-1l-3 -6c0,-1 0,-2 -1,-4l-1 -2c-1,-3 -2,-3 -3,-5l-2 -3c0,0 0,0 0,0l-6 -12c-1,-2 -1,-4 -2,-6 -1,-2 -2,-3 -2,-4 -1,-1 -1,-2 -2,-4 0,0 0,-1 -1,-1 -3,-6 -5,-12 -7,-17l-1 -4c-1,-2 -1,-3 -1,-5 -2,-6 -3,-7 -5,-16 -1,-4 -3,-12 -4,-18 -1,-4 -2,-6 -2,-10 -1,-3 -1,-5 -2,-9l-4 -29c0,-3 0,-6 -1,-10 0,-3 -1,-5 -1,-9 0,-5 0,-7 1,-10 1,-7 -1,-15 1,-20 1,-4 0,-7 1,-10 2,-13 4,-26 9,-39 1,-2 1,-1 2,-3 1,-3 1,-6 3,-8 2,-5 4,-10 7,-14l4 -6c5,-7 9,-12 15,-17 2,-2 3,-4 5,-6l6 -5c0,-1 -2,1 0,-1 4,-2 8,-6 11,-9 2,-2 5,-3 7,-5 2,-1 3,-3 7,-3 2,7 3,4 4,12 1,2 2,3 3,5l1 4c1,1 1,1 2,2l3 5c3,6 7,10 12,14 4,5 8,8 13,12l10 7c9,5 21,10 32,8 7,0 9,-1 13,-4 3,-4 3,-8 3,-14 0,-5 0,-11 -1,-16 -1,-4 -1,-4 -1,-8 0,-4 -2,-9 -4,-13 -3,-9 -8,-19 -17,-23l-3 -1c0,0 1,1 0,-1 -2,-2 -4,-2 -6,-3 -2,0 -6,-2 -7,-2 -2,-1 -3,0 -5,-1 -1,0 0,0 -1,0l-1 -1c-2,-1 -7,-1 -8,-1l-3 -1c0,0 -2,0 -3,0 -2,0 -3,0 -5,-1 -2,0 -3,0 -5,-1 -2,0 -4,0 -5,-1 0,-1 0,0 0,-1l10 -18c2,-5 3,-22 1,-28 0,-2 -1,-3 -2,-6 -2,-9 -5,-12 -10,-19l-8 -7c-2,-1 -3,-2 -5,-3 -7,-5 -10,-7 -20,-9 -3,0 -3,-1 -5,-1 -7,-2 -27,-3 -34,-1 -5,0 -18,3 -21,4 -4,3 -8,2 -14,6l0 3c7,4 15,1 27,3 3,1 14,6 16,7 2,2 3,3 5,4l12 9c1,1 1,1 1,1 3,5 1,3 8,9 1,1 1,0 2,2l1 3c1,2 2,4 3,5 0,2 0,3 1,4 0,0 0,0 0,1 2,1 1,0 2,1z"/>
  <path class="fil4" d="M2262 256c-1,-3 -4,-3 -6,-4 -10,-4 -32,-6 -42,-3 -3,1 -5,2 -8,2 -3,1 -5,2 -6,4 1,1 1,2 2,2 4,1 9,0 12,0l6 2c5,2 14,7 17,10l8 8c2,1 3,5 4,7l2 5c1,7 2,12 -1,18 -3,5 -6,9 -10,12 -1,1 -1,1 -3,1 -2,2 -2,2 -4,4l-4 4c-1,1 -5,3 -8,6l-5 4c-1,3 -4,5 -6,7l-7 12c-2,3 -3,5 -4,7l-3 8c0,0 0,0 0,0l-1 5c-4,11 -7,44 -4,55 1,5 0,10 2,16l5 15c0,0 0,0 0,0l0 1c2,2 2,7 4,10l1 4c1,3 -1,-2 0,1 1,0 1,1 1,1l1 3c0,1 0,0 1,1 1,4 2,8 4,12 0,1 1,2 1,3 2,2 2,5 4,7 0,1 0,-1 1,3 1,2 0,1 1,2l5 12c12,22 8,28 12,41 1,5 1,11 0,16 0,2 0,6 -1,8 0,2 0,-1 -1,3 -1,3 -1,6 -3,10l-2 6c0,0 0,0 0,0l-6 11c-1,2 -2,4 -3,6 -2,2 -3,2 -3,6 2,1 9,3 12,2 4,-2 9,-14 11,-17l4 -10c1,-2 4,-11 4,-15 1,-3 1,-3 2,-6 0,-5 0,-23 -1,-28 -1,-3 -1,-2 -1,-5 -1,-3 -1,-5 -1,-7 -1,-7 -9,-24 -12,-31l-12 -22c-4,-7 -7,-15 -9,-23 -1,-1 -1,-1 -2,-2l-7 -36c-2,-8 -2,-18 -2,-26l3 -18c1,-6 2,-12 4,-17 2,-5 5,-9 7,-14 1,-3 7,-9 9,-12 7,-7 15,-13 22,-19 2,-2 7,-5 10,-5 1,3 2,6 4,9l6 9c1,2 2,3 3,4 3,3 6,6 10,8l2 2c3,2 9,6 12,7 0,0 0,0 1,0 9,2 18,7 26,0 4,-3 3,-7 2,-14 0,-2 0,-4 0,-6 -1,-6 -4,-15 -7,-19 -2,-2 -3,-2 -4,-4 -2,-2 -6,-2 -8,-4l-4 -2c-2,0 -4,0 -6,-1 -7,-1 -16,-2 -23,-2 0,-1 -1,0 0,-2l1 -1c1,-1 1,-1 1,-2 2,-3 2,-2 4,-6 3,-8 3,-5 2,-17 0,-2 0,-2 0,-4 -6,-13 -5,-7 -9,-11 -1,-3 0,-1 -2,-3 -1,-1 -4,-4 -5,-4z"/>
  <path class="fil1" d="M2036 111l-5 448c4,102 162,321 197,352 32,-26 171,-252 174,-346l4 -453 -42 -1c-16,186 71,510 -46,525 -159,-34 -158,5 -212,4 -64,-2 -16,-356 -36,-530l-34 1zm91 563l55 122 84 -4 64 -116c-81,-29 -31,-13 -95,-7 -69,7 -33,-24 -108,5z"/>
  <path class="fil2" d="M625 661c0,48 -12,91 -36,129 -25,38 -61,68 -108,89 -47,21 -103,32 -168,32 -77,0 -142,-15 -192,-44 -36,-21 -65,-50 -87,-85 -23,-35 -34,-69 -34,-102 0,-20 7,-36 20,-50 14,-13 31,-20 51,-20 17,0 32,5 43,16 12,10 22,26 30,47 10,25 21,46 32,63 12,17 28,31 49,42 22,11 49,16 84,16 47,0 85,-11 115,-33 29,-22 44,-49 44,-82 0,-26 -8,-48 -23,-64 -16,-16 -37,-28 -62,-37 -25,-9 -59,-18 -102,-28 -56,-13 -103,-28 -141,-46 -39,-17 -69,-42 -91,-72 -22,-31 -34,-69 -34,-115 0,-43 12,-81 36,-115 23,-34 57,-60 102,-77 44,-18 97,-27 158,-27 48,0 90,6 125,18 35,12 65,28 88,48 24,19 41,40 51,62 11,21 16,43 16,64 0,19 -7,36 -20,51 -14,15 -30,23 -50,23 -18,0 -32,-5 -42,-14 -9,-9 -20,-24 -31,-45 -14,-30 -31,-53 -51,-69 -20,-17 -52,-25 -97,-25 -41,0 -74,9 -99,27 -26,18 -38,39 -38,65 0,16 4,29 13,41 9,12 21,21 36,29 15,9 30,15 45,20 16,4 41,11 76,20 45,10 85,22 121,34 36,13 66,28 91,46 25,18 45,40 59,68 14,27 21,61 21,100zm245 -263l0 17c28,-33 56,-58 86,-75 30,-16 64,-24 101,-24 45,0 86,12 124,35 39,24 69,58 91,103 22,44 33,97 33,158 0,45 -7,87 -20,125 -13,37 -30,69 -52,95 -22,25 -48,45 -78,59 -31,13 -63,20 -98,20 -42,0 -77,-9 -105,-25 -29,-17 -56,-42 -82,-74l0 220c0,64 -23,96 -70,96 -28,0 -46,-8 -55,-24 -9,-17 -13,-41 -13,-73l0 -632c0,-28 6,-49 18,-63 12,-14 29,-21 50,-21 21,0 37,7 51,22 13,14 19,34 19,61zm287 213c0,-39 -6,-72 -17,-100 -12,-28 -28,-49 -49,-64 -21,-15 -44,-22 -70,-22 -40,0 -74,16 -102,48 -28,32 -42,78 -42,140 0,59 14,104 41,136 28,33 62,49 103,49 24,0 47,-7 68,-21 20,-14 37,-35 50,-64 12,-29 18,-63 18,-102zm411 89l0 122c0,30 -7,52 -21,67 -14,15 -31,22 -53,22 -21,0 -39,-8 -52,-23 -14,-15 -21,-37 -21,-66l0 -408c0,-66 24,-99 72,-99 24,0 42,8 53,23 10,16 16,38 18,68 17,-30 35,-52 54,-68 18,-15 43,-23 73,-23 31,0 61,8 90,23 29,16 43,36 43,62 0,17 -6,32 -18,44 -13,12 -26,17 -40,17 -5,0 -18,-3 -39,-10 -21,-6 -39,-9 -54,-9 -22,0 -39,5 -53,17 -14,11 -25,28 -32,50 -7,22 -12,48 -15,79 -3,31 -5,68 -5,112zm1439 128l0 -18c-18,22 -36,40 -56,55 -19,15 -40,26 -63,34 -23,7 -49,11 -78,11 -36,0 -68,-8 -95,-22 -28,-15 -50,-35 -65,-61 -19,-30 -28,-75 -28,-134l0 -290c0,-29 7,-51 20,-66 13,-14 31,-22 53,-22 22,0 40,8 54,22 14,15 20,37 20,66l0 234c0,35 3,63 9,86 6,24 16,42 31,54 15,13 34,20 60,20 25,0 48,-8 70,-22 21,-15 37,-34 47,-58 8,-20 12,-65 12,-136l0 -178c0,-29 7,-51 21,-66 13,-14 31,-22 53,-22 22,0 40,8 53,22 14,15 20,37 20,66l0 424c0,28 -6,49 -19,63 -13,14 -29,21 -49,21 -20,0 -37,-7 -50,-22 -13,-14 -20,-34 -20,-61zm290 -500l17 0 0 -88c0,-23 0,-41 1,-55 1,-14 5,-25 11,-35 6,-10 14,-18 25,-24 10,-7 22,-10 36,-10 19,0 36,7 51,21 10,10 16,21 19,34 2,13 4,32 4,57l0 100 53 0c20,0 36,5 47,15 11,10 16,23 16,38 0,20 -7,34 -23,41 -15,8 -37,12 -66,12l-27 0 0 269c0,23 1,40 3,53 1,12 6,22 13,30 7,8 18,12 33,12 9,0 21,-2 35,-5 15,-3 26,-4 34,-4 12,0 23,5 32,14 10,10 15,21 15,35 0,24 -13,42 -39,54 -25,13 -62,19 -111,19 -46,0 -81,-8 -105,-23 -24,-16 -39,-37 -47,-64 -7,-27 -10,-63 -10,-109l0 -281 -20 0c-21,0 -37,-5 -48,-15 -11,-10 -16,-22 -16,-38 0,-15 6,-28 17,-38 12,-10 29,-15 50,-15zm854 392c0,40 -10,75 -30,104 -19,28 -49,50 -87,65 -39,15 -85,22 -140,22 -53,0 -98,-8 -135,-24 -38,-16 -65,-37 -83,-61 -18,-24 -27,-48 -27,-72 0,-16 5,-30 17,-41 11,-12 26,-18 43,-18 16,0 27,4 36,11 8,8 16,18 24,32 14,27 32,46 53,59 22,13 50,19 86,19 29,0 53,-6 72,-19 19,-14 28,-29 28,-45 0,-26 -10,-45 -29,-57 -19,-11 -52,-23 -96,-34 -51,-12 -92,-25 -123,-39 -32,-14 -57,-32 -76,-55 -19,-22 -29,-50 -29,-83 0,-29 9,-57 27,-83 17,-26 43,-46 77,-62 34,-16 75,-24 124,-24 38,0 72,4 102,12 30,8 55,19 75,32 20,13 36,28 46,44 11,16 16,32 16,47 0,17 -5,31 -17,42 -11,10 -27,16 -47,16 -15,0 -28,-5 -38,-13 -11,-9 -23,-22 -37,-39 -11,-14 -24,-25 -39,-34 -15,-9 -36,-13 -61,-13 -27,0 -49,5 -66,17 -18,11 -27,25 -27,42 0,15 7,28 20,38 13,10 30,18 52,24 22,6 52,14 90,24 45,11 83,24 112,39 29,16 50,34 65,55 15,21 22,45 22,72z"/>
 </g>
</svg>
