<?xml version="1.0" encoding="utf-8"?>
<!-- Generator: Adobe Illustrator 25.2.3, SVG Export Plug-In . SVG Version: 6.00 Build 0)  -->
<svg version="1.1" id="Capa_1" xmlns="http://www.w3.org/2000/svg" xmlns:xlink="http://www.w3.org/1999/xlink" x="0px" y="0px"
	 viewBox="0 0 512 512" style="enable-background:new 0 0 512 512;" xml:space="preserve">
<style type="text/css">
	.st0{fill:#FFFFFF;}
</style>
<path class="st0" d="M498.1,81.4L432.5,4.9c-0.1-0.1-0.3-0.3-0.4-0.4c-5.7-5.7-15-6.1-21.1-0.8l-52.3,45.1
	c-6.4,5.5-7.1,15.2-1.6,21.6l2,2.4l-3.4,2.9c-8.9,7.7-22.4,10-36,6.2c-0.3-0.1-39-11.1-39.3-11.1c-7.1-1.6-25.3-4.2-42.8,7
	c-0.3,0.2-100.2,57.3-100.5,57.5c-27.2,17.7-14.1,48.3,6.6,51.6c0.9,24.2,31.4,35.3,47.6,16.6c40-46.2,38.7-44.2,40.8-48.5l1.5-0.6
	c2,7.5,7.5,14.9,18.6,18.1c46.8,13.3,56.2,17,69.1,15.6c36.3-3.9,44.6-5.1,62.8-15.6c13.1-7.6,25.9-16.4,38.1-26.3l2.2,2.6
	c5.6,6.4,15.2,7.1,21.6,1.6l49.8-43C503.8,100.8,504.7,89.1,498.1,81.4z M180.1,193.8c-7.5,8.7-21.7,2.9-21.2-8.3l44.3-18.3
	L180.1,193.8z M376.9,159.6c-15.5,8.9-20.8,9.8-56.8,13.7c-9.9,1.1-17.7-2-63.6-15.1c-5.9-1.7-7.4-4.8-8.1-7c-0.9-3-0.3-5.9-0.3-5.9
	c0.4-1.6,1.1-3,1.8-4.1c1.1-1.5,2.8-3,6.8-2.4c14.2,2,48,6.5,48.3,6.5c4.1,0.5,7.9-2.3,8.4-6.4c0.5-4.1-2.3-7.9-6.4-8.4
	c-0.3,0-34.1-4.6-48.3-6.5c-13.3-1.8-21.1,6.4-24.2,14.1l-10.9,4.5c0,0-66.6,27.8-73.3,29.7c-12.1,1.7-20.3-14-5.2-24.1l100.1-57.3
	l0,0c0.1-0.1,0.2-0.1,0.4-0.2c12.5-8.2,25.9-6.4,31.2-5.1l38.7,11c18.5,5.2,37.1,1.8,49.9-9.3l3.4-2.9c5.7,6.6,38.7,44.8,43.8,50.7
	C401.2,144.2,389.2,152.5,376.9,159.6z M486.3,96.1c-0.4,0.3-49.9,43.3-50.2,42.9c-0.3-0.4-68-78.5-67.6-78.8l52.3-45.1l0,0
	c0.1-0.1,0.2-0.1,0.4-0.1c0.1,0,0.2,0,0.3,0.1l65.3,76.1C487.9,92.6,487.8,94.9,486.3,96.1z M369.6,325.4
	c-0.9-24.2-31.4-35.3-47.6-16.6l-37,42.8c-1.5,1.7-2.8,3.6-3.8,5.7l-1.5,0.6c-2-7.5-7.5-14.9-18.6-18.1c-49.2-14-55.6-16.7-69-15.6
	H192c-36.3,3.9-44.6,5.1-62.8,15.6c-13.1,7.6-25.9,16.4-38.1,26.3l-2.2-2.6c-5.5-6.4-15.2-7.1-21.6-1.6l-52.5,45.3
	c-3,2.6-4.8,6.2-5.1,10.2s1,7.8,3.7,10.8L82.3,507c5.2,5.9,14.2,6.6,20.1,1.7l0.1-0.1l52.3-45.1c6.4-5.5,7.1-15.2,1.6-21.6l-2-2.4
	l3.4-2.9c8.9-7.7,22.4-10,36-6.2l38,10.8c4,1.1,8.1-1.2,9.3-5.2c1.1-4-1.2-8.1-5.2-9.3l-38-10.8c-18.5-5.2-37.1-1.8-49.9,9.3
	l-3.4,2.9l-28.9-33.4l-14.9-17.2c11.5-9.3,23.5-17.6,35.8-24.7c15.6-9,20.8-9.8,56.9-13.7c10.2-0.9,15.8,1.5,63.5,15.1
	c5.9,1.7,7.4,4.8,8.1,7c0.9,3,0.3,5.9,0.3,5.9c-0.4,1.6-1.1,3-1.8,4.1c-1.1,1.5-2.8,3-6.8,2.4c-14.2-2-48-6.5-48.3-6.5
	c-4.1-0.5-7.9,2.3-8.4,6.4s2.3,7.9,6.4,8.4c0.3,0,34.1,4.6,48.3,6.5c1.3,0.2,2.5,0.3,3.7,0.3c11,0,17.7-7.4,20.5-14.4l10.9-4.5
	c0,0,64.5-26.5,65.3-27c4.3-2.2,6.9-2.5,8-2.8c12.1-1.7,20.3,14,5.2,24.1c-105.4,60.3-103,59-103,59c-3.6,2-5,6.5-3,10.2
	c2,3.6,6.5,5,10.2,3l103.8-59.5C403.4,359.2,390.4,328.7,369.6,325.4z M145,451.6c0.4,0.4-51.4,44.8-51.8,45.2l-68.7-78.3l52.4-45.2
	c0,0,0.1-0.1,0.2-0.1s0.2,0.1,0.2,0.1L145,451.6z M310.3,345.2l23.1-26.7c7.4-8.5,21.7-3.1,21.2,8.3L310.3,345.2z M312.6,266.3
	c-4-1.2-8.2,1-9.4,5c-6.2,20.1-24.8,33.6-45.5,33.6c-26,0-47.6-21.1-47.6-47.6c0-26.2,21.3-47.6,47.6-47.6
	c19.9,0,37.9,12.6,44.7,31.3c1.4,3.9,5.7,5.9,9.6,4.5s5.9-5.7,4.5-9.6c-9-24.6-32.6-41.1-58.8-41.1c-34.5,0-62.6,28.1-62.6,62.6
	c0,34.8,28.4,62.6,62.6,62.6c27.1,0,51.7-17.6,59.8-44.2C318.8,271.7,316.6,267.5,312.6,266.3z M279,231.2h-15.7
	c2.8,2.2,4.8,5.3,5.3,9.7H279v4.8h-10.3c-1,9.7-8.7,15.9-20.9,16.3c7.4,7.7,15.5,17.4,23.5,27.3h-9.1c-7.4-9-14.4-17.2-23.3-26.8
	v-5.9h5.2c10.3,0,15.8-4.3,16.5-10.9h-21.7v-4.8h21.4c-1.3-5.5-6.4-8.3-14.7-8.3h-6.8v-6.2H279V231.2z"/>
</svg>
