<?xml version="1.0" encoding="utf-8"?>
<!-- Generator: Adobe Illustrator 25.2.3, SVG Export Plug-In . SVG Version: 6.00 Build 0)  -->
<svg version="1.1" id="Layer_1" xmlns="http://www.w3.org/2000/svg" xmlns:xlink="http://www.w3.org/1999/xlink" x="0px" y="0px"
	 viewBox="0 0 512 512" style="enable-background:new 0 0 512 512;" xml:space="preserve">
<style type="text/css">
	.st0{fill:#FFFFFF;}
</style>
<path class="st0" d="M102.2,282.8h34.7c4.7,0,8.5-3.8,8.5-8.5v-33.2c0-4.7-3.8-8.5-8.5-8.5h-34.7c-4.7,0-8.5,3.8-8.5,8.5v33.2
	C93.7,279,97.5,282.8,102.2,282.8z M110.7,249.6h17.7v16.2h-17.7V249.6z"/>
<path class="st0" d="M102.2,349.8h34.7c4.7,0,8.5-3.8,8.5-8.5v-33.2c0-4.7-3.8-8.5-8.5-8.5h-34.7c-4.7,0-8.5,3.8-8.5,8.5v33.2
	C93.7,346,97.5,349.8,102.2,349.8z M110.7,316.6h17.7v16.2h-17.7V316.6z"/>
<path class="st0" d="M227.8,203.9h36.5c4.7,0,8.5-3.8,8.5-8.5v-34.9c0-4.7-3.8-8.5-8.5-8.5h-36.5c-4.7,0-8.5,3.8-8.5,8.5v34.9
	C219.3,200.1,223.1,203.9,227.8,203.9z M236.3,169h19.5v17.9h-19.5V169z"/>
<path class="st0" d="M303.4,203.9H340c4.7,0,8.5-3.8,8.5-8.5v-34.9c0-4.7-3.8-8.5-8.5-8.5h-36.6c-4.7,0-8.5,3.8-8.5,8.5v34.9
	C294.9,200.1,298.7,203.9,303.4,203.9z M311.9,169h19.5v17.9h-19.5V169z"/>
<path class="st0" d="M265.3,225.7h-36.5c-4.7,0-8.5,3.8-8.5,8.5v34.9c0,4.7,3.8,8.5,8.5,8.5h36.5c4.7,0,8.5-3.8,8.5-8.5v-34.9
	C273.8,229.5,270,225.7,265.3,225.7z M256.8,260.6h-19.5v-17.9h19.5V260.6z"/>
<path class="st0" d="M340.9,225.7h-36.5c-4.7,0-8.5,3.8-8.5,8.5v34.9c0,4.7,3.8,8.5,8.5,8.5h36.5c4.7,0,8.5-3.8,8.5-8.5v-34.9
	C349.4,229.5,345.6,225.7,340.9,225.7z M332.4,260.6h-19.5v-17.9h19.5V260.6z"/>
<path class="st0" d="M473.6,303.2c-5.8-20-16.3-41-28-56.2c-7.4-9.7-16.6-19.6-28.3-19.6c0,0,0,0,0,0c-9.9,0-17.8,6.9-24.9,15.3
	V110.5l2.5,0c13.7,0,24.8-11.1,24.8-24.8S408.6,61,394.9,61H171.5c-13.7,0-24.8,11.1-24.8,24.8s11.1,24.8,24.8,24.8h2.5v38H58.6
	c-14,0-25.5,11.4-25.5,25.5c0,11.7,7.9,21.6,18.7,24.6v235h-3.8c-4.7,0-8.5,3.8-8.5,8.5c0,4.7,3.8,8.5,8.5,8.5h378.7
	c4.7,0,8.5-3.8,8.5-8.5c0-4.5-3.6-8.2-8-8.5v-40.9c27.4-2.3,39.9-15.9,45.6-27.5C482.6,345.4,478.7,320.6,473.6,303.2z M58.6,165.5
	H174v17H58.6c-4.7,0-8.5-3.8-8.5-8.5C50.1,169.3,53.9,165.5,58.6,165.5z M174,433.6H68.9V199.4H174V433.6z M272,433.6h-29.9v-89H272
	V433.6z M319,433.6H289v-89H319V433.6z M375.4,433.6H336V336c0-4.7-3.8-8.5-8.5-8.5h-93.9c-4.7,0-8.5,3.8-8.5,8.5v97.5h-34V110.5
	h58.3c4.7,0,8.5-3.8,8.5-8.5c0-4.7-3.8-8.5-8.5-8.5h-77.8c-4.2,0-7.8-3.6-7.8-7.8c0-4.3,3.5-7.8,7.8-7.8h223.4
	c4.3,0,7.8,3.5,7.8,7.8c0,4.2-3.6,7.8-7.7,7.8l-77.8,0c0,0,0,0,0,0c-4.7,0-8.5,3.8-8.5,8.5c0,4.7,3.8,8.5,8.5,8.5l58.3,0v157.8
	c-10.2,19.4-16.8,40.9-18,59.4c-1.6,22.8,4.7,40.6,18,51.9V433.6z M410.3,433.6h-17.9v-46c4.2,2.5,9.9,4.3,17.9,5.1V433.6z
	 M457.7,357.7c-5.1,10.4-15.3,16.4-30.4,17.9V340l12.6-12c3.4-3.2,3.5-8.6,0.3-12c-3.2-3.4-8.6-3.5-12-0.3l-0.9,0.8v-27.2
	c0-4.7-3.8-8.5-8.5-8.5c-4.7,0-8.5,3.8-8.5,8.5v15.4l-0.8-0.8c-3.4-3.2-8.8-3.1-12,0.3c-3.2,3.4-3.1,8.8,0.3,12l12.6,12v11.1
	l-6.9-4.9c-3.8-2.7-9.1-1.8-11.9,2c-2.7,3.8-1.8,9.1,2,11.8l16.7,11.9v15.4c-15.6-1.6-26.2-8-31.6-18.9c-10.5-21.2-1.6-54.9,11.6-80
	c0.1-0.1,0.1-0.3,0.2-0.4c3.7-7,7.7-13.3,11.7-18.5c8.5-11,13-13.4,15.2-13.4h0c2.2,0,6.6,2.2,14.8,12.9
	C451.3,282.2,470.8,331,457.7,357.7z"/>
<path class="st0" d="M283.4,93.5h-0.2c-4.7,0-8.5,3.8-8.5,8.5c0,4.7,3.8,8.5,8.5,8.5h0.2c4.7,0,8.5-3.8,8.5-8.5
	C291.9,97.3,288.1,93.5,283.4,93.5z"/>
</svg>
