<?xml version="1.0" encoding="utf-8"?>
<!-- Generator: Adobe Illustrator 25.2.3, SVG Export Plug-In . SVG Version: 6.00 Build 0)  -->
<svg version="1.1" id="Layer_1" xmlns="http://www.w3.org/2000/svg" xmlns:xlink="http://www.w3.org/1999/xlink" x="0px" y="0px"
	 viewBox="0 0 512 512" style="enable-background:new 0 0 512 512;" xml:space="preserve">
<style type="text/css">
	.st0{fill:#FFFFFF;}
</style>
<g>
	<path class="st0" d="M484.8,226.6L202.1,63.4c-16.9-9.7-38.5-3.9-48.3,12.9l-32.6,56.4l-21.7,37.5c-9.7,16.9-3.9,38.5,12.9,48.3
		l96.9,56l-15.1,25.7c-4.1,6.9-11.5,11.2-19.5,11.2h-56.6v-43.1c0-3.5-2.8-6.3-6.3-6.3H77.5v-8.2c0-15.5-12.6-28.1-28.1-28.1h-19
		c-3.5,0-6.3,2.8-6.3,6.3c0,0,0,0,0,0v215c0,3.5,2.8,6.3,6.3,6.3c0,0,0,0,0,0h19c15.5,0,28.1-12.6,28.1-28.1v-20.2h34.4
		c3.5,0,6.3-2.8,6.3-6.3v-31.2h56.6c28-0.1,53.8-14.9,68-39l15.3-26l53.1,30.7c5.4,3.1,11.4,4.7,17.6,4.7c3.1,0,6.2-0.4,9.2-1.2
		c5.8-1.5,11.1-4.5,15.4-8.7c7,3.2,14.5,4.9,22.2,4.9c4.7,0,9.4-0.6,13.9-1.8c11.6-3.1,21.8-10,28.9-19.6l13,7.5
		c3,1.8,6.9,0.7,8.7-2.3c0,0,0,0,0,0l47.1-81.5C488.9,232.3,487.9,228.4,484.8,226.6C484.8,226.6,484.8,226.6,484.8,226.6z
		 M64.8,425.3c0,8.5-6.9,15.4-15.4,15.4H36.7V238.3h12.7c8.5,0,15.4,6.9,15.4,15.4V425.3z M105.6,392.4H77.5V274.6h28.1V392.4z
		 M231.9,322.2c-11.9,20.2-33.6,32.6-57.1,32.7h-56.6v-30.8h56.6c12.5,0,24.1-6.7,30.5-17.5l15.1-25.8l26.7,15.4L231.9,322.2z
		 M317.6,322.3L118.9,207.5c-10.8-6.3-14.5-20.1-8.3-31l18.5-32l182.2,105.2l55.8,32.2l-18.5,32l0,0c-0.5,0.8-1,1.6-1.6,2.4v0
		C340,325.5,327.5,328,317.6,322.3z M386.3,319c-8.3,2.2-17.1,1.8-25.1-1.3l16.9-29.3l29.3,16.9C402,311.9,394.6,316.7,386.3,319
		L386.3,319z M432.3,305l-41-23.7l-12.4-7.1l-140.1-80.9l-103.4-59.7l29.4-50.9c6.3-10.8,20.1-14.5,31-8.3L473,234.5L432.3,305z"/>
	<path class="st0" d="M405.2,270.5c3.7,2.1,7.9,3.3,12.2,3.3c2.1,0,4.3-0.3,6.4-0.8c13-3.5,20.7-16.9,17.3-29.9
		c-3.5-13-16.9-20.7-29.9-17.3c-13,3.5-20.7,16.9-17.3,29.9C395.5,261.9,399.6,267.2,405.2,270.5z M407.2,243.5
		c1.6-2.7,4.1-4.6,7.1-5.4c1-0.3,2-0.4,3-0.4c6.5,0,11.7,5.2,11.7,11.7c0,6.5-5.2,11.7-11.7,11.7c-6.5,0-11.7-5.2-11.7-11.7
		C405.7,247.3,406.2,245.3,407.2,243.5L407.2,243.5z"/>
	<path class="st0" d="M188.9,206.2l-52-30c-3-1.8-6.9-0.8-8.7,2.3c-1.8,3-0.8,6.9,2.3,8.7c0,0,0,0,0.1,0l52,30
		c3.1,1.6,6.9,0.4,8.6-2.7C192.7,211.6,191.7,208,188.9,206.2z"/>
</g>
</svg>
