<?xml version="1.0" encoding="utf-8"?>
<!-- Generator: Adobe Illustrator 25.2.3, SVG Export Plug-In . SVG Version: 6.00 Build 0)  -->
<svg version="1.1" id="Capa_1" xmlns="http://www.w3.org/2000/svg" xmlns:xlink="http://www.w3.org/1999/xlink" x="0px" y="0px"
	 viewBox="0 0 512 512" style="enable-background:new 0 0 512 512;" xml:space="preserve">
<style type="text/css">
	.st0{fill:#FFFFFF;}
</style>
<g>
	<g>
		<path class="st0" d="M364.6,192.9L305.9,43.1c-3.3-8-12.3-11.9-20.3-8.8L135.8,93c-8.1,3.2-12,12.3-8.8,20.3l59.1,149.7
			c3.2,8.1,12.3,12,20.3,8.8l149.3-58.7C363.8,210,367.8,200.9,364.6,192.9z M201.8,254.7L144.6,109l145.7-57.3l57.3,145.8
			L201.8,254.7z"/>
	</g>
</g>
<g>
	<g>
		<path class="st0" d="M220,286.9H59.6c-8.7,0-15.7,7-15.7,15.7V463c0,8.7,7,15.7,15.7,15.7H220c8.7,0,15.7-7,15.7-15.7V302.6
			C235.6,293.9,228.6,286.9,220,286.9z M218,461H61.5V304.5H218V461z"/>
	</g>
</g>
<g>
	<g>
		<path class="st0" d="M456.8,286l-155-41.2c-8.5-2.1-17,3-19.2,11.5l-41.2,155c-2.2,8.4,2.7,17,11.1,19.2c0,0,0,0,0,0l155,41.2
			c8.4,2.2,17-2.7,19.2-11.1c0,0,0,0,0,0l40.9-155.4C469.8,296.9,465,288.4,456.8,286z M410.2,453.4l-151.3-39.7l40.3-151.2
			l151.2,40.3L410.2,453.4z"/>
	</g>
</g>
<g>
	<g>
		<path class="st0" d="M298.4,170.5c-1.6-3-3.7-5.8-6.3-8.1l-44-46.4l-5.2-5.6c-1.3-1.4-2.8-2.6-4.3-3.6c-1.6-1.1-3.4-1.8-5.3-2
			c-4.5-0.3-8.9,1.4-12,4.8c-1.2,1.5-2.1,3.2-2.5,5.1c-0.4,2.2-0.7,4.4-0.6,6.7c0,2.6,0,4.8,0,6.6V192c0.2,2.6,0.3,4.7,0.4,6.1
			c0.1,1.3,0.3,2.6,0.8,3.9c0.9,2.1,2.6,3.7,4.7,4.4c2.1,0.9,4.5,0.9,6.7,0c2.2-0.6,3.9-2.3,4.7-4.4c0.7-3.4,0.9-6.9,0.7-10.3v-12.6
			l34.8-13.7l8.3,8.8l3.8,3.8c1.1,1.1,2.3,2.1,3.6,3c1,0.6,2.1,1,3.3,1.1c1.3,0.1,2.6-0.1,3.8-0.6c2.1-0.9,3.7-2.5,4.7-4.5
			C299.3,174.9,299.3,172.6,298.4,170.5z M235.5,164.1l-1.2-40L261,154L235.5,164.1z"/>
	</g>
</g>
<g>
	<g>
		<path class="st0" d="M161.7,375.9c8.4-3.1,13.9-11.2,13.7-20.2c0-2.6-0.4-5.1-1.3-7.6c-0.9-2.4-2.1-4.6-3.8-6.6
			c-1.6-2-3.6-3.6-5.7-4.9c-2.7-1.6-5.7-2.7-8.8-3.2c-3.8-0.6-7.6-0.8-11.4-0.8h-29.2c-3.2-0.3-6.3,0.6-8.8,2.6
			c-2,2.5-3,5.6-2.6,8.8v69.1c-0.3,3.2,0.6,6.3,2.6,8.8c2.5,2.1,5.7,3.1,8.9,2.7h28.1c4.1-0.1,8.2-0.5,12.2-1.1
			c3.3-0.4,6.6-1.2,9.7-2.5c4.3-1.8,8.1-4.9,10.7-8.8c2.7-4.2,4-9,4-13.9C180.1,387.5,172.4,378,161.7,375.9z M122.5,346.9h14.7
			c5.1-0.3,10.2,0.5,15.1,2.3c3.3,1.6,5.3,5.1,4.9,8.8c0,2.1-0.5,4.1-1.6,5.9c-1.2,2.4-3.3,4.2-5.8,5c-3.5,1-7.1,1.5-10.7,1.3h-17
			L122.5,346.9z M160.9,397.2c0,9-6.3,13.6-18.9,13.6h-20l0.4-26.8h19.1c5.1-0.3,10.1,0.8,14.6,3.2
			C159.5,389.4,161.3,393.2,160.9,397.2z"/>
	</g>
</g>
<g>
	<g>
		<path class="st0" d="M398.8,332.1c-2.2-5.6-5.8-10.5-10.5-14.3c-5.1-4.3-11.1-7.3-17.6-8.8c-5.7-1.6-11.7-2-17.6-1.3
			c-5.7,0.7-11.1,2.6-16,5.5c-5.1,3.1-9.4,7.3-12.8,12.2c-3.8,5.6-6.6,11.8-8.2,18.3c-1.1,4.2-1.9,8.5-2.1,12.8
			c-0.2,4,0,8.1,0.8,12.1c0.7,3.8,1.9,7.4,3.5,10.9c1.7,3.6,4,6.8,6.7,9.7c2.7,2.8,5.9,5.1,9.3,7c3.9,2.1,8.1,3.6,12.4,4.8
			c5.5,1.6,11.3,2,17,1.3c4.8-0.7,9.4-2.5,13.5-5.1c3.4-2.1,6.4-4.8,8.8-7.9c2.1-2.6,3.6-5.6,4.5-8.8c0.6-2.1,0.3-4.3-0.8-6.2
			c-1.1-1.9-2.9-3.2-4.9-3.7c-2-0.7-4.3-0.4-6.1,0.8c-1.7,1.4-3.2,3.1-4.3,4.9c-2.7,4-6.6,7-11.1,8.8c-4.6,1.5-9.5,1.5-14.1,0
			c-4.2-0.8-8-2.7-11.2-5.5c-3.1-3.5-5-7.8-5.5-12.4c-0.6-5.9,0-11.9,1.7-17.6c1.6-8.8,6.1-16.9,12.9-22.8
			c5.6-4.4,13.1-5.8,19.9-3.7c4.2,1,8,3.2,10.8,6.3c2.8,3.5,4.8,7.7,5.6,12.1c0.4,2.3,1.3,4.6,2.4,6.7c1.1,1.6,2.8,2.7,4.8,3
			c2,0.6,4.2,0.2,5.9-1c1.8-1.1,3.1-2.8,3.6-4.8C401,340.9,400.6,336.3,398.8,332.1z"/>
	</g>
</g>
</svg>
