<?xml version="1.0" encoding="utf-8"?>
<!-- Generator: Adobe Illustrator 25.2.3, SVG Export Plug-In . SVG Version: 6.00 Build 0)  -->
<svg version="1.1" id="Capa_1" xmlns="http://www.w3.org/2000/svg" xmlns:xlink="http://www.w3.org/1999/xlink" x="0px" y="0px"
	 viewBox="0 0 512 512" style="enable-background:new 0 0 512 512;" xml:space="preserve">
<style type="text/css">
	.st0{fill:#65B94D;}
</style>
<g>
	<g>
		<path class="st0" d="M471.1,353.9c-8.5-12.4-22.8-15.5-38.4-8.1l-8.3,3.6c13-27.8,14.7-58.8,8.2-88c-7.5-33.6-25.5-66.2-53.5-96.8
			c-2.5-2.7-6.7-2.9-9.4-0.4c-2.7,2.5-2.9,6.7-0.4,9.4c26.5,28.9,43.4,59.4,50.3,90.7c7.3,33,3.1,67-15.6,94.1l-82.7,36.4l0.1-9.3
			c0-0.2,0-0.5,0-0.7c-1.9-19.2-16.6-34.5-35.7-37.2c-0.1,0-0.1,0-0.2,0l-73.5-8.5c-28.3-4-35.6-21-73.9-30.6
			c-2.6-22.5,0.9-46.4,10.5-70.3c14.6-36.1,43-71.2,82.5-101.7c14.7,10.4,80.4,11.7,95.1-1.7c7.5,5.7,14.7,11.6,21.4,17.6
			c1.3,1.1,2.8,1.7,4.4,1.7c1.8,0,3.7-0.8,5-2.2c2.4-2.7,2.2-6.9-0.5-9.4c-7.3-6.5-15.2-13-23.5-19.2c1.9-8.2-0.8-17.8-7.9-23.6
			c20.8-31.6,26.9-52.2,18.5-63.1c-5.7-7.4-12.9-3.9-15.9-2.5c-5.2,2.5-8,2.7-12.7-0.5c-9.1-5.9-18.6-6.1-28,0
			c-4.8,3.2-8.6,3.2-13.4,0c-9.1-5.9-18.6-6.1-28,0c-4.8,3.2-7.6,3-12.7,0.4c-3-1.5-10.2-5.1-16,2.4c-8.2,10.5-2.7,30.5,16.7,61
			c-1.2,0.6-2.3,1.4-3.4,2.3c-7.7-8.2-20.4-16.7-38.7-14.6c-15.2,1.7-26.4-3.3-33.1-7.8c-3-2-7.2-1.2-9.2,1.8c-2,3-1.2,7.2,1.8,9.2
			c8.6,5.7,22.8,12.1,41.9,10c14.1-1.6,23.7,5.6,29.7,13c-0.1,0.3-0.2,0.6-0.2,0.9c-5.1,0.1-12.7,0.6-21.1,2.3
			c-20.1,4.2-35.1,13.8-43.3,27.7c-1.9,3.2-0.8,7.2,2.4,9.1c3.2,1.9,7.2,0.8,9.1-2.4c12.1-20.7,41.7-23.2,53.5-23.4
			c0.1,0.1,0.1,0.3,0.2,0.4c-41.9,32.3-71.1,68.4-86.8,107.3c-9.9,24.6-13.9,49.2-11.9,72.6c-6.4-0.9-12.8-1.4-19.3-1.5v-4
			c0-10.6-8.7-19.3-19.3-19.3H55.3c-10.6,0-19.3,8.7-19.3,19.3V455c0,10.6,8.7,19.3,19.3,19.3h30.5c10.6,0,19.3-8.7,19.3-19.3v-1.9
			l66.6,24.8c8.9,3.3,18.3,5,27.9,5h99.2c15.2,0,29.9-4.3,42.8-12.4c132.3-83.9,124.3-78.7,125-79.3
			C477.1,381.7,479.1,365.7,471.1,353.9L471.1,353.9z M313.7,126.8c-24.3,6.1-47.9,6.1-72.2,0c-10.4-2.6-7.4-21.2,3.8-18.4
			c21.7,5.5,42.9,5.5,64.6,0C320.9,105.7,324.3,124.2,313.7,126.8z M226.6,45.9c0.1,0,0.1,0.1,0.2,0.1c9,4.5,16.9,4.7,25.9-1.2
			c11.3-7.4,12.6,4.5,27.4,4.5c7.2,0,11.1-2.6,14-4.5c4.8-3.2,8.6-3.2,13.4,0c9.1,5.9,16.8,5.7,26,1.2c1.4,4.9-1.7,19.6-21.4,49
			c-9.8-0.2-24,9.4-64.2,0.5C228.2,65.7,225.2,50.8,226.6,45.9L226.6,45.9z M458,380.9l-123.7,78.4c-10.7,6.8-23,10.3-35.6,10.3
			h-99.2c-8,0-15.8-1.4-23.2-4.2l-71.2-26.5v-71.6c0-3.7-3-6.6-6.6-6.6s-6.6,3-6.6,6.6V455c0,3.3-2.7,6-6,6H55.3c-3.3,0-6-2.7-6-6
			V300.2c0-3.3,2.7-6,6-6h30.5c3.3,0,6,2.7,6,6v36.1c0,3.7,3,6.6,6.6,6.6s6.6-3,6.6-6.6v-18.8c55,0.4,67.3,29.4,105,34.7
			c0.1,0,0.1,0,0.2,0l73.5,8.5c12.9,1.9,22.8,12.1,24.2,25l-0.1,12.6h-68.6c-3.7,0-6.6,3-6.6,6.6s3,6.6,6.6,6.6h75.2
			c0.8,0,1.8-0.2,2.7-0.6c0.1-0.1,120.8-53.2,120.9-53.2c8.7-3.9,16.6-4.4,22,3.5C464.3,367.5,463.4,375.8,458,380.9z"/>
		<g>
			<path class="st0" d="M322.9,188.9h-35.5c6.2,5,10.8,12.1,12.1,22h23.5v10.8h-23.3c-2.1,21.9-19.6,36-47.1,36.8
				c16.8,17.4,35.1,39.4,53.2,61.6H285c-16.8-20.2-32.5-38.9-52.7-60.5v-13.4h11.8c23.3,0,35.7-9.7,37.2-24.5h-49.1v-10.8h48.4
				c-3-12.5-14.4-18.7-33.2-18.7h-15.3v-14h90.6V188.9z"/>
		</g>
	</g>
</g>
</svg>
