<?xml version="1.0" encoding="utf-8"?>
<!-- Generator: Adobe Illustrator 25.2.3, SVG Export Plug-In . SVG Version: 6.00 Build 0)  -->
<svg version="1.1" id="Capa_1" xmlns="http://www.w3.org/2000/svg" xmlns:xlink="http://www.w3.org/1999/xlink" x="0px" y="0px"
	 viewBox="0 0 512 512" style="enable-background:new 0 0 512 512;" xml:space="preserve">
<style type="text/css">
	.st0{fill:#65B94D;}
</style>
<path id="XMLID_2314_" class="st0" d="M331.5,78.5c2.3,0,4.6-0.9,6.3-2.6c1.6-1.6,2.6-3.9,2.6-6.3c0-2.3-0.9-4.6-2.6-6.3
	c-1.6-1.6-3.9-2.6-6.3-2.6c-2.3,0-4.6,0.9-6.3,2.6c-1.6,1.6-2.6,3.9-2.6,6.3c0,2.3,0.9,4.6,2.6,6.3S329.2,78.5,331.5,78.5z
	 M369.3,422.8c-8,0-15.8,1.9-22.8,5.4c-9.3-8.5-19.5-15.5-30.5-21c14.9-5,28.7-13.3,40.1-24.7c25.8-25.8,36-63.8,26.6-99.1
	c-0.8-3.1-3.2-5.4-6.3-6.3c-35.3-9.4-73.3,0.8-99.1,26.6c-4.7,4.7-8.8,9.7-12.4,15.1v-58.4c26.6-2,52.6-13.2,72.9-33.5
	c16.7-16.7,27.8-37.9,32-61.1c4.1-22.7,1.4-45.8-7.7-66.8c-1.9-4.5-7.2-6.5-11.6-4.6c-4.5,1.9-6.5,7.2-4.6,11.6
	c16.2,37.2,8.1,79.7-20.6,108.3C306.2,233.5,281.1,243,256,243c-25.1,0-50.2-9.5-69.3-28.6c-38.2-38.2-38.2-100.3,0-138.5
	c28.7-28.7,71.2-36.7,108.3-20.6c4.5,1.9,9.7-0.1,11.6-4.6c1.9-4.5-0.1-9.7-4.6-11.6c-21.1-9.2-44.2-11.8-66.8-7.7
	c-23.2,4.2-44.3,15.3-61.1,32c-45.1,45.1-45.1,118.5,0,163.5c20.3,20.3,46.3,31.5,72.9,33.5v58.4c-3.6-5.4-7.8-10.4-12.4-15.1
	c-25.8-25.8-63.8-36-99.1-26.6c-3.1,0.8-5.4,3.2-6.3,6.3c-9.4,35.3,0.8,73.3,26.6,99.1c11.4,11.4,25.2,19.8,40.1,24.7
	c-11,5.5-21.2,12.5-30.5,21c-7.1-3.6-14.8-5.4-22.8-5.4c-28.1,0-50.9,22.8-50.9,50.9c0,4.9,4,8.8,8.8,8.8h310.7c4.9,0,8.8-4,8.8-8.8
	C420.2,445.6,397.4,422.8,369.3,422.8L369.3,422.8z M289.8,316.1c20.1-20.1,49.2-28.8,77-23.2c5.6,27.8-3,56.8-23.2,77
	c-17.5,17.5-41.7,26.3-65.9,24.7l38.2-38.2c3.5-3.5,3.5-9.1,0-12.5c-3.5-3.5-9.1-3.5-12.5,0l-38.2,38.2
	C263.5,357.9,272.3,333.6,289.8,316.1L289.8,316.1z M145.2,293c27.8-5.6,56.8,3,77,23.2c17.5,17.5,26.3,41.7,24.7,65.9l-38.2-38.2
	c-3.5-3.5-9.1-3.5-12.5,0c-3.5,3.5-3.5,9.1,0,12.5l38.2,38.2c-1.9,0.1-3.8,0.2-5.7,0.2c-22.3,0-44.1-8.8-60.2-24.9
	C148.3,349.8,139.6,320.7,145.2,293L145.2,293z M110.7,464.8c3.9-14,16.8-24.3,32-24.3c6.9,0,13.4,2.1,19,6c3.5,2.5,8.3,2,11.4-1
	c22.1-22.4,51.5-34.7,82.9-34.7s60.8,12.3,82.9,34.7c3,3.1,7.8,3.5,11.4,1c5.6-3.9,12.2-6,19-6c15.2,0,28.1,10.3,32,24.3
	L110.7,464.8z M299.6,94.6h-34.2c6,4.8,10.4,11.6,11.6,21.1h22.6v10.4h-22.4c-2.1,21.1-18.8,34.6-45.3,35.4
	c16.2,16.8,33.8,37.9,51.1,59.2h-19.9c-16.2-19.5-31.3-37.5-50.7-58.2v-12.8h11.4c22.4,0,34.4-9.3,35.8-23.6h-47.2v-10.4H259
	c-2.9-12-13.9-18-31.9-18h-14.7V84.3h87.2V94.6z"/>
</svg>
