<?xml version="1.0" encoding="utf-8"?>
<!-- Generator: Adobe Illustrator 25.2.3, SVG Export Plug-In . SVG Version: 6.00 Build 0)  -->
<svg version="1.1" id="Layer_1" xmlns="http://www.w3.org/2000/svg" xmlns:xlink="http://www.w3.org/1999/xlink" x="0px" y="0px"
	 viewBox="0 0 512 512" style="enable-background:new 0 0 512 512;" xml:space="preserve">
<style type="text/css">
	.st0{fill:#FFFFFF;}
</style>
<path class="st0" d="M256,103.5c4.8,0,8.7-3.9,8.7-8.7c0-4.8-3.9-8.7-8.7-8.7s-8.7,3.9-8.7,8.7C247.3,99.6,251.2,103.5,256,103.5z"
	/>
<path class="st0" d="M386,451.9V60.1c0-14.3-11.7-26-26-26H152c-14.3,0-26,11.7-26,26v391.7c0,14.3,11.7,26,26,26h208
	C374.3,477.9,386,466.2,386,451.9z M152,51.5h208c4.8,0,8.7,3.9,8.7,8.7v26h-78c-4.8,0-8.7,3.9-8.7,8.7s3.9,8.7,8.7,8.7h78v287.7
	H143.3V103.5h78c4.8,0,8.7-3.9,8.7-8.7s-3.9-8.7-8.7-8.7h-78v-26C143.3,55.4,147.2,51.5,152,51.5z M360,460.5H152
	c-4.8,0-8.7-3.9-8.7-8.7v-43.3h225.3v43.3C368.7,456.6,364.8,460.5,360,460.5z"/>
<path class="st0" d="M273.3,425.9h-34.7c-4.8,0-8.7,3.9-8.7,8.7c0,4.8,3.9,8.7,8.7,8.7h34.7c4.8,0,8.7-3.9,8.7-8.7
	C282,429.7,278.1,425.9,273.3,425.9z"/>
<path class="st0" d="M236.1,249.9c-3.4-3.4-8.9-3.4-12.3,0c-3.4,3.4-3.4,8.9,0,12.3l17.3,17.3c1.7,1.7,3.9,2.5,6.1,2.5
	c2.2,0,4.4-0.8,6.1-2.5l43.3-43.3c3.4-3.4,3.4-8.9,0-12.3c-3.4-3.4-8.9-3.4-12.3,0l-37.2,37.2L236.1,249.9z"/>
<path class="st0" d="M169.3,247.3c0,47.8,38.9,86.7,86.7,86.7s86.7-38.9,86.7-86.7s-38.9-86.7-86.7-86.7S169.3,199.5,169.3,247.3z
	 M325.3,247.3c0,38.2-31.1,69.3-69.3,69.3s-69.3-31.1-69.3-69.3S217.8,178,256,178S325.3,209.1,325.3,247.3z"/>
</svg>
