<?xml version="1.0" encoding="utf-8"?>
<!-- Generator: Adobe Illustrator 25.2.3, SVG Export Plug-In . SVG Version: 6.00 Build 0)  -->
<svg version="1.1" id="Layer_1_1_" xmlns="http://www.w3.org/2000/svg" xmlns:xlink="http://www.w3.org/1999/xlink" x="0px" y="0px"
	 viewBox="0 0 512 512" style="enable-background:new 0 0 512 512;" xml:space="preserve">
<style type="text/css">
	.st0{fill:#0D6EFD;}
</style>
<path class="st0" d="M431,315.4V110.8c0-20.1-16.3-36.4-36.4-36.4H380V59.8c0-12-9.8-21.8-21.8-21.8s-21.8,9.8-21.8,21.8v14.6H300
	V59.8c0-12-9.8-21.8-21.8-21.8s-21.8,9.8-21.8,21.8v14.6h-43.7V59.8c0-12-9.8-21.8-21.8-21.8S169,47.8,169,59.8v14.6h-36.4V59.8
	c0-12-9.8-21.8-21.8-21.8S89,47.8,89,59.8v14.6H74.4C54.3,74.4,38,90.7,38,110.8v291.1c0,20.1,16.3,36.4,36.4,36.4h244.7
	c15.1,26.1,43.3,43.7,75.5,43.7c48.2,0,87.3-39.2,87.3-87.3C482,359.5,461.1,329.2,431,315.4z M351,59.8c0-4,3.3-7.3,7.3-7.3
	s7.3,3.3,7.3,7.3v43.7c0,4-3.3,7.3-7.3,7.3s-7.3-3.3-7.3-7.3V59.8z M270.9,59.8c0-4,3.3-7.3,7.3-7.3s7.3,3.3,7.3,7.3v43.7
	c0,4-3.3,7.3-7.3,7.3s-7.3-3.3-7.3-7.3V59.8z M183.6,59.8c0-4,3.3-7.3,7.3-7.3s7.3,3.3,7.3,7.3v43.7c0,4-3.3,7.3-7.3,7.3
	s-7.3-3.3-7.3-7.3V59.8z M103.5,59.8c0-4,3.3-7.3,7.3-7.3s7.3,3.3,7.3,7.3v43.7c0,4-3.3,7.3-7.3,7.3s-7.3-3.3-7.3-7.3V59.8z
	 M74.4,89H89v14.6c0,12,9.8,21.8,21.8,21.8s21.8-9.8,21.8-21.8V89H169v14.6c0,12,9.8,21.8,21.8,21.8s21.8-9.8,21.8-21.8V89h43.7
	v14.6c0,12,9.8,21.8,21.8,21.8s21.8-9.8,21.8-21.8V89h36.4v14.6c0,12,9.8,21.8,21.8,21.8s21.8-9.8,21.8-21.8V89h14.6
	c12,0,21.8,9.8,21.8,21.8v36.4H52.6v-36.4C52.6,98.7,62.4,89,74.4,89z M74.4,423.8c-12,0-21.8-9.8-21.8-21.8V161.7h363.9v148.4
	c-7-1.8-14.3-2.9-21.8-2.9c-5,0-9.8,0.5-14.6,1.3v-37.7c0-4-3.3-7.3-7.3-7.3h-43.7c-4,0-7.3,3.3-7.3,7.3v43.7c0,4,3.3,7.3,7.3,7.3
	h17.3c-23.6,15.7-39.2,42.4-39.2,72.8c0,10.2,1.9,20,5.1,29.1H74.4V423.8z M365.5,307.3h-29.1v-29.1h29.1V307.3z M394.7,467.4
	c-40.1,0-72.8-32.7-72.8-72.8s32.7-72.8,72.8-72.8s72.8,32.7,72.8,72.8S434.8,467.4,394.7,467.4z"/>
<path class="st0" d="M401.9,382.1v-45.7h-14.6v45.7c-4.3,2.5-7.3,7.2-7.3,12.5c0,0.7,0.1,1.4,0.2,2.2l-26.6,21.3l9.1,11.4l26.6-21.3
	c1.6,0.6,3.4,1,5.3,1c8,0,14.6-6.5,14.6-14.6C409.2,389.3,406.3,384.6,401.9,382.1z"/>
<path class="st0" d="M132.6,183.6H89c-4,0-7.3,3.3-7.3,7.3v43.7c0,4,3.3,7.3,7.3,7.3h43.7c4,0,7.3-3.3,7.3-7.3v-43.7
	C139.9,186.8,136.6,183.6,132.6,183.6z M125.3,227.2H96.2v-29.1h29.1C125.3,198.1,125.3,227.2,125.3,227.2z"/>
<path class="st0" d="M212.7,183.6H169c-4,0-7.3,3.3-7.3,7.3v43.7c0,4,3.3,7.3,7.3,7.3h43.7c4,0,7.3-3.3,7.3-7.3v-43.7
	C220,186.8,216.7,183.6,212.7,183.6z M205.4,227.2h-29.1v-29.1h29.1V227.2z"/>
<path class="st0" d="M292.8,183.6h-43.7c-4,0-7.3,3.3-7.3,7.3v43.7c0,4,3.3,7.3,7.3,7.3h43.7c4,0,7.3-3.3,7.3-7.3v-43.7
	C300,186.8,296.8,183.6,292.8,183.6z M285.5,227.2h-29.1v-29.1h29.1V227.2z"/>
<path class="st0" d="M329.1,241.8h43.7c4,0,7.3-3.3,7.3-7.3v-43.7c0-4-3.3-7.3-7.3-7.3h-43.7c-4,0-7.3,3.3-7.3,7.3v43.7
	C321.9,238.5,325.1,241.8,329.1,241.8z M336.4,198.1h29.1v29.1h-29.1V198.1z"/>
<path class="st0" d="M132.6,263.6H89c-4,0-7.3,3.3-7.3,7.3v43.7c0,4,3.3,7.3,7.3,7.3h43.7c4,0,7.3-3.3,7.3-7.3v-43.7
	C139.9,266.9,136.6,263.6,132.6,263.6z M125.3,307.3H96.2v-29.1h29.1C125.3,278.2,125.3,307.3,125.3,307.3z"/>
<path class="st0" d="M212.7,263.6H169c-4,0-7.3,3.3-7.3,7.3v43.7c0,4,3.3,7.3,7.3,7.3h43.7c4,0,7.3-3.3,7.3-7.3v-43.7
	C220,266.9,216.7,263.6,212.7,263.6z M205.4,307.3h-29.1v-29.1h29.1V307.3z"/>
<path class="st0" d="M292.8,263.6h-43.7c-4,0-7.3,3.3-7.3,7.3v43.7c0,4,3.3,7.3,7.3,7.3h43.7c4,0,7.3-3.3,7.3-7.3v-43.7
	C300,266.9,296.8,263.6,292.8,263.6z M285.5,307.3h-29.1v-29.1h29.1V307.3z"/>
<path class="st0" d="M132.6,343.7H89c-4,0-7.3,3.3-7.3,7.3v43.7c0,4,3.3,7.3,7.3,7.3h43.7c4,0,7.3-3.3,7.3-7.3V351
	C139.9,347,136.6,343.7,132.6,343.7z M125.3,387.4H96.2v-29.1h29.1C125.3,358.3,125.3,387.4,125.3,387.4z"/>
<path class="st0" d="M212.7,343.7H169c-4,0-7.3,3.3-7.3,7.3v43.7c0,4,3.3,7.3,7.3,7.3h43.7c4,0,7.3-3.3,7.3-7.3V351
	C220,347,216.7,343.7,212.7,343.7z M205.4,387.4h-29.1v-29.1h29.1V387.4z"/>
<path class="st0" d="M292.8,343.7h-43.7c-4,0-7.3,3.3-7.3,7.3v43.7c0,4,3.3,7.3,7.3,7.3h43.7c4,0,7.3-3.3,7.3-7.3V351
	C300,347,296.8,343.7,292.8,343.7z M285.5,387.4h-29.1v-29.1h29.1V387.4z"/>
</svg>
