<?xml version="1.0" encoding="utf-8"?>
<!-- Generator: Adobe Illustrator 25.2.3, SVG Export Plug-In . SVG Version: 6.00 Build 0)  -->
<svg version="1.1" id="Layer_1" xmlns="http://www.w3.org/2000/svg" xmlns:xlink="http://www.w3.org/1999/xlink" x="0px" y="0px"
	 viewBox="0 0 512 512" style="enable-background:new 0 0 512 512;" xml:space="preserve">
<style type="text/css">
	.st0{fill:#FFFFFF;}
</style>
<path class="st0" d="M199.4,194.9c30.6,0,55.9-25.3,55.9-55.9S230,83.1,199.4,83.1s-55.1,25.3-55.1,56.6
	C144.2,170.3,168.8,194.9,199.4,194.9z M199.4,106.2c18.6,0,33.5,14.9,33.5,33.5s-14.9,33.5-33.5,33.5s-33.5-14.9-33.5-33.5
	C166.6,121.1,181.5,106.2,199.4,106.2z M377.5,246.3v-190c0-17.1-14.2-31.3-31.3-31.3H55.6C38.4,25,25,38.4,25,56.3v290.6
	c0,17.1,14.2,31.3,31.3,31.3h190.8c5.2,61.1,56.6,108.8,119.2,108.8c67.1,0,120.7-53.7,120.7-120.7
	C487,303.7,439.3,252.3,377.5,246.3z M47.4,346.2V55.6c0-4.5,3.7-8.2,8.9-8.2h290.6c5.2,0,8.9,3.7,8.9,8.9v190.8
	c-23.1,2.2-44,11.2-61.8,23.8c-15.6-32.8-52.2-54.4-92.4-54.4c-55.9,0-101.3,41-101.3,91.7c0,6,5.2,11.2,11.2,11.2H256
	c-5.2,11.2-8.2,23.8-9.7,36.5h-190C51.1,355.1,47.4,351.4,47.4,346.2z M268.7,296.2H123.4c6-32.8,38.7-58.1,77.5-58.1
	c34.3,0,64.8,19.4,75.3,48.4C273.9,289.5,270.9,293.3,268.7,296.2z M366.3,464.6c-54.4,0-98.4-44-98.4-98.4s44-98.4,98.4-98.4
	s98.4,44.7,98.4,98.4S420.7,464.6,366.3,464.6z M417,319.3c-5.2-3.7-11.9-2.2-15.6,2.2L353,388.6l-22.4-20.9
	c-4.5-4.5-11.9-3.7-15.6,0.7c-4.5,4.5-3.7,11.9,0.7,15.6l32,28.3l0,0l0.7,0.7c0.7,0.7,1.5,0.7,1.5,0.7c0.7,0,0.7,0.7,1.5,0.7
	c1.5,0.7,2.2,0.7,3.7,0.7c0.7,0,1.5,0,2.2,0h0.7c0.7,0,0.7,0,1.5-0.7c0,0,0.7,0,0.7-0.7c0.7,0,0.7-0.7,1.5-0.7l0.7-0.7
	c0,0,0.7,0,0.7-0.7l0,0c0,0,0.7,0,0.7-0.7l55.1-76.8C422.9,329.8,421.4,323.1,417,319.3z"/>
</svg>
