<?xml version="1.0" encoding="utf-8"?>
<!-- Generator: Adobe Illustrator 25.2.3, SVG Export Plug-In . SVG Version: 6.00 Build 0)  -->
<svg version="1.1" id="Layer_1" xmlns="http://www.w3.org/2000/svg" xmlns:xlink="http://www.w3.org/1999/xlink" x="0px" y="0px"
	 viewBox="0 0 512 512" style="enable-background:new 0 0 512 512;" xml:space="preserve">
<style type="text/css">
	.st0{fill:#0D6EFD;}
</style>
<g>
	<path class="st0" d="M480.5,413.2h-56.1c14.5,0,26.2-11.7,26.2-26.2v-7.5c0-14.5-11.7-26.2-26.2-26.2h-18.2l-20.4-93.8
		c-2.2-23.1-21.5-40.8-44.7-40.9h-40.2v-7.5c0-0.9-0.2-1.7-0.5-2.6c7.2-7.6,12.2-17.1,14.3-27.4h1.1c12.4,0,22.4-10.1,22.5-22.5
		v-48.6c0-43.4-35.2-78.5-78.6-78.6h-7.5c-43.4,0-78.5,35.2-78.6,78.6v48.6c0,12.4,10.1,22.4,22.5,22.5h1.1
		c2.1,10.3,7.1,19.8,14.3,27.4c-0.3,0.8-0.5,1.7-0.5,2.6v7.5h-40.2c-23.2,0.1-42.6,17.8-44.7,40.9l-17.1,78.8h-6.5
		c-2.1,0-4.2,0.3-6.2,0.8l-20.8-41.5c-1.8-3.7-6.3-5.2-10-3.3c-3.7,1.8-5.2,6.3-3.3,10l0,0l21.2,42.4c-4.5,4.8-7,11.2-7,17.8V387
		c0,14.5,11.7,26.2,26.2,26.2H31.5c-4.1,0-7.5,3.4-7.5,7.5v29.9c0,4.1,3.4,7.5,7.5,7.5H39v15c0,4.1,3.4,7.5,7.5,7.5h419.1
		c4.1,0,7.5-3.4,7.5-7.5v-15h7.5c4.1,0,7.5-3.4,7.5-7.5v-29.9C488,416.5,484.6,413.2,480.5,413.2z M401.9,368.3h22.5
		c6.2,0,11.2,5,11.2,11.2v7.5c0,6.2-5,11.2-11.2,11.2h-22.5c-6.2,0-11.2-5-11.2-11.2v-7.5C390.7,373.3,395.7,368.3,401.9,368.3z
		 M323.4,158.7c0,4.1-3.4,7.5-7.5,7.5v-29.9h7.5V158.7z M196.1,166.2c-4.1,0-7.5-3.4-7.5-7.5v-22.5h7.5V166.2z M188.6,121.3v-11.2
		c0-35.1,28.5-63.6,63.6-63.6h7.5c35.1,0,63.6,28.5,63.6,63.6v11.2h-7.5v-3.7c0-1.4-0.1-2.9-0.2-4.3c-0.3-4.1-3.9-7.2-8-6.9
		c-0.8,0.1-1.5,0.2-2.2,0.5c-35.7,14.2-101.2,14.4-101.9,14.4H188.6z M211.1,169.9v-33.8c16.9-0.4,58.8-2.4,89.8-11.8v45.6
		c0,22.7-18.4,41.1-41.2,41.2h-7.5C229.5,211.1,211.1,192.7,211.1,169.9z M285.9,219.6v6.5c0,12.4-13.4,22.5-29.9,22.5
		s-29.9-10.1-29.9-22.5v-6.5c8.1,4.3,17.1,6.5,26.2,6.5h7.5C268.9,226.1,277.9,223.8,285.9,219.6L285.9,219.6z M140.9,262.2
		c0.1-0.3,0.1-0.7,0.1-1c1.3-15.6,14.2-27.6,29.8-27.6H212c4.2,17.1,22.3,29.9,44,29.9s39.8-12.9,44-29.9h41.1
		c15.6,0.1,28.6,12.1,29.8,27.6c0,0.3,0.1,0.7,0.1,1l20.3,93.3c-9.5,4.2-15.6,13.6-15.6,24v7.5c0,14.5,11.7,26.2,26.2,26.2h-33.7
		v-116c0-14.5-11.7-26.2-26.2-26.2H169.9c-14.5,0-26.2,11.7-26.2,26.2v116h-33.7c14.5,0,26.2-11.7,26.2-26.2v-22.5
		c0-9.2-4.8-17.7-12.7-22.4L140.9,262.2z M353.3,297.2v116H158.7v-116c0-6.2,5-11.2,11.2-11.2h172.1
		C348.3,285.9,353.3,291,353.3,297.2z M91.4,387v-22.5c0-6.2,5-11.2,11.2-11.2h7.5c6.2,0,11.2,5,11.2,11.2V387
		c0,6.2-5,11.2-11.2,11.2h-7.5C96.4,398.2,91.4,393.2,91.4,387z M458.1,465.5H53.9v-7.5h404.1V465.5z M473,443.1H39v-15H473V443.1z"
		/>
	<path class="st0" d="M256,330.8c-16.5,0-29.9,13.4-29.9,29.9s13.4,29.9,29.9,29.9s29.9-13.4,29.9-29.9
		C285.9,344.2,272.5,330.9,256,330.8z M256,375.7c-8.3,0-15-6.7-15-15s6.7-15,15-15c8.3,0,15,6.7,15,15
		C271,369,264.3,375.7,256,375.7z"/>
	<circle class="st0" cx="233.5" cy="151.2" r="7.5"/>
	<circle class="st0" cx="278.5" cy="151.2" r="7.5"/>
	<path class="st0" d="M248.5,196.1h15c4.1,0,7.5-3.4,7.5-7.5s-3.4-7.5-7.5-7.5h-15c-4.1,0-7.5,3.4-7.5,7.5S244.4,196.1,248.5,196.1z
		"/>
</g>
</svg>
